<svg width="24" height="24" viewBox="0 0 24 24" fill="none" xmlns="http://www.w3.org/2000/svg">
<path d="M4.46094 13.865V9.07304C4.46094 6.68158 4.46094 5.48586 5.20387 4.74293C5.9468 4 7.14252 4 9.53397 4H11.8635C13.3668 4 14.1185 4 14.6034 4.44441C14.6396 4.47756 14.6743 4.51226 14.7074 4.54842C15.1518 5.03329 15.1518 5.78498 15.1518 7.28835V7.28835" stroke="white" stroke-width="1.21" stroke-linejoin="round"/>
<path fill-rule="evenodd" clip-rule="evenodd" d="M11.0411 6.68945L10.9981 6.68945C9.53117 6.68944 8.37198 6.68943 7.46088 6.8054C6.52541 6.92446 5.76656 7.17439 5.15244 7.73727C5.06717 7.81542 4.98535 7.89725 4.90719 7.98252C4.34431 8.59664 4.09439 9.35548 3.97532 10.291C3.85936 11.2021 3.85936 12.3612 3.85938 13.8282L3.85938 13.8711L3.85938 13.9141C3.85936 15.3811 3.85936 16.5402 3.97532 17.4513C4.09439 18.3868 4.34431 19.1457 4.90719 19.7598C4.98535 19.845 5.06717 19.9269 5.15244 20.005C5.76656 20.5679 6.52541 20.8178 7.46088 20.9369C8.37198 21.0529 9.53116 21.0529 10.9981 21.0528H11.0411H12.6904H12.7334C14.2004 21.0529 15.3595 21.0529 16.2706 20.9369C17.2061 20.8178 17.965 20.5679 18.5791 20.005C18.6643 19.9269 18.7462 19.845 18.8243 19.7598C19.3872 19.1457 19.6371 18.3868 19.7562 17.4513C19.8265 16.8994 19.8541 16.2564 19.8651 15.509C19.6856 15.5167 19.4744 15.5167 19.2239 15.5167H18.6547C18.6441 16.2265 18.6183 16.8078 18.5559 17.2986C18.4527 18.1089 18.2583 18.5866 17.9323 18.9422C17.8779 19.0016 17.8209 19.0586 17.7615 19.113C17.4059 19.439 16.9282 19.6334 16.1179 19.7366C15.292 19.8417 14.2099 19.8428 12.6904 19.8428H11.0411C9.52162 19.8428 8.43949 19.8417 7.61366 19.7366C6.80333 19.6334 6.32562 19.439 5.97001 19.113C5.91062 19.0586 5.85363 19.0016 5.7992 18.9422C5.47326 18.5866 5.27877 18.1089 5.17564 17.2986C5.07053 16.4727 5.06938 15.3906 5.06938 13.8711C5.06938 12.3517 5.07053 11.2696 5.17564 10.4437C5.27877 9.63341 5.47326 9.1557 5.7992 8.80009C5.85363 8.7407 5.91062 8.68371 5.97001 8.62928C6.32562 8.30334 6.80333 8.10885 7.61366 8.00571C8.43948 7.9006 9.52162 7.89945 11.0411 7.89945H12.6904C14.2099 7.89945 15.292 7.9006 16.1179 8.00571C16.9282 8.10885 17.4059 8.30334 17.7615 8.62928C17.8209 8.68371 17.8779 8.7407 17.9323 8.80009C18.2583 9.1557 18.4527 9.63341 18.5559 10.4437C18.5924 10.731 18.6164 11.0493 18.6322 11.4063H19.2239C19.4644 11.4063 19.6686 11.4063 19.8434 11.4131C19.8264 11.0027 19.7993 10.6297 19.7562 10.291C19.6371 9.35548 19.3872 8.59664 18.8243 7.98252C18.7462 7.89725 18.6643 7.81542 18.5791 7.73727C17.965 7.17439 17.2061 6.92446 16.2706 6.8054C15.3595 6.68943 14.2003 6.68944 12.7334 6.68945L12.6904 6.68945H11.0411Z" fill="white"/>
<path d="M20.9059 14.2146V12.6888C20.9059 12.2722 20.9059 12.064 20.8341 11.9011C20.7489 11.7078 20.5946 11.5534 20.4013 11.4683C20.2384 11.3965 20.0301 11.3965 19.6136 11.3965H18.438C17.303 11.3965 16.3828 12.3166 16.3828 13.4517C16.3828 14.5868 17.303 15.5069 18.438 15.5069H19.6136C20.0301 15.5069 20.2384 15.5069 20.4013 15.4351C20.5946 15.35 20.7489 15.1956 20.8341 15.0023C20.9059 14.8394 20.9059 14.6312 20.9059 14.2146Z" stroke="white" stroke-width="1.21" stroke-linejoin="round"/>
<path d="M7.79687 10.5762L14.5608 10.5762" stroke="white" stroke-width="1.21" stroke-linecap="round"/>
</svg>
