<?xml version="1.0" encoding="UTF-8"?>
<svg id="Layer_1" data-name="Layer 1" xmlns="http://www.w3.org/2000/svg" xmlns:xlink="http://www.w3.org/1999/xlink" viewBox="0 0 1672 1301">
  <defs>
    <clipPath id="clippath">
      <path d="M1316.23,78.25l10.33,38.68c-15.97-1.38-35.05,5.47-42.54,15.27l-10.33-38.68c7.49-9.81,26.57-16.66,42.54-15.27Z" fill="none" stroke-width="0"/>
    </clipPath>
    <clipPath id="clippath-1">
      <path d="M1529.38,107.63l10.33,38.68c-.5-1.87-1.54-3.66-3.11-5.29-3.88-4.03-10.53-6.7-18.83-7.53l-10.33-38.68c8.3.84,14.96,3.51,18.83,7.53,1.57,1.63,2.61,3.42,3.11,5.29Z" fill="none" stroke-width="0"/>
    </clipPath>
    <clipPath id="clippath-2">
      <path d="M1539.71,146.31c.77,2.9.26,6.02-1.57,9.15l-10.33-38.68c1.83-3.13,2.34-6.25,1.57-9.15,3.1,11.6,7.23,27.08,10.33,38.68Z" fill="none" stroke-width="0"/>
    </clipPath>
    <clipPath id="clippath-3">
      <path d="M1530.41,107.36l10.33,38.68c.8,3.01.27,6.24-1.63,9.49l-10.33-38.68c1.9-3.25,2.44-6.48,1.63-9.49Z" fill="none" stroke-width="0"/>
    </clipPath>
    <clipPath id="clippath-4">
      <path d="M1188.02,266.6l-10.33-38.68c-1.11-4.14.12-8.78,3.61-13.34l10.33,38.68c-3.49,4.56-4.72,9.2-3.61,13.34Z" fill="none" stroke-width="0"/>
    </clipPath>
    <clipPath id="clippath-5">
      <path d="M1188.02,266.6l-10.33-38.68c.25.95.63,1.88,1.14,2.77,2.75,4.89,8.89,8.2,17.28,9.31l10.33,38.68c-8.39-1.12-14.53-4.43-17.28-9.31-.5-.89-.88-1.82-1.14-2.77Z" fill="none" stroke-width="0"/>
    </clipPath>
    <clipPath id="clippath-6">
      <path d="M1186.99,266.87l-10.33-38.68c.26.99.65,1.94,1.17,2.87,2.84,5.05,9.17,8.46,17.82,9.61l10.33,38.68c-8.65-1.15-14.97-4.57-17.82-9.61-.52-.92-.91-1.88-1.17-2.87Z" fill="none" stroke-width="0"/>
    </clipPath>
    <clipPath id="clippath-7">
      <path d="M1461.08,287.37c-3.44,5.89-10.11,11.09-18.76,14.63-3.44-12.89-6.89-25.79-10.33-38.68,8.65-3.54,15.31-8.74,18.76-14.63,3.1,11.6,7.23,27.08,10.33,38.68Z" fill="none" stroke-width="0"/>
    </clipPath>
    <clipPath id="clippath-8">
      <path d="M1436.76,303.95c-2.05-7.68-4.1-15.36-6.15-23.04-1.39-5.21-2.79-10.43-4.19-15.64,1.9-.56,3.77-1.22,5.58-1.96.36,1.35.84,3.16,1.2,4.51.38,1.44.89,3.35,1.28,4.79s.93,3.48,1.33,4.97.95,3.54,1.35,5.06.95,3.54,1.35,5.06.93,3.48,1.33,4.97.9,3.35,1.28,4.79c.36,1.36.84,3.16,1.21,4.52-1.81.74-3.67,1.39-5.57,1.95Z" fill="none" stroke-width="0"/>
    </clipPath>
    <clipPath id="clippath-9">
      <path d="M1436.76,303.95c-.45.13-.9.26-1.35.38-3.44-12.89-6.89-25.79-10.33-38.68.45-.12.9-.25,1.34-.38,1.22,4.53,2.43,9.06,3.64,13.59,2.24,8.36,4.47,16.73,6.7,25.09Z" fill="none" stroke-width="0"/>
    </clipPath>
    <clipPath id="clippath-10">
      <path d="M1413.73,306.24c-.53-.05-1.06-.12-1.59-.19l-10.33-38.68c.53.07,1.05.13,1.59.19,6.99.71,14.55.02,21.67-1.91.36,1.35.84,3.16,1.2,4.51.38,1.44.89,3.35,1.28,4.79s.93,3.48,1.33,4.97.95,3.54,1.35,5.06.95,3.54,1.35,5.06.93,3.48,1.33,4.97.9,3.35,1.28,4.79c.36,1.36.84,3.16,1.21,4.52-7.12,1.93-14.68,2.61-21.67,1.91Z" fill="none" stroke-width="0"/>
    </clipPath>
    <clipPath id="clippath-11">
      <path d="M1451.72,248.76l10.33,38.68c-3.55,6.08-10.43,11.45-19.35,15.09-9.2,3.77-19.81,5.33-29.37,4.37-.55-.06-1.09-.12-1.64-.19l-10.33-38.68c.54.07,1.09.13,1.64.19,9.56.96,20.17-.6,29.37-4.37,8.92-3.65,15.8-9.01,19.35-15.09Z" fill="none" stroke-width="0"/>
    </clipPath>
    <linearGradient id="linear-gradient" x1="542.02" y1="556.29" x2="542.02" y2="271.8" gradientTransform="translate(305.26 -372.73) rotate(13.9)" gradientUnits="userSpaceOnUse">
      <stop offset="0" stop-color="#0d315c"/>
      <stop offset="1" stop-color="#007c89"/>
    </linearGradient>
    <clipPath id="clippath-12">
      <polygon points="502.73 470.01 541.49 720.22 589.71 830.12 889.47 912.32 1100.4 826.19 1206.63 630.92 1188.12 392 502.73 470.01" fill="none" stroke-width="0"/>
    </clipPath>
    <clipPath id="clippath-13">
      <path d="M688.48,300.6l-181.68,163.86c-3.44,3.1-4.51,8.04-2.68,12.29l43.1,99.79c1.32,3.04,3.96,5.32,7.17,6.16l298.36,78.32c2.28.6,4.69.43,6.87-.47l186.48-77.25c2.05-.85,3.79-2.31,4.98-4.18l135.19-181.55c2.71-4.27,2.09-9.84-1.48-13.42l-88.94-71.88c-1.63-1.63-3.73-2.69,8.98-22.15l-287.49-42.99c-16.55,18.87-18.14,18.98-19.66,19.43l-105.03,31.71c-1.55.46-2.98,1.26-4.18,2.34Z" fill="none" stroke-width="0"/>
    </clipPath>
    <clipPath id="clippath-15">
      <polygon points="1458.05 497.03 1470.5 433.81 1375.53 399.33 1348.01 448.2 1339.23 516.72 1433.38 549.37 1458.05 497.03" fill="none" stroke="#000" stroke-miterlimit="10" stroke-width="2"/>
    </clipPath>
    <clipPath id="clippath-16">
      <polygon points="371.88 266.07 362.94 220.58 290.31 223.51 285.31 263.54 298.13 311.55 369.72 307.64 371.88 266.07" fill="none" stroke="#000" stroke-miterlimit="10" stroke-width="2"/>
    </clipPath>
    <clipPath id="clippath-17">
      <polygon points="443.56 388.51 452.51 343.03 384.2 318.23 364.39 353.38 358.08 402.67 425.81 426.16 443.56 388.51" fill="none" stroke="#000" stroke-miterlimit="10" stroke-width="2"/>
    </clipPath>
    <clipPath id="clippath-18">
      <polygon points="531.3 261.81 555.29 191.05 451.41 136.89 412.3 188.84 391.71 266.25 494.94 318.19 531.3 261.81" fill="none" stroke="#000" stroke-miterlimit="10" stroke-width="2"/>
    </clipPath>
    <clipPath id="clippath-19">
      <polygon points="274.36 778.94 261.16 711.81 153.97 716.13 146.58 775.22 165.51 846.08 271.17 840.3 274.36 778.94" fill="none" stroke-width="0"/>
    </clipPath>
    <clipPath id="clippath-20">
      <polygon points="380.16 959.67 393.38 892.54 292.54 855.93 263.31 907.82 253.99 980.57 353.96 1015.25 380.16 959.67" fill="none" stroke-width="0"/>
    </clipPath>
    <clipPath id="clippath-21">
      <path d="M345.85,525.22c-17.38-27.14-33.81-29.71-49.92-19.59-1.04.66-2.37-.19-2.18-1.41,2.42-15.52-1.21-31.68-15.08-47.21h0s0,0,0,0c-6.32-7.1-12.67-11.01-19.03-12.41-.33-.07-.62-.25-.82-.52l.68-4.07c-.43-.56-1.2-.73-1.82-.4l-17.79,7.97h0c-6.99,3.42-13.94,9.06-20.81,16.03-.62.62-1.64.57-2.17-.13l-14.79-19.64c-.63-.84-.17-2.06.86-2.27l9.14-1.88c.77-.16,1.27-.91,1.12-1.68l-2.5-12.85c-.29-1.47-1.87-2.29-3.24-1.68l-15.16,6.79c-.21.09-.4.24-.54.42l-13.13,16.69c-.4.51-.41,1.21-.03,1.73l3.69,5.04c.55.75.25,1.82-.61,2.17l-14.92,6.14h0l-13.34,16.95c-.4.51-.41,1.23-.02,1.75l24.56,32.64c.38.51.38,1.22,0,1.73-2.74,3.65-5.45,7.23-8.14,10.66l-.08-.11-18.67,23.7c-.4.51-.41,1.23-.02,1.75l15.48,20.55c.4.53,1.12.72,1.73.45l16.78-7.52c.22-.1.41-.25.55-.43l5.3-6.88c.48.37.94.76,1.38,1.17.07.06.13.13.18.2l28.36,37.67c.53.7,1.43,1.9,1.82,2.42l40.59,53.93c.04.05.07.1.1.16,1.75,3,3.83,8.54-.1,13.55.31,0-7.34,9.44-9.59,12.2-.37.46-.42,1.09-.13,1.6l14.91,26.55c.36.65,1.16.91,1.84.61l16.44-7.36c.34-.15.61-.43.74-.77l5.96-14.78c.28-.69-.02-1.49-.69-1.82l-1.08-.54c-.82-.41-1.05-1.47-.47-2.19,1.72-2.15,3.44-4.27,5.13-6.39.58-.73,1.69-.71,2.26.04l24.39,32.38c.4.53,1.12.72,1.73.45l16.36-7.33c.47-.21.79-.65.84-1.16l1.44-13.48c.08-.78-.47-1.49-1.26-1.58-2.13-.24-6.27-.72-9.45-1.16-.38-.05-.71-.25-.94-.56l-19.26-25.58c-.4-.53-.38-1.26.04-1.77,3.27-3.97,6.41-7.88,9.46-11.75.58-.74,1.7-.72,2.27.03l23.97,31.86c.4.53,1.12.72,1.73.45l16.11-7.22c.59-.27.93-.9.83-1.54l-2.04-12.58c-.15-.91-1.1-1.45-1.95-1.1-.53.22-1.16.48-1.85.76-.6.25-1.3.06-1.7-.46l-21.93-29.13c-.37-.49-.38-1.16-.03-1.67,21.65-31.66,31.11-61.29,8.48-96.62ZM191.02,494.67l-15.08-20.03c-.58-.77-.25-1.89.67-2.21l8.29-2.95c.6-.21.99-.81.95-1.45l-.36-5.44c-.09-1.42,1.72-2.09,2.58-.96l14.47,19.22c.39.52.39,1.23-.01,1.74-3.08,3.93-6.16,8-9.22,12.07-.57.76-1.72.76-2.29,0ZM241.37,560.68l-29.69-39.44c-.39-.51-.39-1.22,0-1.73,8.43-11.04,29.8-43.92,47.87-19.92h0c17.02,22.62-6.88,49.98-15.93,61.13-.59.72-1.69.7-2.25-.05ZM291.93,627.86l-32.91-43.73c-.39-.51-.39-1.22,0-1.73,10.04-13.07,36.05-52.58,56-26.08h0c18.85,25.02-10.18,58.35-20.83,71.58-.59.73-1.69.7-2.25-.05Z" fill="none" stroke-width="0"/>
    </clipPath>
    <clipPath id="clippath-22">
      <polygon points="1120.25 184.15 1111.31 138.67 1038.68 141.6 1033.67 181.63 1046.5 229.64 1118.08 225.72 1120.25 184.15" fill="#f9f9f9" stroke="#000" stroke-miterlimit="10" stroke-width="2"/>
    </clipPath>
    <clipPath id="clippath-23">
      <path d="M1157.87,903.8l12.6,34.78c-12.11-1.92-26.75,3.68-32.63,12.48l-12.6-34.78c5.88-8.8,20.52-14.4,32.63-12.48Z" fill="none" stroke-width="0"/>
    </clipPath>
    <clipPath id="clippath-24">
      <path d="M1423.12,953.39l12.6,34.78c-1.76-4.85-6.91-8.67-14.37-9.85l-12.6-34.78c7.46,1.18,12.61,5,14.37,9.85Z" fill="none" stroke-width="0"/>
    </clipPath>
    <clipPath id="clippath-25">
      <path d="M1435.71,988.17c.03.08.05.15.08.23-2.1-5.8-4.2-11.59-6.3-17.39-.49-1.37-1.15-3.19-1.65-4.55s-1.13-3.13-1.62-4.47-1.09-3.02-1.56-4.31c-.44-1.22-1.03-2.84-1.47-4.06-.03-.08-.05-.15-.08-.23,3.78,10.44,8.81,24.35,12.6,34.78Z" fill="none" stroke-width="0"/>
    </clipPath>
    <clipPath id="clippath-26">
      <path d="M1435.79,988.39c1.01,2.98.76,6.34-1.01,9.71l-12.6-34.78c1.77-3.37,2.02-6.73,1.01-9.71.44,1.22,1.03,2.84,1.47,4.06.47,1.29,1.09,3.02,1.56,4.31s1.13,3.13,1.62,4.47,1.15,3.19,1.65,4.55c.25.68.58,1.6.83,2.28s.58,1.59.82,2.27c.49,1.34,1.13,3.13,1.62,4.47.24.65.55,1.53.79,2.18.46,1.26,1.06,2.94,1.52,4.2.22.6.51,1.39.72,2Z" fill="none" stroke-width="0"/>
    </clipPath>
    <clipPath id="clippath-27">
      <path d="M1424.11,953.04l12.6,34.78c1.15,3.17.91,6.77-.98,10.38l-12.6-34.78c1.89-3.62,2.13-7.21.98-10.38Z" fill="none" stroke-width="0"/>
    </clipPath>
    <clipPath id="clippath-28">
      <path d="M1001.38,1165.14l-12.6-34.78c-1.49-4.11-.63-8.87,2.49-13.54l12.6,34.78c-3.12,4.67-3.98,9.43-2.49,13.54Z" fill="none" stroke-width="0"/>
    </clipPath>
    <clipPath id="clippath-29">
      <path d="M1001.38,1165.14l-12.6-34.78c.14.39.31.78.49,1.16,2.14,4.41,6.91,7.4,13.42,8.43l12.6,34.78c-6.51-1.03-11.28-4.02-13.42-8.43-.19-.38-.35-.77-.49-1.16Z" fill="none" stroke-width="0"/>
    </clipPath>
    <clipPath id="clippath-30">
      <path d="M1000.37,1165.5l-12.6-34.78c.15.41.32.82.51,1.21,2.23,4.58,7.2,7.69,13.96,8.77l12.6,34.78c-6.77-1.07-11.73-4.18-13.96-8.77-.19-.4-.37-.8-.51-1.21Z" fill="none" stroke-width="0"/>
    </clipPath>
    <clipPath id="clippath-31">
      <path d="M1327.55,1202.87c-2.73,5.22-7.81,9.74-14.31,12.74-4.2-11.6-8.4-23.19-12.6-34.78,6.5-3,11.58-7.52,14.31-12.74,3.78,10.44,8.82,24.35,12.6,34.78Z" fill="none" stroke-width="0"/>
    </clipPath>
    <clipPath id="clippath-32">
      <path d="M1313.24,1215.61s-.01,0-.02,0c-4.2-11.6-8.4-23.19-12.6-34.78,0,0,.01,0,.02,0,.44,1.22,1.03,2.84,1.47,4.05.47,1.29,1.09,3.01,1.56,4.3s1.13,3.13,1.62,4.47,1.15,3.19,1.65,4.55,1.15,3.19,1.65,4.55,1.13,3.13,1.62,4.47,1.09,3.02,1.56,4.31c.44,1.22,1.03,2.85,1.47,4.07Z" fill="none" stroke-width="0"/>
    </clipPath>
    <clipPath id="clippath-33">
      <path d="M1292.93,1218.71c-4.04-11.21-8.52-23.56-12.6-34.78,6.51,1.03,13.72-.06,20.29-3.09.44,1.22,1.03,2.84,1.47,4.06.47,1.29,1.09,3.02,1.56,4.31s1.13,3.13,1.62,4.47,1.15,3.19,1.65,4.55,1.15,3.19,1.65,4.55,1.13,3.13,1.62,4.47,1.09,3.02,1.56,4.31c.44,1.22,1.03,2.84,1.47,4.06-6.57,3.03-13.77,4.12-20.29,3.09Z" fill="none" stroke-width="0"/>
    </clipPath>
    <clipPath id="clippath-34">
      <path d="M1315.9,1168.19l12.6,34.78c-2.85,5.44-8.15,10.15-14.92,13.27-6.83,3.15-14.32,4.29-21.09,3.21l-12.6-34.78c6.77,1.07,14.26-.07,21.09-3.21,6.78-3.12,12.08-7.84,14.92-13.27Z" fill="none" stroke-width="0"/>
    </clipPath>
  </defs>
  <g>
    <path d="M958.89,382.74c-1.81-.27-3.56-1.05-5.04-2.33-4.17-3.62-4.62-9.94-1-14.11l181.39-209.07c9.19-10.59,22.95-15.66,36.82-13.56l82.76,12.55c5.46.83,9.22,5.93,8.39,11.39s-5.93,9.22-11.39,8.39l-82.76-12.55c-7.05-1.07-14.04,1.51-18.71,6.89l-181.39,209.07c-2.33,2.69-5.78,3.83-9.06,3.33Z" fill="#e8e8e8" stroke="#000" stroke-miterlimit="10" stroke-width="2"/>
    <g isolation="isolate">
      <g isolation="isolate">
        <g clip-path="url(#clippath)">
          <g isolation="isolate">
            <path d="M1316.23,78.25l10.33,38.68c-.73-.06-1.47-.11-2.22-.14l-10.33-38.68c.74.03,1.48.08,2.22.14" stroke-width="0"/>
            <path d="M1314.01,78.11l10.33,38.68c-1.1-.04-2.2-.05-3.32-.02l-10.33-38.68c1.11-.03,2.22-.02,3.32.02" stroke-width="0"/>
            <path d="M1310.7,78.09l10.33,38.68c-1.01.03-2.03.08-3.05.16l-10.33-38.68c1.02-.08,2.04-.14,3.05-.16" stroke-width="0"/>
            <path d="M1307.65,78.25l10.33,38.68c-.97.08-1.93.18-2.9.31l-10.33-38.68c.97-.13,1.93-.23,2.9-.31" stroke-width="0"/>
            <path d="M1304.75,78.56l10.33,38.68c-.94.12-1.88.27-2.81.43l-10.33-38.68c.93-.17,1.87-.31,2.81-.43" stroke-width="0"/>
            <path d="M1301.93,78.99l10.33,38.68c-.93.16-1.85.35-2.77.56l-10.33-38.68c.92-.21,1.84-.39,2.77-.56" stroke-width="0"/>
            <path d="M1299.17,79.55l10.33,38.68c-.92.21-1.84.44-2.75.68l-10.33-38.68c.91-.25,1.83-.48,2.75-.68" stroke-width="0"/>
            <path d="M1296.42,80.23l10.33,38.68c-.93.25-1.86.53-2.77.82l-10.33-38.68c.91-.29,1.84-.57,2.77-.82" stroke-width="0"/>
            <path d="M1293.64,81.05l10.33,38.68c-.96.31-1.9.64-2.82.99l-10.33-38.68c.92-.35,1.87-.68,2.82-.99" stroke-width="0"/>
            <path d="M1290.82,82.04l10.33,38.68c-1,.38-1.98.78-2.93,1.2l-10.33-38.68c.95-.42,1.93-.82,2.93-1.2" stroke-width="0"/>
            <path d="M1287.89,83.24l10.33,38.68c-1.09.49-2.16,1-3.18,1.54l-10.33-38.68c1.03-.54,2.09-1.06,3.18-1.54" stroke-width="0"/>
            <path d="M1284.71,84.79l10.33,38.68c-1.4.74-2.72,1.52-3.96,2.35l-10.33-38.68c1.24-.83,2.57-1.61,3.96-2.35" stroke-width="0"/>
            <path d="M1280.74,87.14l10.33,38.68c-2.63,1.76-4.88,3.71-6.6,5.81l-10.33-38.68c1.72-2.1,3.97-4.05,6.6-5.81" stroke-width="0"/>
            <path d="M1274.14,92.95l10.33,38.68c-.16.19-.31.38-.45.57l-10.33-38.68c.15-.19.3-.38.45-.57" stroke-width="0"/>
          </g>
        </g>
      </g>
      <polygon points="1507.44 94.81 1517.77 133.49 1326.56 116.93 1316.23 78.25 1507.44 94.81" stroke-width="0"/>
      <g isolation="isolate">
        <g clip-path="url(#clippath-1)">
          <g isolation="isolate">
            <path d="M1529.38,107.63l10.33,38.68c-.5-1.87-1.54-3.66-3.11-5.29-3.68-3.82-9.85-6.42-17.56-7.39l-10.33-38.68c7.71.97,13.89,3.57,17.56,7.39,1.57,1.63,2.61,3.42,3.11,5.29" stroke-width="0"/>
            <path d="M1508.71,94.95l10.33,38.68c-.42-.05-.84-.1-1.27-.14l-10.33-38.68c.43.04.85.09,1.27.14" stroke-width="0"/>
          </g>
        </g>
      </g>
      <g isolation="isolate">
        <g clip-path="url(#clippath-2)">
          <g isolation="isolate">
            <path d="M1529.38,107.63l10.33,38.68c.05.18.09.37.13.56l-10.33-38.68c-.04-.19-.08-.37-.13-.56" fill="#9e9488" stroke-width="0"/>
            <path d="M1529.52,108.19l10.33,38.68c.09.41.15.83.18,1.25l-10.33-38.68c-.03-.42-.09-.84-.18-1.25" fill="#a3988d" stroke-width="0"/>
            <path d="M1529.7,109.44l10.33,38.68c.03.42.04.83.03,1.26l-10.33-38.68c.02-.42,0-.84-.03-1.26" fill="#a89d91" stroke-width="0"/>
            <path d="M1529.72,110.69l10.33,38.68c-.02.43-.06.86-.13,1.3l-10.33-38.68c.07-.44.11-.87.13-1.3" fill="#ada296" stroke-width="0"/>
            <path d="M1529.6,111.99l10.33,38.68c-.07.46-.17.92-.3,1.38l-10.33-38.68c.13-.46.23-.92.3-1.38" fill="#b3a79a" stroke-width="0"/>
            <path d="M1529.29,113.37l10.33,38.68c-.14.51-.32,1.01-.53,1.52l-10.33-38.68c.21-.51.39-1.02.53-1.52" fill="#b8ab9e" stroke-width="0"/>
            <path d="M1528.76,114.89l10.33,38.68c-.25.6-.55,1.2-.9,1.81l-10.33-38.68c.35-.6.65-1.21.9-1.81" fill="#bdb0a3" stroke-width="0"/>
            <path d="M1527.86,116.7l10.33,38.68s-.03.05-.04.08l-10.33-38.68s.03-.05.04-.08" fill="#c2b5a7" stroke-width="0"/>
          </g>
        </g>
      </g>
      <g isolation="isolate">
        <g clip-path="url(#clippath-3)">
          <g isolation="isolate">
            <path d="M1530.41,107.36l10.33,38.68c.05.19.1.38.14.58l-10.33-38.68c-.04-.19-.09-.39-.14-.58" stroke-width="0"/>
            <path d="M1530.55,107.94l10.33,38.68c.09.43.15.86.19,1.29l-10.33-38.68c-.04-.44-.1-.87-.19-1.29" stroke-width="0"/>
            <path d="M1530.74,109.23l10.33,38.68c.04.43.04.87.03,1.3l-10.33-38.68c.02-.44,0-.87-.03-1.3" stroke-width="0"/>
            <path d="M1530.77,110.54l10.33,38.68c-.02.45-.06.89-.13,1.35l-10.33-38.68c.07-.45.12-.9.13-1.35" stroke-width="0"/>
            <path d="M1530.63,111.88l10.33,38.68c-.08.47-.18.95-.32,1.43l-10.33-38.68c.14-.48.24-.96.32-1.43" stroke-width="0"/>
            <path d="M1530.32,113.31l10.33,38.68c-.15.52-.33,1.05-.55,1.58l-10.33-38.68c.22-.53.41-1.06.55-1.58" stroke-width="0"/>
            <path d="M1529.76,114.89l10.33,38.68c-.26.62-.57,1.25-.93,1.87l-10.33-38.68c.36-.62.67-1.25.93-1.87" stroke-width="0"/>
            <path d="M1528.83,116.76l10.33,38.68s-.04.06-.05.09l-10.33-38.68s.04-.06.05-.09" stroke-width="0"/>
          </g>
        </g>
      </g>
      <polygon points="1273.69 93.52 1284.02 132.2 1191.63 253.26 1181.3 214.58 1273.69 93.52" stroke-width="0"/>
      <g isolation="isolate">
        <g clip-path="url(#clippath-4)">
          <g isolation="isolate">
            <path d="M1181.3,214.58l10.33,38.68c-.65.86-1.23,1.72-1.72,2.57l-10.33-38.68c.49-.86,1.07-1.72,1.72-2.57" stroke-width="0"/>
            <path d="M1179.58,217.15l10.33,38.68c-.43.74-.8,1.48-1.1,2.22l-10.33-38.68c.31-.74.68-1.48,1.1-2.22" stroke-width="0"/>
            <path d="M1178.47,219.37l10.33,38.68c-.26.62-.48,1.24-.65,1.86l-10.33-38.68c.17-.62.39-1.24.65-1.86" stroke-width="0"/>
            <path d="M1177.82,221.23l10.33,38.68c-.16.55-.28,1.11-.36,1.65l-10.33-38.68c.09-.55.21-1.1.36-1.65" stroke-width="0"/>
            <path d="M1177.46,222.89l10.33,38.68c-.08.51-.13,1.03-.15,1.53l-10.33-38.68c.02-.51.07-1.02.15-1.53" stroke-width="0"/>
            <path d="M1177.3,224.42l10.33,38.68c-.02.49,0,.98.03,1.46l-10.33-38.68c-.04-.48-.05-.97-.03-1.46" stroke-width="0"/>
            <path d="M1177.34,225.88l10.33,38.68c.04.48.11.95.21,1.42l-10.33-38.68c-.1-.47-.17-.94-.21-1.42" stroke-width="0"/>
            <path d="M1177.54,227.3l10.33,38.68c.04.21.09.42.15.63l-10.33-38.68c-.06-.21-.1-.42-.15-.63" stroke-width="0"/>
          </g>
        </g>
      </g>
      <g isolation="isolate">
        <g clip-path="url(#clippath-5)">
          <g isolation="isolate">
            <path d="M1196.11,240.01l10.33,38.68c-8.39-1.12-14.53-4.43-17.28-9.31-.5-.89-.88-1.82-1.14-2.77l-10.33-38.68c.25.95.63,1.88,1.14,2.77,2.75,4.89,8.89,8.2,17.28,9.31" fill="#857c72" stroke-width="0"/>
          </g>
        </g>
      </g>
      <g isolation="isolate">
        <g clip-path="url(#clippath-6)">
          <g isolation="isolate">
            <path d="M1195.66,240.67l10.33,38.68c-8.65-1.15-14.97-4.57-17.82-9.61-.52-.92-.91-1.88-1.17-2.87l-10.33-38.68c.26.99.65,1.94,1.17,2.87,2.84,5.05,9.17,8.46,17.82,9.61" stroke-width="0"/>
          </g>
        </g>
      </g>
      <g isolation="isolate">
        <g clip-path="url(#clippath-7)">
          <g isolation="isolate">
            <path d="M1450.76,248.69l10.33,38.68c-.62,1.06-1.34,2.09-2.16,3.1l-10.33-38.68c.82-1.01,1.54-2.04,2.16-3.1" fill="#c2b5a7" stroke-width="0"/>
            <path d="M1448.6,251.79l10.33,38.68c-2.03,2.49-4.65,4.82-7.75,6.89l-10.33-38.68c3.1-2.07,5.72-4.39,7.75-6.89" fill="#c7baac" stroke-width="0"/>
            <path d="M1440.84,258.67l10.33,38.68c-1.3.87-2.68,1.69-4.14,2.45l-10.33-38.68c1.46-.77,2.84-1.59,4.14-2.45" fill="#c2b5a7" stroke-width="0"/>
            <path d="M1436.7,261.13l10.33,38.68c-1.04.55-2.11,1.07-3.23,1.56l-10.33-38.68c1.11-.49,2.19-1.01,3.23-1.56" fill="#bdb0a3" stroke-width="0"/>
            <path d="M1433.48,262.69l10.33,38.68c-.49.22-.98.43-1.48.63-.47.19-.94.38-1.42.56l-10.33-38.68c.48-.18.95-.37,1.42-.56.5-.2.99-.41,1.48-.63" fill="#b8ab9e" stroke-width="0"/>
          </g>
        </g>
      </g>
      <polygon points="1527.82 116.77 1538.14 155.45 1461.08 287.37 1450.76 248.69 1527.82 116.77" fill="#cec1b2" stroke-width="0"/>
      <polygon points="1528.78 116.85 1539.11 155.53 1462.05 287.44 1451.72 248.76 1528.78 116.85" stroke-width="0"/>
      <polygon points="1528.78 116.85 1538.76 154.24 1461.7 286.15 1451.72 248.76 1528.78 116.85" fill="#6754c6" stroke-width="0"/>
      <polygon points="1401.82 267.38 1412.15 306.06 1206.43 278.69 1196.11 240.01 1401.82 267.38" fill="#92887e" stroke-width="0"/>
      <polygon points="1401.37 268.04 1411.7 306.72 1205.98 279.35 1195.66 240.67 1401.37 268.04" stroke-width="0"/>
      <polygon points="1401.37 268.04 1411.28 305.19 1205.57 277.83 1195.66 240.67 1401.37 268.04" fill="#6754c6" stroke-width="0"/>
      <g isolation="isolate">
        <g clip-path="url(#clippath-8)">
          <g isolation="isolate">
            <path d="M1433.48,262.69l10.33,38.68c-.49.22-.98.43-1.48.63-.47.19-.94.38-1.42.56l-10.33-38.68c.48-.18.95-.37,1.42-.56.5-.2.99-.41,1.48-.63" fill="#b8ab9e" stroke-width="0"/>
            <path d="M1430.58,263.88l10.33,38.68c-.9.34-1.81.66-2.74.96l-10.33-38.68c.92-.3,1.84-.62,2.74-.96" fill="#b3a79a" stroke-width="0"/>
            <path d="M1427.84,264.83l10.33,38.68c-.89.29-1.79.56-2.7.8l-10.33-38.68c.91-.25,1.81-.52,2.7-.8" fill="#ada296" stroke-width="0"/>
          </g>
        </g>
      </g>
      <g isolation="isolate">
        <g clip-path="url(#clippath-9)">
          <g isolation="isolate">
            <path d="M1427.84,264.83l10.33,38.68c-.89.29-1.79.56-2.7.8l-10.33-38.68c.91-.25,1.81-.52,2.7-.8" fill="#ada296" stroke-width="0"/>
            <path d="M1425.14,265.64l10.33,38.68c-.9.24-1.81.47-2.72.67l-10.33-38.68c.91-.2,1.82-.43,2.72-.67" fill="#a89d91" stroke-width="0"/>
          </g>
        </g>
      </g>
      <g isolation="isolate">
        <g clip-path="url(#clippath-10)">
          <g isolation="isolate">
            <path d="M1425.14,265.64l10.33,38.68c-.9.24-1.81.47-2.72.67l-10.33-38.68c.91-.2,1.82-.43,2.72-.67" fill="#a89d91" stroke-width="0"/>
            <path d="M1422.42,266.31l10.33,38.68c-.92.21-1.85.39-2.78.56l-10.33-38.68c.93-.17,1.86-.35,2.78-.56" fill="#a3988d" stroke-width="0"/>
            <path d="M1419.64,266.87l10.33,38.68c-.96.17-1.92.32-2.89.44l-10.33-38.68c.96-.13,1.93-.27,2.89-.44" fill="#9e9488" stroke-width="0"/>
            <path d="M1416.75,267.32l10.33,38.68c-1.02.13-2.03.24-3.05.32l-10.33-38.68c1.02-.08,2.03-.19,3.05-.32" fill="#998f84" stroke-width="0"/>
            <path d="M1413.7,267.64l10.33,38.68c-1.1.09-2.21.15-3.3.18l-10.33-38.68c1.1-.03,2.2-.09,3.3-.18" fill="#948a80" stroke-width="0"/>
            <path d="M1410.4,267.81l10.33,38.68c-1.25.03-2.49.02-3.72-.02l-10.33-38.68c1.23.05,2.47.06,3.72.02" fill="#8f857b" stroke-width="0"/>
            <path d="M1406.67,267.79l10.33,38.68c-1.1-.04-2.19-.12-3.27-.23-.42-.04-.84-.09-1.25-.14l-10.33-38.68c.42.05.83.1,1.25.14,1.08.11,2.17.18,3.27.23" fill="#8a8177" stroke-width="0"/>
            <path d="M1402.15,267.42l10.33,38.68c-.11-.01-.22-.03-.33-.04l-10.33-38.68c.11.01.22.03.33.04" fill="#857c72" stroke-width="0"/>
          </g>
        </g>
      </g>
      <path d="M1506.64,94.73c9.1.91,15.76,3.58,19.63,7.61,4,4.16,4.55,9.28,1.54,14.43l-77.06,131.91c-3.44,5.89-10.11,11.09-18.76,14.63-8.95,3.66-19.28,5.18-28.59,4.24-.53-.05-1.06-.12-1.59-.19l-205.71-27.36c-8.39-1.12-14.53-4.43-17.28-9.31-2.69-4.78-1.81-10.5,2.48-16.12l92.39-121.06c7.49-9.81,26.57-16.66,42.54-15.27l190.41,16.48Z" fill="#ffeedc" stroke="#000" stroke-miterlimit="10" stroke-width="1.06"/>
      <g>
        <ellipse cx="1360.03" cy="162.94" rx="80.01" ry="44.97" transform="translate(-8.47 221.57) rotate(-9.29)" fill="#f2f2f2" stroke="#000" stroke-miterlimit="10" stroke-width=".95"/>
        <ellipse cx="1359.87" cy="162.97" rx="57.61" ry="32.38" transform="translate(-8.48 221.55) rotate(-9.29)" fill="#fff" stroke="#070404" stroke-miterlimit="10" stroke-width="2.12"/>
        <path d="M1439.24,151.97c-5.72-23.28-43.4-36.42-85.82-29.49-42.44,6.94-73.98,31.41-71.95,55.31-.15-.64-.29-1.29-.39-1.94-4.01-24.51,28.1-50.16,71.71-57.29,43.61-7.13,82.21,6.96,86.21,31.47.11.64.19,1.29.25,1.95Z" fill="#010102" stroke="#000" stroke-miterlimit="10" stroke-width=".95"/>
      </g>
      <g isolation="isolate">
        <g clip-path="url(#clippath-11)">
          <g isolation="isolate">
            <path d="M1451.72,248.76l10.33,38.68c-.64,1.09-1.39,2.17-2.23,3.21l-10.33-38.68c.85-1.04,1.59-2.11,2.23-3.21" stroke-width="0"/>
            <path d="M1449.49,251.97l10.33,38.68c-2.09,2.57-4.79,4.96-7.98,7.09l-10.33-38.68c3.2-2.13,5.89-4.52,7.98-7.09" stroke-width="0"/>
            <path d="M1441.5,259.07l10.33,38.68c-1.34.89-2.76,1.74-4.27,2.53l-10.33-38.68c1.5-.79,2.93-1.64,4.27-2.53" stroke-width="0"/>
            <path d="M1437.23,261.6l10.33,38.68c-1.07.56-2.18,1.1-3.33,1.61l-10.33-38.68c1.15-.51,2.26-1.05,3.33-1.61" stroke-width="0"/>
            <path d="M1433.91,263.2l10.33,38.68c-.51.22-1.02.44-1.54.65-.49.2-.98.39-1.47.58l-10.33-38.68c.49-.19.98-.38,1.47-.58.52-.21,1.03-.43,1.54-.65" stroke-width="0"/>
            <path d="M1430.9,264.44l10.33,38.68c-.93.35-1.87.68-2.82.99l-10.33-38.68c.95-.31,1.89-.64,2.82-.99" stroke-width="0"/>
            <path d="M1428.08,265.42l10.33,38.68c-.92.3-1.85.57-2.78.83l-10.33-38.68c.94-.25,1.86-.53,2.78-.83" stroke-width="0"/>
            <path d="M1425.3,266.25l10.33,38.68c-.92.25-1.86.48-2.79.69l-10.33-38.68c.94-.21,1.87-.44,2.79-.69" stroke-width="0"/>
            <path d="M1422.51,266.94l10.33,38.68c-.95.21-1.9.4-2.86.57l-10.33-38.68c.96-.17,1.91-.36,2.86-.57" stroke-width="0"/>
            <path d="M1419.65,267.52l10.33,38.68c-.99.18-1.97.33-2.96.46l-10.33-38.68c.99-.13,1.98-.28,2.96-.46" stroke-width="0"/>
            <path d="M1416.69,267.98l10.33,38.68c-1.04.14-2.09.25-3.13.33l-10.33-38.68c1.04-.08,2.09-.19,3.13-.33" stroke-width="0"/>
            <path d="M1413.56,268.31l10.33,38.68c-1.13.09-2.26.15-3.39.18l-10.33-38.68c1.12-.03,2.26-.09,3.39-.18" stroke-width="0"/>
            <path d="M1410.17,268.49l10.33,38.68c-1.28.03-2.55.02-3.82-.03l-10.33-38.68c1.26.05,2.53.06,3.82.03" stroke-width="0"/>
            <path d="M1406.35,268.46l10.33,38.68c-1.13-.04-2.24-.12-3.35-.23-.55-.06-1.09-.12-1.64-.19l-10.33-38.68c.54.07,1.09.13,1.64.19,1.1.11,2.22.19,3.35.23" stroke-width="0"/>
          </g>
        </g>
      </g>
      <path d="M1528.78,116.85l-77.06,131.91c-3.55,6.08-10.43,11.45-19.35,15.09-9.2,3.77-19.81,5.33-29.37,4.37-.55-.06-1.09-.12-1.64-.19l-205.71-27.36c-8.65-1.15-14.97-4.57-17.82-9.61-2.78-4.94-1.87-10.85,2.55-16.65l92.4-121.06c7.73-10.12,27.39-17.2,43.83-15.78l190.41,16.48c9.35.94,16.18,3.68,20.17,7.83,4.15,4.31,4.71,9.62,1.59,14.96ZM1432,263.32c8.65-3.54,15.31-8.74,18.76-14.63l77.06-131.91c3.01-5.15,2.46-10.27-1.54-14.43-3.88-4.03-10.53-6.7-18.83-7.53l-191.21-16.56c-15.97-1.38-35.05,5.47-42.54,15.27l-92.39,121.06c-4.29,5.62-5.16,11.34-2.48,16.12,2.75,4.89,8.89,8.2,17.28,9.31l205.71,27.36c.52.07,1.06.13,1.59.19,9.32.94,19.65-.58,28.59-4.24" stroke-width="0"/>
    </g>
    <g>
      <g>
        <path d="M643.54,180.88l87.67-19.37c.14-.03.28,0,.39.1l68.52,58.02c.26.22.19.64-.13.77l-91.81,36.1c-.18.07-.38.02-.51-.13l-64.38-74.76c-.22-.26-.09-.66.25-.74Z" fill="url(#linear-gradient)" stroke="#000" stroke-miterlimit="10" stroke-width="2"/>
        <polygon points="803.04 210.65 713.52 233.82 645.15 171.57 761.46 40.12 803.04 210.65" fill="#8787dd" stroke="#000" stroke-miterlimit="10" stroke-width="1.37"/>
        <path d="M644.33,182.47l66.31,62.03c.12.12.3.16.46.11l87.58-23.94c.5-.14.84.49.45.84l-105.36,93.78c-.26.23-.66.13-.78-.19l-49.46-132.1c-.18-.48.41-.88.79-.53Z" fill="#8787dd" stroke="#000" stroke-miterlimit="10" stroke-width="1.37"/>
        <polygon points="710.83 244.69 693.24 315.77 800.7 220.12 710.83 244.69" fill="#76ffe5" stroke-width="0"/>
        <polygon points="761.46 40.12 713.52 233.82 803.04 210.65 761.46 40.12" fill="#76ffe5" stroke-width="0"/>
      </g>
      <polygon points="803.04 210.65 713.52 233.82 645.15 171.57 761.46 40.12 803.04 210.65" fill="none" stroke="#000" stroke-miterlimit="10" stroke-width="1.86"/>
      <path d="M643.21,181.42l67.63,63.26,89.33-24.42c.13-.04.22.13.12.22l-107.04,95.28-50.25-134.2c-.05-.13.11-.23.21-.14Z" fill="none" stroke="#000" stroke-miterlimit="10" stroke-width="1.86"/>
    </g>
    <g>
      <g>
        <polyline points="1194.01 641.52 1405.66 682.61 1478.56 657.41" fill="none" stroke="#010207" stroke-miterlimit="10" stroke-width="2"/>
        <path d="M1493.06,656.18c-1.87,2.9-6.77,4.6-10.95,3.79s-6.05-3.82-4.18-6.72c1.87-2.9,6.77-4.59,10.94-3.78s6.05,3.81,4.19,6.71Z" fill="none" stroke="#010207" stroke-miterlimit="10" stroke-width="2"/>
      </g>
      <g>
        <line x1="1179.51" y1="663.3" x2="1285.88" y2="683.98" fill="none" stroke="#010207" stroke-miterlimit="10" stroke-width="2"/>
        <path d="M1300.31,686.79c-1.91,2.91-6.85,4.62-11.04,3.81-4.18-.81-6.02-3.84-4.1-6.75s6.85-4.61,11.03-3.8c4.18.81,6.02,3.83,4.11,6.75Z" fill="none" stroke="#010207" stroke-miterlimit="10" stroke-width="2"/>
      </g>
      <g>
        <line x1="1164.95" y1="685.16" x2="1340.91" y2="719.41" fill="none" stroke="#010207" stroke-miterlimit="10" stroke-width="2"/>
        <path d="M1355.65,721.57c-1.91,2.93-6.85,4.64-11.05,3.83s-6.05-3.85-4.14-6.78c1.91-2.93,6.85-4.64,11.04-3.82,4.19.82,6.05,3.85,4.14,6.78Z" fill="none" stroke="#010207" stroke-miterlimit="10" stroke-width="2"/>
      </g>
      <g>
        <line x1="1150.36" y1="707.08" x2="1257.03" y2="727.87" fill="none" stroke="#010207" stroke-miterlimit="10" stroke-width="2"/>
        <path d="M1271.51,730.69c-1.92,2.93-6.89,4.65-11.08,3.83s-6.03-3.86-4.1-6.79c1.93-2.93,6.89-4.64,11.08-3.83s6.03,3.86,4.11,6.79Z" fill="none" stroke="#010207" stroke-miterlimit="10" stroke-width="2"/>
      </g>
      <g>
        <polyline points="1135.71 729.07 1349.44 770.78 1510.44 716.12" fill="none" stroke="#010207" stroke-miterlimit="10" stroke-width="2"/>
        <path d="M1524.7,715.29c-1.87,2.92-6.79,4.64-10.98,3.82-4.2-.82-6.08-3.85-4.21-6.77,1.87-2.92,6.78-4.63,10.98-3.82,4.2.81,6.08,3.84,4.22,6.77Z" fill="none" stroke="#010207" stroke-miterlimit="10" stroke-width="2"/>
      </g>
      <g>
        <polyline points="1120.82 751.43 1395.6 805.14 1410.7 828.87" fill="none" stroke="#010207" stroke-miterlimit="10" stroke-width="2"/>
        <path d="M1422.2,834.96c-1.91,2.98-6.88,4.72-11.11,3.89s-6.11-3.91-4.2-6.89,6.88-4.71,11.11-3.89c4.23.83,6.11,3.91,4.21,6.88Z" fill="none" stroke="#010207" stroke-miterlimit="10" stroke-width="2"/>
      </g>
      <g>
        <polyline points="1106.36 773.14 1293.42 809.75 1304.09 826.71" fill="none" stroke="#010207" stroke-miterlimit="10" stroke-width="2"/>
        <path d="M1315.03,832.58c-1.93,2.98-6.92,4.72-11.15,3.89s-6.09-3.91-4.15-6.89c1.93-2.97,6.92-4.71,11.14-3.89,4.22.83,6.09,3.91,4.16,6.88Z" fill="none" stroke="#010207" stroke-miterlimit="10" stroke-width="2"/>
      </g>
      <g>
        <polyline points="1091.85 794.92 1245.49 825.03 1264.78 855.88 1375.87 877.68" fill="none" stroke="#010207" stroke-miterlimit="10" stroke-width="2"/>
        <path d="M1392.72,880.99c-1.92,3-6.91,4.75-11.16,3.92-4.24-.83-6.12-3.94-4.2-6.93,1.92-2.99,6.91-4.74,11.15-3.91,4.24.83,6.12,3.93,4.21,6.93Z" fill="none" stroke="#010207" stroke-miterlimit="10" stroke-width="2"/>
      </g>
      <g>
        <polyline points="1076.96 816.98 1165.79 834.42 1181.51 860.16 1171.75 875.03" fill="none" stroke="#010207" stroke-miterlimit="10" stroke-width="2"/>
        <path d="M1175.88,881.92c-1.97,3-7,4.75-11.23,3.92-4.24-.83-6.07-3.94-4.1-6.94,1.97-3,6.99-4.75,11.23-3.92,4.23.83,6.07,3.94,4.11,6.93Z" fill="none" stroke="#010207" stroke-miterlimit="10" stroke-width="2"/>
      </g>
    </g>
    <g>
      <g>
        <polyline points="730.26 589.56 510.75 540.69 496.85 502.99" fill="none" stroke="#010207" stroke-miterlimit="10" stroke-width="2"/>
        <ellipse cx="495.99" cy="499.24" rx="9.77" ry="4.18" transform="translate(-54.05 60.26) rotate(-6.59)" fill="none" stroke="#010207" stroke-miterlimit="10" stroke-width="2"/>
      </g>
      <g>
        <line x1="706.42" y1="605.86" x2="596.14" y2="581.31" fill="none" stroke="#010207" stroke-miterlimit="10" stroke-width="2"/>
        <ellipse cx="589.03" cy="579.72" rx="9.77" ry="4.18" transform="translate(-62.67 71.47) rotate(-6.59)" fill="none" stroke="#010207" stroke-miterlimit="10" stroke-width="2"/>
      </g>
      <g>
        <line x1="682.59" y1="622.15" x2="500.55" y2="581.63" fill="none" stroke="#010207" stroke-miterlimit="10" stroke-width="2"/>
        <ellipse cx="494.26" cy="579.61" rx="9.77" ry="4.18" transform="translate(-63.29 60.59) rotate(-6.59)" fill="none" stroke="#010207" stroke-miterlimit="10" stroke-width="2"/>
      </g>
      <g>
        <line x1="658.75" y1="638.45" x2="548.46" y2="613.9" fill="none" stroke="#010207" stroke-miterlimit="10" stroke-width="2"/>
        <ellipse cx="541.36" cy="612.32" rx="9.77" ry="4.18" transform="translate(-66.73 66.22) rotate(-6.59)" fill="none" stroke="#010207" stroke-miterlimit="10" stroke-width="2"/>
      </g>
      <g>
        <polyline points="634.92 654.75 414.52 605.68 381.97 523.56" fill="none" stroke="#010207" stroke-miterlimit="10" stroke-width="2"/>
        <ellipse cx="380.69" cy="520.12" rx="9.77" ry="4.18" transform="translate(-57.21 47.16) rotate(-6.59)" fill="none" stroke="#010207" stroke-miterlimit="10" stroke-width="2"/>
      </g>
      <g>
        <polyline points="610.76 671.27 327.99 608.32 280.61 615.66" fill="none" stroke="#010207" stroke-miterlimit="10" stroke-width="2"/>
        <ellipse cx="270.8" cy="616.78" rx="9.77" ry="4.18" transform="translate(-69.03 35.18) rotate(-6.59)" fill="none" stroke="#010207" stroke-miterlimit="10" stroke-width="2"/>
      </g>
      <g>
        <polyline points="587.37 687.25 394.97 644.42 361.12 649.67" fill="none" stroke="#010207" stroke-miterlimit="10" stroke-width="2"/>
        <ellipse cx="352.02" cy="650.84" rx="9.77" ry="4.18" transform="translate(-72.41 44.73) rotate(-6.59)" fill="none" stroke="#010207" stroke-miterlimit="10" stroke-width="2"/>
      </g>
      <g>
        <polyline points="563.99 703.24 406.13 668.1 344.76 677.61 231.2 652.33" fill="none" stroke="#010207" stroke-miterlimit="10" stroke-width="2"/>
        <ellipse cx="221.84" cy="650.25" rx="9.77" ry="4.18" transform="translate(-73.2 29.78) rotate(-6.59)" fill="none" stroke="#010207" stroke-miterlimit="10" stroke-width="2"/>
      </g>
      <g>
        <polyline points="565.34 724.97 449.32 699.15 398.33 707.15 382.55 717.94" fill="none" stroke="#010207" stroke-miterlimit="10" stroke-width="2"/>
        <ellipse cx="376.85" cy="721.84" rx="9.77" ry="4.18" transform="translate(-80.4 48.05) rotate(-6.59)" fill="none" stroke="#010207" stroke-miterlimit="10" stroke-width="2"/>
      </g>
    </g>
    <g>
      <g>
        <polyline points="621.73 836.04 475.66 989 393.38 1014.28" fill="none" stroke="#010207" stroke-miterlimit="10" stroke-width="2"/>
        <ellipse cx="385.29" cy="1016.48" rx="9.16" ry="5.22" transform="translate(-294.13 167.91) rotate(-17.92)" fill="none" stroke="#010207" stroke-miterlimit="10" stroke-width="2"/>
      </g>
      <g>
        <line x1="651.45" y1="842.91" x2="578.07" y2="919.76" fill="none" stroke="#010207" stroke-miterlimit="10" stroke-width="2"/>
        <ellipse cx="573.34" cy="924.71" rx="9.16" ry="5.22" transform="translate(-256.76 221.33) rotate(-17.92)" fill="none" stroke="#010207" stroke-miterlimit="10" stroke-width="2"/>
      </g>
      <g>
        <line x1="681.18" y1="849.78" x2="560.04" y2="976.63" fill="none" stroke="#010207" stroke-miterlimit="10" stroke-width="2"/>
        <ellipse cx="554.57" cy="981.29" rx="9.16" ry="5.22" transform="translate(-275.08 218.3) rotate(-17.92)" fill="none" stroke="#010207" stroke-miterlimit="10" stroke-width="2"/>
      </g>
      <g>
        <line x1="710.9" y1="856.65" x2="637.52" y2="933.5" fill="none" stroke="#010207" stroke-miterlimit="10" stroke-width="2"/>
        <ellipse cx="632.79" cy="938.46" rx="9.16" ry="5.22" transform="translate(-258.1 240.29) rotate(-17.92)" fill="none" stroke="#010207" stroke-miterlimit="10" stroke-width="2"/>
      </g>
      <g>
        <polyline points="740.63 863.53 593.97 1017.1 414.32 1073.53" fill="none" stroke="#010207" stroke-miterlimit="10" stroke-width="2"/>
        <ellipse cx="406.81" cy="1075.84" rx="9.16" ry="5.22" transform="translate(-311.35 177.41) rotate(-17.92)" fill="none" stroke="#010207" stroke-miterlimit="10" stroke-width="2"/>
      </g>
      <g>
        <polyline points="770.76 870.49 582.6 1067.52 588.84 1092.47" fill="none" stroke="#010207" stroke-miterlimit="10" stroke-width="2"/>
        <ellipse cx="589.26" cy="1097.82" rx="9.16" ry="5.22" transform="translate(-309.26 234.63) rotate(-17.92)" fill="none" stroke="#010207" stroke-miterlimit="10" stroke-width="2"/>
      </g>
      <g>
        <polyline points="799.92 877.23 671.89 1011.3 676.34 1029.12" fill="none" stroke="#010207" stroke-miterlimit="10" stroke-width="2"/>
        <ellipse cx="677.04" cy="1034.02" rx="9.16" ry="5.22" transform="translate(-285.37 258.55) rotate(-17.92)" fill="none" stroke="#010207" stroke-miterlimit="10" stroke-width="2"/>
      </g>
      <g>
        <polyline points="829.07 883.97 724.03 993.97 732.11 1026.29 656.55 1105.41" fill="none" stroke="#010207" stroke-miterlimit="10" stroke-width="2"/>
        <ellipse cx="650.32" cy="1111.94" rx="9.16" ry="5.22" transform="translate(-310.64 254.11) rotate(-17.92)" fill="none" stroke="#010207" stroke-miterlimit="10" stroke-width="2"/>
      </g>
      <g>
        <polyline points="858.69 890.67 798 954.21 804.92 981.02 824.6 985.57" fill="none" stroke="#010207" stroke-miterlimit="10" stroke-width="2"/>
        <ellipse cx="831.71" cy="987.21" rx="9.16" ry="5.22" transform="translate(-263.45 303.88) rotate(-17.92)" fill="none" stroke="#010207" stroke-miterlimit="10" stroke-width="2"/>
      </g>
    </g>
    <g>
      <g>
        <g>
          <polygon points="502.73 470.01 541.49 720.22 589.71 830.12 889.47 912.32 1086.22 831.98 1206.63 630.92 1188.12 392 502.73 470.01" fill="#fff" stroke="#000" stroke-miterlimit="10" stroke-width="2"/>
          <polygon points="1049.93 581.41 1085.99 830.32 1205.93 630.73 1187.52 396.81 1049.93 581.41" fill="#eaeaea" stroke-width="0"/>
          <path d="M1133.58,505.17l23.78,180.68c.08.64.91.85,1.27.31l37.84-57.48c.09-.13.13-.28.12-.43l-15.76-181.81c-.04-.64-.85-.89-1.25-.39l-45.86,58.61c-.11.14-.16.33-.14.51Z" fill="#f2f2f2" stroke-width="0"/>
          <path d="M1131.51,567.99l-29.59,42.27c-.26.37-.36.82-.28,1.26l20.08,113.39c.26,1.49,2.22,1.9,3.06.63l25.42-38.44c.22-.34.32-.75.26-1.15l-15.91-117.21c-.21-1.52-2.16-1.99-3.04-.74Z" fill="#f2f2f2" stroke-width="0"/>
          <g clip-path="url(#clippath-12)">
            <polygon points="552.1 581.81 594.26 860.22 438.26 698.71 495 453.59 552.1 581.81" fill="#4d69aa" stroke-width="0"/>
            <polygon points="855.99 661.43 892.53 935.3 1089.57 856.09 1049.93 580.61 855.99 661.43" fill="#4d69aa" stroke-width="0"/>
            <polygon points="808.6 649.43 838.41 898.32 865.43 905.73 837.86 657.11 808.6 649.43" fill="#4d69aa" stroke-width="0"/>
          </g>
        </g>
        <g>
          <g>
            <path d="M688.48,300.6l-181.68,163.86c-3.44,3.1-4.51,8.04-2.68,12.29l43.1,99.79c1.32,3.04,3.96,5.32,7.17,6.16l298.36,78.32c2.28.6,4.69.43,6.87-.47l186.48-77.25c2.05-.85,3.79-2.31,4.98-4.18l135.19-181.55c2.71-4.27,2.09-9.84-1.48-13.42l-88.94-71.88c-1.63-1.63-3.73-2.69-6-3.04l-287.52-42.99c-1.56-.24-3.16-.13-4.68.32l-105,31.71c-1.55.46-2.98,1.26-4.18,2.34Z" fill="#9f46d5" stroke-width="0"/>
            <g clip-path="url(#clippath-13)">
              <path d="M515.42,502.9s42.34,49.35,47.79,52.82,293.95,76.32,293.95,76.32l167.97-69.19,134.8-179.16-51.75-59.11,280.73,166.79-62.81,306.19-674.04,114.77s-277.28-50.42-275.74-58.08c1.53-7.66-21.45-217.53-21.45-222.13s160.56-129.21,160.56-129.21Z" fill="#fff" stroke-width="0"/>
              <polygon points="625.34 481.72 532.46 608.64 483.93 479.25 597.71 423.3 625.34 481.72" fill="#223b82" stroke="#000" stroke-miterlimit="10" stroke-width="3.1"/>
              <polygon points="671.18 294.4 731.5 309.27 782.3 292.34 815.35 242.34 671.18 294.4" stroke-width="0"/>
              <polygon points="676.9 299.56 721.99 310.93 714.4 317.45 663.85 311.32 676.9 299.56" stroke-width="0"/>
              <polygon points="861.85 513.22 853.38 727.54 1080.93 603.69 935.93 501.1 861.85 513.22" fill="#223b82" stroke-width="0"/>
              <polygon points="833.24 551.38 800.64 681.13 833.24 691.35 851.56 555.72 833.24 551.38" fill="#223b82" stroke-width="0"/>
              <polygon points="1093.24 309.48 1041.16 325.73 1084.95 363.21 1209.29 397.17 1093.24 309.48" stroke-width="0"/>
              <polygon points="865.37 275.67 860.9 301.37 1029.76 330.03 1091.85 309.74 865.37 275.67" fill="#fff" stroke-width="0"/>
            </g>
            <g>
              <path d="M711.67,306.38l-134.1,124c-3.12,2.91-3.96,7.62-2.07,11.52l30,61.81c1.28,2.63,3.63,4.54,6.42,5.2l245,58.1c1.65.39,3.36.32,4.97-.2l111.44-36.1c1.95-.63,3.64-1.9,4.83-3.61l106.74-154.93c2.47-3.59,2.27-8.47-.49-11.87l-29.47-36.19c-1.49-1.84-3.59-3.06-5.89-3.43l-257.74-39.06c-1.4-.22-2.83-.12-4.18.3l-71.87,22.35c-1.33.41-2.56,1.13-3.59,2.09Z" fill="#f3f6ff" stroke-width="0"/>
              <path d="M714.15,307.47l-131.4,119.4c-3.06,2.78-3.9,7.25-2.07,10.96l29.05,58.6c1.24,2.49,3.53,4.3,6.25,4.91l239.14,54.15c1.61.36,3.28.29,4.85-.21l109.05-34.78c1.91-.61,3.57-1.82,4.73-3.45l104.96-147.65c2.43-3.42,2.26-8.05-.43-11.28l-27.76-33.35c-1.45-1.74-3.49-2.89-5.74-3.23l-252.71-37.92c-1.37-.21-2.76-.1-4.08.3l-70.32,21.55c-1.3.4-2.5,1.08-3.51,2Z" fill="#e2e2e2" stroke-width="0"/>
              <path d="M729.91,322.14l-113.99,103.58c-2.65,2.41-3.39,6.29-1.79,9.51l25.2,50.83c1.07,2.16,3.06,3.73,5.42,4.26l207.44,46.98c1.39.32,2.85.25,4.21-.18l94.59-30.17c1.66-.53,3.1-1.58,4.1-3l91.05-128.08c2.11-2.97,1.96-6.99-.37-9.79l-24.08-28.93c-1.26-1.51-3.03-2.51-4.98-2.8l-219.22-32.9c-1.19-.18-2.4-.09-3.54.26l-61,18.69c-1.13.35-2.17.94-3.05,1.73Z" fill="none" stroke="#000" stroke-miterlimit="10" stroke-width="1.21"/>
            </g>
          </g>
          <g>
            <path d="M739.83,392.01c-24.78,39.23-4.29,81.6,45.68,94.4,49.72,12.73,109.45-8.78,133.5-47.79,23.92-38.79,3.67-80.52-45.33-93.46-49.24-13.01-109.21,7.86-133.85,46.86Z" fill="#a168d5" stroke="#000" stroke-miterlimit="10" stroke-width="5.28"/>
            <path d="M875.96,475.24c.76,11.86-1.74,18.49-7.7,20.7-14.61,5.43-44.91-26.6-67.63-71.53-22.71-44.9-29.18-85.55-14.5-90.81,5.99-2.14,14.57,1.93,24.16,10.55" fill="none" stroke="#000" stroke-miterlimit="10" stroke-width="5.28"/>
            <path d="M729.12,434.89c-13.46,8.29-21.45,16.07-19.47,20.35,4.85,10.48,61.72.72,126.49-21.63,64.17-22.14,111.89-48.29,107.1-58.6-1.95-4.21-12.34-5.15-28.29-3.3" fill="none" stroke="#000" stroke-miterlimit="10" stroke-width="5.28"/>
          </g>
        </g>
      </g>
      <path d="M688.48,300.6l-181.68,163.86c-3.44,3.1-4.51,8.04-2.68,12.29l43.1,99.79c1.32,3.04,3.96,5.32,7.17,6.16l298.36,78.32c2.28.6,4.69.43,6.87-.47l186.48-77.25c2.05-.85,3.79-2.31,4.98-4.18l135.19-181.55c2.71-4.27,2.09-9.84-1.48-13.42l-88.94-71.88c-1.63-1.63-3.73-2.69-6-3.04l-287.52-42.99c-1.56-.24-3.16-.13-4.68.32l-105,31.71c-1.55.46-2.98,1.26-4.18,2.34Z" fill="none" stroke="#000" stroke-miterlimit="10" stroke-width="2"/>
    </g>
    <g>
      <polygon points="1458.05 497.03 1470.5 433.81 1375.53 399.33 1348.01 448.2 1339.23 516.72 1433.38 549.37 1458.05 497.03" fill="none" stroke="#050207" stroke-miterlimit="10" stroke-width="1.23"/>
      <g>
        <g clip-path="url(#clippath-15)">
          <polygon points="1446.32 482.9 1344.78 446.88 1333.79 519.12 1436.11 556.38 1446.32 482.9" fill="#9f46d5" stroke-width="0"/>
        </g>
        <polygon points="1458.05 497.03 1470.5 433.81 1375.53 399.33 1348.01 448.2 1339.23 516.72 1433.38 549.37 1458.05 497.03" fill="none" stroke="#000" stroke-miterlimit="10" stroke-width="2"/>
      </g>
      <path d="M1470.5,433.81l-24.19,49.09-95.33-33.65c-1.53-.54-3.17.47-3.38,2.08l-8.38,65.38,94.16,32.66" fill="none" stroke="#050207" stroke-miterlimit="10" stroke-width="2"/>
      <line x1="1446.32" y1="482.9" x2="1432.76" y2="549.12" fill="none" stroke="#050207" stroke-miterlimit="10" stroke-width="1.23"/>
      <polygon points="1469.09 436.69 1458.05 497.03 1433.38 549.37 1446.32 482.9 1469.09 436.69" fill="#050207" stroke-width="0"/>
    </g>
    <g>
      <g>
        <polygon points="371.88 266.07 362.94 220.58 290.31 223.51 285.31 263.54 298.13 311.55 369.72 307.64 371.88 266.07" fill="none" stroke="#050207" stroke-miterlimit="10" stroke-width="1.23"/>
        <g>
          <g clip-path="url(#clippath-16)">
            <polygon points="360.21 259.86 282.8 263.54 295.16 314.64 373.44 311.55 360.21 259.86" fill="#5f00ba" stroke-width="0"/>
          </g>
          <polygon points="371.88 266.07 362.94 220.58 290.31 223.51 285.31 263.54 298.13 311.55 369.72 307.64 371.88 266.07" fill="none" stroke="#000" stroke-miterlimit="10" stroke-width="2"/>
        </g>
        <path d="M362.94,220.58l-2.72,39.28-72.48,3.57c-1.25.06-2.12,1.26-1.8,2.46l12.2,45.67,71.59-3.92" fill="none" stroke="#050207" stroke-miterlimit="10" stroke-width="2"/>
        <line x1="360.21" y1="259.86" x2="369.23" y2="307.64" fill="none" stroke="#050207" stroke-miterlimit="10" stroke-width="1.23"/>
        <polygon points="362.78 222.88 371.88 266.07 367.82 308.55 360.21 259.86 362.78 222.88" fill="#050207" stroke-width="0"/>
      </g>
      <g>
        <polygon points="443.56 388.51 452.51 343.03 384.2 318.23 364.39 353.38 358.08 402.67 425.81 426.16 443.56 388.51" fill="none" stroke="#050207" stroke-miterlimit="10" stroke-width="1.23"/>
        <g>
          <g clip-path="url(#clippath-17)">
            <polygon points="435.12 378.34 362.07 352.43 354.16 404.4 427.78 431.2 435.12 378.34" fill="#5f00ba" stroke-width="0"/>
          </g>
          <polygon points="443.56 388.51 452.51 343.03 384.2 318.23 364.39 353.38 358.08 402.67 425.81 426.16 443.56 388.51" fill="none" stroke="#000" stroke-miterlimit="10" stroke-width="2"/>
        </g>
        <path d="M452.51,343.03l-17.4,35.32-68.58-24.21c-1.1-.39-2.28.34-2.43,1.5l-6.03,47.04,67.74,23.49" fill="none" stroke="#050207" stroke-miterlimit="10" stroke-width="2"/>
        <line x1="435.12" y1="378.34" x2="425.37" y2="425.98" fill="none" stroke="#050207" stroke-miterlimit="10" stroke-width="1.23"/>
        <polygon points="451.49 345.1 443.56 388.51 425.81 426.16 435.12 378.34 451.49 345.1" fill="#050207" stroke-width="0"/>
      </g>
      <g>
        <polygon points="531.3 261.81 555.29 191.05 451.41 136.89 412.3 188.84 391.71 266.25 494.94 318.19 531.3 261.81" fill="none" stroke="#050207" stroke-miterlimit="10" stroke-width="1.98"/>
        <g>
          <g clip-path="url(#clippath-18)">
            <polygon points="519.98 243.78 408.79 186.83 385.09 268.18 497 326.66 519.98 243.78" fill="#5f00ba" stroke-width="0"/>
          </g>
          <polygon points="531.3 261.81 555.29 191.05 451.41 136.89 412.3 188.84 391.71 266.25 494.94 318.19 531.3 261.81" fill="none" stroke="#000" stroke-miterlimit="10" stroke-width="2"/>
        </g>
        <path d="M555.29,191.05l-35.31,52.72-104.42-53.27c-1.68-.86-3.72.05-4.2,1.87l-19.64,73.87,103.22,51.95" fill="none" stroke="#050207" stroke-miterlimit="10" stroke-width="2"/>
        <line x1="519.98" y1="243.78" x2="494.26" y2="317.81" fill="none" stroke="#050207" stroke-miterlimit="10" stroke-width="1.98"/>
        <polygon points="553.22 194.14 531.3 261.81 494.94 318.19 519.98 243.78 553.22 194.14" fill="#050207" stroke-width="0"/>
      </g>
    </g>
    <g>
      <g>
        <polygon points="274.36 778.94 261.16 711.81 153.97 716.13 146.58 775.22 165.51 846.08 271.17 840.3 274.36 778.94" fill="none" stroke="#050207" stroke-miterlimit="10" stroke-width="2"/>
        <g clip-path="url(#clippath-19)">
          <polygon points="257.14 769.78 142.87 775.22 161.13 850.63 276.67 846.08 257.14 769.78" fill="#9f46d5" stroke-width="0"/>
        </g>
        <polyline points="261.16 711.81 257.14 769.78 146.58 775.22 165.51 846.08 271.17 840.3" fill="none" stroke="#050207" stroke-miterlimit="10" stroke-width="2"/>
        <line x1="257.14" y1="769.78" x2="270.46" y2="840.3" fill="none" stroke="#050207" stroke-miterlimit="10" stroke-width="2"/>
        <polygon points="260.92 715.21 274.36 778.94 271.17 840.3 257.14 769.78 260.92 715.21" fill="#050207" stroke-width="0"/>
      </g>
      <g>
        <polygon points="380.16 959.67 393.38 892.54 292.54 855.93 263.31 907.82 253.99 980.57 353.96 1015.25 380.16 959.67" fill="none" stroke="#050207" stroke-miterlimit="10" stroke-width="2"/>
        <g clip-path="url(#clippath-20)">
          <polygon points="367.7 944.67 259.88 906.42 248.21 983.13 356.86 1022.68 367.7 944.67" fill="#9f46d5" stroke-width="0"/>
        </g>
        <polyline points="393.38 892.54 367.7 944.67 263.31 907.82 253.99 980.57 353.96 1015.25" fill="none" stroke="#050207" stroke-miterlimit="10" stroke-width="2"/>
        <line x1="367.7" y1="944.67" x2="353.3" y2="1014.98" fill="none" stroke="#050207" stroke-miterlimit="10" stroke-width="2"/>
        <polygon points="391.87 895.6 380.16 959.67 353.96 1015.25 367.7 944.67 391.87 895.6" fill="#050207" stroke-width="0"/>
      </g>
    </g>
    <g>
      <path d="M345.85,525.22c-17.38-27.14-33.81-29.71-49.92-19.59-1.04.66-2.37-.19-2.18-1.41,2.42-15.52-1.21-31.68-15.08-47.21h0s0,0,0,0c-6.32-7.1-12.67-11.01-19.03-12.41-.33-.07-.62-.25-.82-.52l.68-4.07c-.43-.56-1.2-.73-1.82-.4l-17.79,7.97h0c-6.99,3.42-13.94,9.06-20.81,16.03-.62.62-1.64.57-2.17-.13l-14.79-19.64c-.63-.84-.17-2.06.86-2.27l9.14-1.88c.77-.16,1.27-.91,1.12-1.68l-2.5-12.85c-.29-1.47-1.87-2.29-3.24-1.68l-15.16,6.79c-.21.09-.4.24-.54.42l-13.13,16.69c-.4.51-.41,1.21-.03,1.73l3.69,5.04c.55.75.25,1.82-.61,2.17l-14.92,6.14h0l-13.34,16.95c-.4.51-.41,1.23-.02,1.75l24.56,32.64c.38.51.38,1.22,0,1.73-2.74,3.65-5.45,7.23-8.14,10.66l-.08-.11-18.67,23.7c-.4.51-.41,1.23-.02,1.75l15.48,20.55c.4.53,1.12.72,1.73.45l16.78-7.52c.22-.1.41-.25.55-.43l5.3-6.88c.48.37.94.76,1.38,1.17.07.06.13.13.18.2l28.36,37.67c.53.7,1.43,1.9,1.82,2.42l40.59,53.93c.04.05.07.1.1.16,1.75,3,3.83,8.54-.1,13.55.31,0-7.34,9.44-9.59,12.2-.37.46-.42,1.09-.13,1.6l14.91,26.55c.36.65,1.16.91,1.84.61l16.44-7.36c.34-.15.61-.43.74-.77l5.96-14.78c.28-.69-.02-1.49-.69-1.82l-1.08-.54c-.82-.41-1.05-1.47-.47-2.19,1.72-2.15,3.44-4.27,5.13-6.39.58-.73,1.69-.71,2.26.04l24.39,32.38c.4.53,1.12.72,1.73.45l16.36-7.33c.47-.21.79-.65.84-1.16l1.44-13.48c.08-.78-.47-1.49-1.26-1.58-2.13-.24-6.27-.72-9.45-1.16-.38-.05-.71-.25-.94-.56l-19.26-25.58c-.4-.53-.38-1.26.04-1.77,3.27-3.97,6.41-7.88,9.46-11.75.58-.74,1.7-.72,2.27.03l23.97,31.86c.4.53,1.12.72,1.73.45l16.11-7.22c.59-.27.93-.9.83-1.54l-2.04-12.58c-.15-.91-1.1-1.45-1.95-1.1-.53.22-1.16.48-1.85.76-.6.25-1.3.06-1.7-.46l-21.93-29.13c-.37-.49-.38-1.16-.03-1.67,21.65-31.66,31.11-61.29,8.48-96.62ZM191.02,494.67l-15.08-20.03c-.58-.77-.25-1.89.67-2.21l8.29-2.95c.6-.21.99-.81.95-1.45l-.36-5.44c-.09-1.42,1.72-2.09,2.58-.96l14.47,19.22c.39.52.39,1.23-.01,1.74-3.08,3.93-6.16,8-9.22,12.07-.57.76-1.72.76-2.29,0ZM241.37,560.68l-29.69-39.44c-.39-.51-.39-1.22,0-1.73,8.43-11.04,29.8-43.92,47.87-19.92h0c17.02,22.62-6.88,49.98-15.93,61.13-.59.72-1.69.7-2.25-.05ZM291.93,627.86l-32.91-43.73c-.39-.51-.39-1.22,0-1.73,10.04-13.07,36.05-52.58,56-26.08h0c18.85,25.02-10.18,58.35-20.83,71.58-.59.73-1.69.7-2.25-.05Z" fill="#f7931a" stroke="#000" stroke-miterlimit="10" stroke-width="2.37"/>
      <g clip-path="url(#clippath-21)">
        <polygon points="263.86 507.28 282.74 501.69 270.41 460.33 228.19 477.59 263.86 507.28" stroke="#000" stroke-miterlimit="10" stroke-width="2.37"/>
        <polygon points="172.46 451.31 208.12 435.34 231.54 470.09 194.51 481.11 172.46 451.31" stroke="#000" stroke-miterlimit="10" stroke-width="2.37"/>
        <polygon points="146.55 482.04 177.5 469.89 203.21 504.83 171.29 517.2 146.55 482.04" stroke="#000" stroke-miterlimit="10" stroke-width="2.37"/>
        <polygon points="257.85 525.96 291.93 518.4 280.06 536.35 254.33 537.7 257.85 525.96" stroke="#000" stroke-miterlimit="10" stroke-width="2.37"/>
        <path d="M312.23,571.53l37.16-8.16s-1.45,26.71-13.18,41.95l-33.94,3.22,9.96-37Z" stroke="#000" stroke-miterlimit="10" stroke-width="2.37"/>
        <polygon points="246.32 681.84 280.25 668.36 295.41 641.87 208.89 533.9 186.56 563.38 246.32 681.84" stroke="#000" stroke-miterlimit="10" stroke-width="2.37"/>
      </g>
      <path d="M296.82,448.89c-19.87-22.32-40.05-13.22-59.58,6.59-.62.62-1.64.57-2.17-.13l-23.15-30.75c-.88-1.16-2.62-1.18-3.52-.04l-11.56,14.69c-.4.51-.41,1.23-.02,1.75l23.88,31.72c.39.52.39,1.23-.01,1.74-3.08,3.93-6.16,8-9.22,12.07-.57.76-1.72.76-2.29,0l-22.42-29.79c-.91-1.21-2.72-1.23-3.66-.04l-11.48,14.59c-.4.51-.41,1.23-.02,1.75l24.56,32.64c.38.51.38,1.22,0,1.73-2.74,3.65-5.45,7.23-8.14,10.66l-.08-.11-18.67,23.7c-.4.51-.41,1.23-.02,1.75l15.03,19.95c.57.76,1.71.77,2.28,0,2.65-3.5,7.33-9.28,9.04-11.45,5.63-7.15,11.14-4.69,14.88-1.17.06.06.12.13.18.2l28.36,37.67c.53.7,1.43,1.9,1.82,2.42l40.59,53.93c.04.05.07.1.1.16,1.75,3,3.83,8.54-.1,13.55.31,0-7.34,9.44-9.59,12.2-.37.46-.42,1.09-.13,1.6l15.46,27.52c.05.08.16.09.22.02l18.13-23.04c3.01-3.81,6.02-7.51,8.97-11.18.59-.73,1.69-.71,2.26.04l24.81,32.94c.13.18.4.18.54,0l13.06-16.59c.4-.51.41-1.23.02-1.75l-24.57-32.63c-.4-.53-.38-1.26.04-1.77,3.27-3.97,6.41-7.88,9.46-11.75.58-.74,1.7-.72,2.27.03l24.38,32.4c.14.19.42.19.57,0l13.06-16.6c.4-.51.41-1.23.02-1.75l-24.85-33.02c-.37-.49-.38-1.16-.03-1.67,21.65-31.66,31.11-61.29,8.48-96.62-17.37-27.14-33.8-29.71-49.91-19.59-1.05.66-2.38-.19-2.19-1.41,2.41-15.52-1.22-31.67-15.08-47.19h0s0,0,0,0ZM333.18,548.19c18.85,25.02-10.18,58.35-20.83,71.58-.59.73-1.69.7-2.25-.05l-32.91-43.73c-.39-.51-.39-1.22,0-1.73,10.04-13.07,36.05-52.58,56-26.08h0ZM277.71,491.47c17.02,22.61-6.88,49.98-15.93,61.13-.59.72-1.69.7-2.25-.05l-29.69-39.44c-.39-.51-.39-1.22,0-1.73,8.43-11.04,29.8-43.92,47.87-19.92h0Z" fill="#f7931a" stroke="#000" stroke-miterlimit="10" stroke-width="2.37"/>
    </g>
    <path d="M1068.84,1029.49c-.74,0-1.5-.06-2.26-.2l-61.04-10.68c-10.23-1.79-18.51-8.67-22.15-18.39-3.64-9.73-1.91-20.35,4.63-28.42l87.58-108.06c.86-1.06.75-2.13.51-2.84-.24-.71-.8-1.63-2.13-1.95l-75.95-18.46c-6.98-1.7-11.26-8.73-9.56-15.7,1.7-6.98,8.73-11.26,15.7-9.56l75.95,18.46c9.71,2.36,17.42,9.43,20.62,18.9s1.35,19.76-4.95,27.53l-87.58,108.06c-.89,1.1-.75,2.2-.48,2.93.27.73.89,1.65,2.29,1.9l61.04,10.68c7.07,1.24,11.8,7.97,10.57,15.05-1.11,6.31-6.59,10.76-12.79,10.76Z" fill="#e8e8e8" stroke="#000" stroke-miterlimit="10" stroke-width="2"/>
    <g>
      <polygon points="1120.25 184.15 1111.31 138.67 1038.68 141.6 1033.67 181.63 1046.5 229.64 1118.08 225.72 1120.25 184.15" fill="none" stroke="#050207" stroke-miterlimit="10" stroke-width="1.23"/>
      <g>
        <polygon points="1120.25 184.15 1111.31 138.67 1038.68 141.6 1033.67 181.63 1046.5 229.64 1118.08 225.72 1120.25 184.15" fill="#f9f9f9"/>
        <g clip-path="url(#clippath-22)">
          <polygon points="1108.58 177.94 1031.16 181.63 1043.53 232.73 1121.81 229.64 1108.58 177.94" fill="#9f46d5" stroke-width="0"/>
        </g>
        <polygon points="1120.25 184.15 1111.31 138.67 1038.68 141.6 1033.67 181.63 1046.5 229.64 1118.08 225.72 1120.25 184.15" fill="none" stroke="#000" stroke-miterlimit="10" stroke-width="2"/>
      </g>
      <path d="M1111.31,138.67l-2.72,39.28-72.48,3.57c-1.25.06-2.12,1.26-1.8,2.46l12.2,45.67,71.59-3.92" fill="none" stroke="#050207" stroke-miterlimit="10" stroke-width="2"/>
      <line x1="1108.58" y1="177.94" x2="1117.6" y2="225.72" fill="none" stroke="#050207" stroke-miterlimit="10" stroke-width="1.23"/>
      <polygon points="1111.15 140.97 1120.25 184.15 1116.19 226.64 1108.58 177.94 1111.15 140.97" fill="#050207" stroke-width="0"/>
    </g>
  </g>
  <g isolation="isolate">
    <g isolation="isolate">
      <g clip-path="url(#clippath-23)">
        <g isolation="isolate">
          <path d="M1157.87,903.8l12.6,34.78c-1.31-.21-2.64-.33-3.99-.36l-12.6-34.78c1.35.04,2.68.16,3.99.36" stroke-width="0"/>
          <path d="M1153.88,903.44l12.6,34.78c-1.1-.03-2.21,0-3.32.07l-12.6-34.78c1.11-.08,2.22-.1,3.32-.07" stroke-width="0"/>
          <path d="M1150.57,903.51l12.6,34.78c-.9.06-1.8.16-2.7.28l-12.6-34.78c.9-.13,1.8-.22,2.7-.28" stroke-width="0"/>
          <path d="M1147.87,903.79l12.6,34.78c-.81.11-1.61.25-2.41.42l-12.6-34.78c.8-.16,1.61-.3,2.41-.42" stroke-width="0"/>
          <path d="M1145.45,904.21l12.6,34.78c-.75.15-1.5.33-2.23.53l-12.6-34.78c.74-.2,1.48-.37,2.23-.53" stroke-width="0"/>
          <path d="M1143.22,904.73l12.6,34.78c-.71.19-1.41.4-2.11.62l-12.6-34.78c.7-.23,1.4-.44,2.11-.62" stroke-width="0"/>
          <path d="M1141.11,905.36l12.6,34.78c-.68.22-1.36.46-2.03.72l-12.6-34.78c.67-.26,1.34-.5,2.03-.72" stroke-width="0"/>
          <path d="M1139.08,906.08l12.6,34.78c-.67.26-1.33.54-1.98.83l-12.6-34.78c.65-.29,1.31-.57,1.98-.83" stroke-width="0"/>
          <path d="M1137.11,906.91l12.6,34.78c-.67.3-1.32.62-1.96.96l-12.6-34.78c.64-.34,1.3-.66,1.96-.96" stroke-width="0"/>
          <path d="M1135.14,907.87l12.6,34.78c-.68.36-1.35.74-1.99,1.13l-12.6-34.78c.65-.4,1.31-.77,1.99-1.13" stroke-width="0"/>
          <path d="M1133.15,909l12.6,34.78c-.73.45-1.43.92-2.11,1.41l-12.6-34.78c.67-.49,1.38-.96,2.11-1.41" stroke-width="0"/>
          <path d="M1131.04,910.41l12.6,34.78c-.92.67-1.78,1.38-2.57,2.12l-12.6-34.78c.8-.74,1.66-1.45,2.57-2.12" stroke-width="0"/>
          <path d="M1128.47,912.54l12.6,34.78c-1.25,1.17-2.33,2.42-3.22,3.75l-12.6-34.78c.89-1.33,1.97-2.58,3.22-3.75" stroke-width="0"/>
        </g>
      </g>
    </g>
    <polygon points="1408.75 943.54 1421.35 978.32 1170.47 938.59 1157.87 903.8 1408.75 943.54" stroke-width="0"/>
    <g isolation="isolate">
      <g clip-path="url(#clippath-24)">
        <g isolation="isolate">
          <path d="M1423.12,953.39l12.6,34.78c-1.76-4.85-6.91-8.67-14.37-9.85l-12.6-34.78c7.46,1.18,12.61,5,14.37,9.85" stroke-width="0"/>
        </g>
      </g>
    </g>
    <g isolation="isolate">
      <g clip-path="url(#clippath-25)">
        <g isolation="isolate">
          <path d="M1423.12,953.39l12.6,34.78c.02.07.05.14.07.21l-12.6-34.78c-.02-.07-.05-.14-.07-.21" fill="#9e9488" stroke-width="0"/>
          <path d="M1423.19,953.6l12.6,34.78c.14.42.26.85.35,1.28l-12.6-34.78c-.09-.43-.21-.86-.35-1.28" fill="#a3988d" stroke-width="0"/>
        </g>
      </g>
    </g>
    <polygon points="1125.25 916.28 1137.85 951.07 1003.87 1151.6 991.27 1116.82 1125.25 916.28" stroke-width="0"/>
    <g isolation="isolate">
      <g clip-path="url(#clippath-26)">
        <g isolation="isolate">
          <path d="M1423.19,953.6l12.6,34.78c.14.42.26.85.35,1.28l-12.6-34.78c-.09-.43-.21-.86-.35-1.28" fill="#a3988d" stroke-width="0"/>
          <path d="M1423.54,954.88l12.6,34.78c.09.43.16.87.2,1.32l-12.6-34.78c-.04-.44-.11-.88-.2-1.32" fill="#a89d91" stroke-width="0"/>
          <path d="M1423.74,956.2l12.6,34.78c.04.45.05.92.04,1.38l-12.6-34.78c.02-.47,0-.93-.04-1.38" fill="#ada296" stroke-width="0"/>
          <path d="M1423.78,957.58l12.6,34.78c-.02.49-.07.99-.15,1.5l-12.6-34.78c.08-.5.13-1,.15-1.5" fill="#b3a79a" stroke-width="0"/>
          <path d="M1423.63,959.08l12.6,34.78c-.09.58-.23,1.16-.41,1.74l-12.6-34.78c.18-.59.32-1.17.41-1.74" fill="#b8ab9e" stroke-width="0"/>
          <path d="M1423.22,960.82l12.6,34.78c-.25.8-.58,1.61-1,2.42l-12.6-34.78c.42-.81.75-1.61,1-2.42" fill="#bdb0a3" stroke-width="0"/>
          <path d="M1422.22,963.24l12.6,34.78s-.03.05-.04.08l-12.6-34.78s.03-.05.04-.08" fill="#c2b5a7" stroke-width="0"/>
        </g>
      </g>
    </g>
    <g isolation="isolate">
      <g clip-path="url(#clippath-27)">
        <g isolation="isolate">
          <path d="M1424.11,953.04l12.6,34.78c.03.07.05.14.08.22l-12.6-34.78c-.02-.07-.05-.14-.08-.22" stroke-width="0"/>
          <path d="M1424.18,953.25l12.6,34.78c.15.44.27.89.37,1.34l-12.6-34.78c-.1-.45-.22-.9-.37-1.34" stroke-width="0"/>
          <path d="M1424.55,954.6l12.6,34.78c.1.45.16.91.21,1.38l-12.6-34.78c-.04-.47-.11-.92-.21-1.38" stroke-width="0"/>
          <path d="M1424.76,955.97l12.6,34.78c.04.48.06.96.04,1.45l-12.6-34.78c.02-.49,0-.97-.04-1.45" stroke-width="0"/>
          <path d="M1424.8,957.42l12.6,34.78c-.02.52-.07,1.04-.15,1.57l-12.6-34.78c.09-.53.14-1.05.15-1.57" stroke-width="0"/>
          <path d="M1424.64,958.99l12.6,34.78c-.1.6-.24,1.21-.43,1.83l-12.6-34.78c.19-.61.33-1.22.43-1.83" stroke-width="0"/>
          <path d="M1424.21,960.81l12.6,34.78c-.26.84-.61,1.69-1.05,2.53l-12.6-34.78c.44-.85.79-1.69,1.05-2.53" stroke-width="0"/>
          <path d="M1423.17,963.35l12.6,34.78s-.03.05-.04.08l-12.6-34.78s.03-.05.04-.08" stroke-width="0"/>
        </g>
      </g>
    </g>
    <g isolation="isolate">
      <g clip-path="url(#clippath-28)">
        <g isolation="isolate">
          <path d="M991.27,1116.82l12.6,34.78c-.48.72-.91,1.44-1.28,2.17l-12.6-34.78c.37-.72.8-1.44,1.28-2.17" stroke-width="0"/>
          <path d="M989.99,1118.98l12.6,34.78c-.52,1.01-.94,2.03-1.25,3.03l-12.6-34.78c.31-1,.73-2.02,1.25-3.03" stroke-width="0"/>
          <path d="M988.74,1122.02l12.6,34.78c-.22.7-.38,1.39-.49,2.08l-12.6-34.78c.11-.69.27-1.38.49-2.08" stroke-width="0"/>
          <path d="M988.25,1124.1l12.6,34.78c-.09.58-.15,1.16-.17,1.73l-12.6-34.78c.02-.57.08-1.15.17-1.73" stroke-width="0"/>
          <path d="M988.08,1125.82l12.6,34.78c-.02.52,0,1.03.04,1.54l-12.6-34.78c-.04-.51-.06-1.02-.04-1.54" stroke-width="0"/>
          <path d="M988.12,1127.36l12.6,34.78c.04.48.11.95.21,1.42l-12.6-34.78c-.1-.47-.17-.94-.21-1.42" stroke-width="0"/>
          <path d="M988.33,1128.78l12.6,34.78c.1.46.22.91.37,1.35l-12.6-34.78c-.15-.44-.28-.9-.37-1.35" stroke-width="0"/>
          <path d="M988.7,1130.13l12.6,34.78c.03.07.05.15.08.22l-12.6-34.78c-.03-.07-.05-.15-.08-.22" stroke-width="0"/>
        </g>
      </g>
    </g>
    <g isolation="isolate">
      <g clip-path="url(#clippath-29)">
        <g isolation="isolate">
          <path d="M1002.7,1139.95l12.6,34.78c-6.51-1.03-11.28-4.02-13.42-8.43-.19-.38-.35-.77-.49-1.16l-12.6-34.78c.14.39.31.78.49,1.16,2.14,4.41,6.91,7.4,13.42,8.43" fill="#857c72" stroke-width="0"/>
        </g>
      </g>
    </g>
    <g isolation="isolate">
      <g clip-path="url(#clippath-30)">
        <g isolation="isolate">
          <path d="M1002.25,1140.7l12.6,34.78c-6.77-1.07-11.73-4.18-13.96-8.77-.19-.4-.37-.8-.51-1.21l-12.6-34.78c.15.41.32.82.51,1.21,2.23,4.58,7.2,7.69,13.96,8.77" stroke-width="0"/>
        </g>
      </g>
    </g>
    <g isolation="isolate">
      <g clip-path="url(#clippath-31)">
        <g isolation="isolate">
          <path d="M1314.95,1168.09l12.6,34.78c-1.26,2.41-3.02,4.66-5.18,6.69l-12.6-34.78c2.17-2.03,3.92-4.29,5.18-6.69" fill="#c2b5a7" stroke-width="0"/>
          <path d="M1309.77,1174.78l12.6,34.78c-.91.85-1.9,1.67-2.95,2.43l-12.6-34.78c1.05-.77,2.03-1.58,2.95-2.43" fill="#bdb0a3" stroke-width="0"/>
          <path d="M1306.82,1177.21l12.6,34.78c-.74.54-1.5,1.05-2.3,1.54l-12.6-34.78c.8-.49,1.57-1,2.3-1.54" fill="#b8ab9e" stroke-width="0"/>
          <path d="M1304.52,1178.75l12.6,34.78c-.68.42-1.38.82-2.1,1.2l-12.6-34.78c.72-.38,1.42-.78,2.1-1.2" fill="#b3a79a" stroke-width="0"/>
          <path d="M1302.42,1179.95l12.6,34.78c-.59.31-1.18.6-1.79.88-.08.04-.17.08-.25.11l-12.6-34.78c.08-.04.17-.08.25-.11.61-.28,1.21-.58,1.79-.88" fill="#ada296" stroke-width="0"/>
        </g>
      </g>
    </g>
    <polygon points="1422.18 963.31 1434.78 998.1 1327.55 1202.87 1314.95 1168.09 1422.18 963.31" fill="#cfc1b2" stroke-width="0"/>
    <polygon points="1423.13 963.42 1435.73 998.21 1328.5 1202.97 1315.9 1168.19 1423.13 963.42" stroke-width="0"/>
    <polygon points="1423.13 963.42 1434.72 995.43 1327.5 1200.2 1315.9 1168.19 1423.13 963.42" fill="#6754c6" stroke-width="0"/>
    <polygon points="1280.33 1183.92 1292.93 1218.71 1015.29 1174.73 1002.7 1139.95 1280.33 1183.92" fill="#898076" stroke-width="0"/>
    <polygon points="1279.89 1184.67 1292.49 1219.46 1014.85 1175.48 1002.25 1140.7 1279.89 1184.67" stroke-width="0"/>
    <polygon points="1279.89 1184.67 1291.91 1217.88 1014.27 1173.91 1002.25 1140.7 1279.89 1184.67" fill="#6754c6" stroke-width="0"/>
    <g isolation="isolate">
      <g clip-path="url(#clippath-32)">
        <g isolation="isolate">
          <path d="M1302.42,1179.95l12.6,34.78c-.59.31-1.18.6-1.79.88-.08.04-.17.08-.25.11l-12.6-34.78c.08-.04.17-.08.25-.11.61-.28,1.21-.58,1.79-.88" fill="#ada296" stroke-width="0"/>
        </g>
      </g>
    </g>
    <g isolation="isolate">
      <g clip-path="url(#clippath-33)">
        <g isolation="isolate">
          <path d="M1302.42,1179.95l12.6,34.78c-.59.31-1.18.6-1.79.88-.08.04-.17.08-.25.11l-12.6-34.78c.08-.04.17-.08.25-.11.61-.28,1.21-.58,1.79-.88" fill="#ada296" stroke-width="0"/>
          <path d="M1300.37,1180.95l12.6,34.78c-.66.3-1.32.57-1.99.83l-12.6-34.78c.67-.26,1.33-.54,1.99-.83" fill="#a89d91" stroke-width="0"/>
          <path d="M1298.39,1181.78l12.6,34.78c-.65.25-1.31.49-1.97.7l-12.6-34.78c.66-.22,1.32-.45,1.97-.7" fill="#a3988d" stroke-width="0"/>
          <path d="M1296.42,1182.48l12.6,34.78c-.66.22-1.33.41-2,.59l-12.6-34.78c.67-.18,1.34-.38,2-.59" fill="#9e9488" stroke-width="0"/>
          <path d="M1294.41,1183.07l12.6,34.78c-.69.18-1.39.35-2.09.49l-12.6-34.78c.7-.14,1.4-.31,2.09-.49" fill="#998f84" stroke-width="0"/>
          <path d="M1292.32,1183.57l12.6,34.78c-.75.15-1.5.28-2.26.39l-12.6-34.78c.75-.11,1.5-.24,2.26-.39" fill="#948a80" stroke-width="0"/>
          <path d="M1290.07,1183.96l12.6,34.78c-.85.12-1.7.21-2.55.27l-12.6-34.78c.85-.06,1.7-.15,2.55-.27" fill="#8f857b" stroke-width="0"/>
          <path d="M1287.52,1184.22l12.6,34.78c-1.06.07-2.12.09-3.17.07l-12.6-34.78c1.05.03,2.11,0,3.17-.07" fill="#8a8177" stroke-width="0"/>
          <path d="M1284.35,1184.29l12.6,34.78c-1.36-.04-2.7-.16-4.01-.37l-12.6-34.78c1.31.21,2.66.33,4.01.37" fill="#857c72" stroke-width="0"/>
        </g>
      </g>
    </g>
    <path d="M1408.75,943.54c12.12,1.92,18.14,10.79,13.43,19.77l-107.23,204.77c-2.73,5.23-7.82,9.75-14.33,12.75-6.57,3.03-13.77,4.12-20.29,3.09l-277.64-43.97c-6.51-1.03-11.28-4.02-13.42-8.43-2.13-4.36-1.42-9.58,2-14.7l133.98-200.54c5.88-8.8,20.52-14.4,32.63-12.48l250.88,39.73Z" fill="#ffeedc" stroke="#000" stroke-miterlimit="10" stroke-width="1.06"/>
    <g>
      <ellipse cx="1210.19" cy="1033.94" rx="83.04" ry="55.21" transform="translate(-211.19 317.5) rotate(-13.76)" fill="#f2f2f2" stroke="#000" stroke-miterlimit="10" stroke-width=".95"/>
      <ellipse cx="1210.02" cy="1033.98" rx="59.79" ry="39.75" transform="translate(-211.2 317.46) rotate(-13.76)" fill="#fff" stroke="#070404" stroke-miterlimit="10" stroke-width="2.12"/>
      <path d="M1291.81,1020.38c-5.89-28.79-44.72-45.04-88.44-36.46-43.73,8.58-76.24,38.85-74.15,68.39-.16-.79-.3-1.59-.41-2.4-4.13-30.31,28.96-62.02,73.9-70.84,44.94-8.81,84.72,8.61,88.85,38.91.11.8.19,1.6.25,2.41Z" fill="#010102" stroke="#000" stroke-miterlimit="10" stroke-width=".95"/>
    </g>
    <g isolation="isolate">
      <g clip-path="url(#clippath-34)">
        <g isolation="isolate">
          <path d="M1315.9,1168.19l12.6,34.78c-1.31,2.5-3.14,4.85-5.4,6.96l-12.6-34.78c2.26-2.11,4.09-4.46,5.4-6.96" stroke-width="0"/>
          <path d="M1310.5,1175.15l12.6,34.78c-.95.89-1.98,1.74-3.07,2.54l-12.6-34.78c1.09-.8,2.12-1.65,3.07-2.54" stroke-width="0"/>
          <path d="M1307.43,1177.69l12.6,34.78c-.77.56-1.57,1.09-2.4,1.6l-12.6-34.78c.83-.51,1.63-1.04,2.4-1.6" stroke-width="0"/>
          <path d="M1305.04,1179.29l12.6,34.78c-.71.43-1.44.85-2.19,1.24l-12.6-34.78c.75-.39,1.48-.81,2.19-1.24" stroke-width="0"/>
          <path d="M1302.85,1180.54l12.6,34.78c-.61.32-1.23.63-1.87.92-.09.04-.17.08-.26.12l-12.6-34.78c.09-.04.17-.08.26-.12.64-.29,1.26-.6,1.87-.92" stroke-width="0"/>
          <path d="M1300.72,1181.57l12.6,34.78c-.68.31-1.37.6-2.07.87l-12.6-34.78c.69-.27,1.38-.56,2.07-.87" stroke-width="0"/>
          <path d="M1298.66,1182.44l12.6,34.78c-.68.26-1.36.51-2.05.73l-12.6-34.78c.69-.22,1.37-.47,2.05-.73" stroke-width="0"/>
          <path d="M1296.61,1183.17l12.6,34.78c-.69.23-1.39.43-2.08.62l-12.6-34.78c.7-.19,1.39-.39,2.08-.62" stroke-width="0"/>
          <path d="M1294.52,1183.79l12.6,34.78c-.72.19-1.45.36-2.17.51l-12.6-34.78c.73-.15,1.45-.32,2.17-.51" stroke-width="0"/>
          <path d="M1292.35,1184.3l12.6,34.78c-.78.16-1.56.3-2.35.41l-12.6-34.78c.78-.11,1.56-.25,2.35-.41" stroke-width="0"/>
          <path d="M1290.01,1184.71l12.6,34.78c-.88.12-1.77.22-2.65.28l-12.6-34.78c.88-.06,1.76-.15,2.65-.28" stroke-width="0"/>
          <path d="M1287.36,1184.98l12.6,34.78c-1.11.07-2.21.1-3.3.07l-12.6-34.78c1.09.03,2.19,0,3.3-.07" stroke-width="0"/>
          <path d="M1284.06,1185.05l12.6,34.78c-1.41-.04-2.81-.16-4.17-.38l-12.6-34.78c1.37.22,2.76.34,4.17.38" stroke-width="0"/>
        </g>
      </g>
    </g>
    <path d="M1315.9,1168.19c-2.85,5.44-8.15,10.15-14.92,13.27-6.83,3.15-14.32,4.29-21.09,3.21l-277.64-43.97c-6.77-1.07-11.73-4.18-13.96-8.77-2.22-4.54-1.47-9.98,2.08-15.3l133.97-200.53c6.14-9.18,21.38-15.04,33.98-13.04l250.88,39.73c12.6,2,18.85,11.25,13.93,20.63l-107.23,204.77ZM1300.62,1180.83c6.51-3,11.6-7.52,14.33-12.75l107.23-204.77c4.71-8.98-1.31-17.86-13.43-19.77l-250.88-39.73c-12.11-1.92-26.75,3.68-32.63,12.48l-133.98,200.54c-3.42,5.12-4.13,10.34-2,14.7,2.14,4.41,6.91,7.4,13.42,8.43l277.64,43.97c6.51,1.03,13.72-.06,20.29-3.09" stroke-width="0"/>
  </g>
</svg>