<?xml version="1.0" encoding="UTF-8"?>
<svg xmlns="http://www.w3.org/2000/svg" xmlns:xlink="http://www.w3.org/1999/xlink" viewBox="0 0 1672 1301">
  <defs>
    <linearGradient id="linear-gradient" x1="1271.77" y1="814.24" x2="1271.77" y2="534.7" gradientTransform="translate(502.4 -378.42) rotate(22.76)" gradientUnits="userSpaceOnUse">
      <stop offset="0" stop-color="#0d315c"/>
      <stop offset="1" stop-color="#007c89"/>
    </linearGradient>
    <clipPath id="clippath">
      <path d="M1355.76,366.07c-8.87,52.51-137.56,74.56-287.44,49.25-149.88-25.31-264.2-88.39-255.34-140.89,8.87-52.51,218.35-241.49,368.23-216.19,80.4,13.57,215.12,70.91,239.97,143.3,21.48,62.56-61.32,140.19-65.43,164.53Z" fill="none" stroke-width="0"/>
    </clipPath>
    <clipPath id="clippath-1">
      <path d="M205.05,571.62l-.51,179.47c-13.78-2.87-29.15-1.71-41.14,3.08-12.29,4.92-19.58,13.01-19.55,21.66l.51-179.47c-.04-8.65,7.26-16.75,19.55-21.66,11.99-4.79,27.36-5.95,41.14-3.08Z" fill="none" stroke-width="0"/>
    </clipPath>
    <clipPath id="clippath-2">
      <path d="M573.66,660.83l-.51,179.47c0-3.3-1.29-6.59-3.88-9.65-1.88-2.22-4.34-4.2-7.27-5.9-4-2.31-8.88-4.08-14.38-5.18l.51-179.47c5.5,1.09,10.38,2.87,14.38,5.18,2.94,1.7,5.4,3.68,7.27,5.9,2.58,3.06,3.88,6.35,3.88,9.65Z" fill="none" stroke-width="0"/>
    </clipPath>
    <clipPath id="clippath-3">
      <path d="M577.9,660.84l-.51,179.47c0,2.63-.76,5.27-2.28,7.82l.51-179.47c1.51-2.56,2.27-5.2,2.28-7.82Z" fill="none" stroke-width="0"/>
    </clipPath>
    <clipPath id="clippath-4">
      <path d="M571.1,847.33c-3.24,5.52-10.02,9.96-19.04,12.51.17-59.82.34-119.64.51-179.47,9.02-2.55,15.8-6.99,19.04-12.51,1.36-2.3,2.04-4.67,2.04-7.03l-.51,179.47c0,2.36-.68,4.73-2.04,7.03Z" fill="none" stroke-width="0"/>
    </clipPath>
    <clipPath id="clippath-5">
      <path d="M552.07,859.84s0,0,0,0c.17-59.82.34-119.64.51-179.47,0,0,0,0,0,0-.17,59.82-.34,119.64-.51,179.47Z" fill="none" stroke-width="0"/>
    </clipPath>
    <clipPath id="clippath-6">
      <path d="M523.27,860.85c.18-59.82.35-119.64.51-179.47,9.52,1.9,19.75,1.54,28.78-1.01-.17,59.82-.34,119.64-.51,179.47-9.04,2.54-19.26,2.91-28.78,1.01Z" fill="none" stroke-width="0"/>
    </clipPath>
    <clipPath id="clippath-7">
      <path d="M575.62,668.67l-.51,179.47c-3.62,6.13-11.15,11.07-21.18,13.91-10.06,2.84-21.42,3.24-32.03,1.12l.51-179.47c10.61,2.11,21.97,1.72,32.03-1.12,10.03-2.84,17.56-7.78,21.18-13.91Z" fill="none" stroke-width="0"/>
    </clipPath>
    <clipPath id="clippath-8">
      <path d="M786.55,943.36c-1.16,8.47-10.86,16.14-25.64,18.97l.51-179.47c14.78-2.83,24.48-10.5,25.64-18.97-.17,59.82-.34,119.64-.51,179.47Z" fill="none" stroke-width="0"/>
    </clipPath>
    <clipPath id="clippath-9">
      <path d="M791.42,762.24l-.51,179.47c-.03,10.15-11.15,19.6-28.66,22.95l.51-179.47c17.52-3.35,28.63-12.8,28.66-22.95Z" fill="none" stroke-width="0"/>
    </clipPath>
    <clipPath id="clippath-10">
      <path d="M304.8,795.61l-.51,179.47c-.01,3.91-1.85,7.76-5.43,11.19-5.2,4.98-13.44,8.48-23.21,9.87-12.9,1.83-26.21-.34-35.64-5.78-4.87-2.81-8.33-6.35-9.99-10.25l.51-179.47c1.65,3.89,5.12,7.44,9.99,10.25,9.43,5.45,22.74,7.61,35.64,5.78,9.77-1.39,18.01-4.89,23.21-9.87,3.58-3.43,5.42-7.28,5.43-11.19Z" fill="none" stroke-width="0"/>
    </clipPath>
    <clipPath id="clippath-11">
      <path d="M309.04,795.64l-.51,179.47c-.01,4.35-2.05,8.62-6.03,12.43-5.79,5.54-14.96,9.44-25.82,10.98-14.34,2.04-29.16-.37-39.64-6.43-5.42-3.13-9.27-7.06-11.11-11.39l.51-179.47c1.84,4.33,5.69,8.26,11.11,11.39,10.49,6.06,25.31,8.47,39.64,6.43,10.86-1.54,20.03-5.44,25.82-10.98,3.98-3.81,6.02-8.09,6.03-12.43Z" fill="none" stroke-width="0"/>
    </clipPath>
    <clipPath id="clippath-12">
      <path d="M759.99,991.49l.51-179.47c0-3.23,1.27-6.44,3.77-9.43,4.38-5.24,12.02-9.18,21.52-11.08,9.51-1.9,19.73-1.54,28.8,1.01,3.85,1.08,7.28,2.5,10.21,4.2,4,2.31,7.07,5.13,8.98,8.31l-.51,179.47c-1.9-3.18-4.98-6-8.98-8.31-2.93-1.69-6.36-3.11-10.21-4.2-9.07-2.54-19.28-2.9-28.8-1.01-9.5,1.9-17.14,5.84-21.52,11.08-2.5,2.99-3.76,6.2-3.77,9.43Z" fill="none" stroke-width="0"/>
    </clipPath>
    <clipPath id="clippath-13">
      <path d="M762.12,998.74c-1.43-2.37-2.13-4.81-2.12-7.25l.51-179.47c0,2.43.7,4.88,2.12,7.25-.15,53.84-.36,125.63-.51,179.47Z" fill="none" stroke-width="0"/>
    </clipPath>
    <clipPath id="clippath-14">
      <path d="M755.75,991.48l.51-179.47c0,2.71.77,5.42,2.35,8.06l-.51,179.47c-1.58-2.63-2.36-5.35-2.35-8.06Z" fill="none" stroke-width="0"/>
    </clipPath>
    <clipPath id="clippath-15">
      <path d="M262.44,1027.3l.51-179.47c0-3.33,1.35-6.63,3.98-9.68,4.51-5.2,12.25-9.08,21.8-10.9l-.51,179.47c-9.55,1.83-17.29,5.7-21.8,10.9-2.63,3.06-3.97,6.36-3.98,9.68Z" fill="none" stroke-width="0"/>
    </clipPath>
    <clipPath id="clippath-16">
      <path d="M262.74,1030.06c-.2-.92-.3-1.85-.3-2.77l.51-179.47c0,.92.1,1.85.3,2.77-.17,59.82-.34,119.64-.51,179.47Z" fill="none" stroke-width="0"/>
    </clipPath>
    <clipPath id="clippath-17">
      <path d="M264.4,1034.27c-.8-1.38-1.35-2.79-1.66-4.21.17-59.82.34-119.64.51-179.47.31,1.41.86,2.82,1.66,4.21,1.88,3.28,4.97,6.16,9.16,8.58,10.16,5.87,24.91,7.9,38.51,5.31l-.51,179.47c-13.59,2.59-28.34.56-38.51-5.31-4.19-2.42-7.28-5.31-9.16-8.58Z" fill="none" stroke-width="0"/>
    </clipPath>
    <clipPath id="clippath-18">
      <path d="M258.21,1027.34l.51-179.47c0,2.55.69,5.15,2.15,7.7,2.11,3.64,5.52,6.86,10.2,9.56,11.31,6.53,27.72,8.79,42.83,5.89l-.51,179.47c-15.11,2.9-31.52.64-42.83-5.89-4.68-2.7-8.09-5.91-10.2-9.56-1.47-2.55-2.16-5.15-2.15-7.7Z" fill="none" stroke-width="0"/>
    </clipPath>
    <clipPath id="clippath-19">
      <path d="M505.17,1139.58l.51-179.47c0-1.83.41-3.68,1.24-5.49,5.3-11.63,25.94-18.57,46.04-15.47l-.51,179.47c-20.1-3.1-40.75,3.84-46.04,15.47-.83,1.81-1.23,3.65-1.24,5.49Z" fill="none" stroke-width="0"/>
    </clipPath>
    <clipPath id="clippath-20">
      <path d="M516.31,1155.16c-7.22-4.17-11.15-9.82-11.13-15.58l.51-179.47c-.02,5.76,3.92,11.41,11.13,15.58,3.33,1.92,7.25,3.46,11.54,4.55-.17,59.82-.34,119.64-.51,179.47-4.29-1.09-8.21-2.63-11.54-4.55Z" fill="none" stroke-width="0"/>
    </clipPath>
    <clipPath id="clippath-21">
      <path d="M527.85,1159.71c.17-59.82.34-119.64.51-179.47,1.74.44,3.55.81,5.4,1.09l-.51,179.47c-1.85-.29-3.66-.65-5.4-1.09Z" fill="none" stroke-width="0"/>
    </clipPath>
    <clipPath id="clippath-22">
      <path d="M500.94,1139.56l.51-179.47c-.02,6.41,4.36,12.7,12.39,17.34,5.2,3,11.72,5.18,18.84,6.27l-.51,179.47c-7.12-1.09-13.64-3.27-18.84-6.27-8.03-4.64-12.41-10.93-12.39-17.34Z" fill="none" stroke-width="0"/>
    </clipPath>
    <clipPath id="clippath-23">
      <path d="M946.52,1207.6c.17-59.82.34-119.64.51-179.47.32-.25.63-.5.93-.76l-.51,179.47c-.3.26-.62.51-.93.76Z" fill="none" stroke-width="0"/>
    </clipPath>
    <clipPath id="clippath-24">
      <path d="M960.1,1012.58l-.51,179.47c-.02,5.71-2.95,11.38-8.66,16.19l.51-179.47c5.71-4.81,8.65-10.48,8.66-16.19Z" fill="none" stroke-width="0"/>
    </clipPath>
    <clipPath id="clippath-25">
      <path d="M922.05,1217.3c.17-59.82.34-119.64.51-179.47,9.72-1.54,18.37-4.92,24.47-9.7-.17,59.82-.34,119.64-.51,179.47-6.1,4.78-14.75,8.17-24.47,9.7Z" fill="none" stroke-width="0"/>
    </clipPath>
    <clipPath id="clippath-26">
      <path d="M951.44,1028.76l-.51,179.47c-9.21,7.8-24.48,12.45-40.82,12.45l.51-179.47c16.34,0,31.61-4.65,40.82-12.45Z" fill="none" stroke-width="0"/>
    </clipPath>
    <clipPath id="clippath-27">
      <path d="M376.69,285.17c-14.28-38.52-34.05-46.17-56.85-37.94-1.48.53-2.9-.88-2.33-2.35,7.22-18.67,7.08-39.78-5.97-62.88h0s0,0,0,0c-5.94-10.56-12.8-17.14-20.33-20.62-.39-.18-.7-.48-.88-.87l1.95-4.89c-.38-.82-1.29-1.24-2.16-.99l-24.32,5.11h0c-9.63,2.37-19.81,7.5-30.26,14.31-.94.61-2.2.26-2.66-.75l-13.09-28.47c-.56-1.22.34-2.61,1.68-2.59l11.89.14c1,.01,1.83-.79,1.85-1.79l.37-16.68c.04-1.91-1.7-3.36-3.57-2.97l-20.72,4.34c-.29.06-.56.19-.79.38l-20.89,17.23c-.63.52-.84,1.4-.51,2.15l3.23,7.27c.48,1.08-.18,2.33-1.35,2.54l-20.25,3.6h0l-21.21,17.49c-.64.53-.84,1.42-.5,2.17l21.74,47.31c.34.74.14,1.62-.47,2.15-4.41,3.8-8.75,7.53-13.03,11.06l-.07-.15-29.68,24.46c-.64.53-.85,1.42-.5,2.17l13.7,29.8c.36.77,1.2,1.2,2.04,1.03l22.94-4.81c.3-.06.57-.2.8-.39l8.47-7.13c.5.59.97,1.21,1.4,1.84.07.09.12.2.17.3l25.1,54.61c.47,1.02,1.27,2.76,1.61,3.51l35.92,78.17c.03.07.06.15.09.22,1.37,4.21,2.46,11.67-3.8,16.85.38.09-11.71,9.77-15.25,12.6-.59.47-.82,1.24-.6,1.96l11.37,37.11c.28.9,1.2,1.45,2.12,1.25l22.47-4.71c.46-.1.87-.37,1.14-.76l11.43-16.78c.54-.79.38-1.86-.37-2.45l-1.19-.96c-.91-.73-.9-2.12,0-2.85,2.73-2.21,5.44-4.39,8.12-6.56.93-.75,2.3-.42,2.8.66l21.59,46.95c.36.77,1.2,1.2,2.04,1.03l22.37-4.69c.64-.13,1.15-.6,1.36-1.21l5.45-16.4c.32-.95-.19-1.98-1.14-2.3-2.59-.88-7.62-2.59-11.45-4.01-.46-.17-.81-.51-1.01-.95l-17.04-37.08c-.35-.77-.13-1.68.53-2.2,5.14-4.06,10.12-8.08,14.97-12.06.93-.76,2.31-.44,2.81.65l21.21,46.18c.36.78,1.2,1.2,2.04,1.03l22.02-4.62c.81-.17,1.41-.86,1.45-1.69l.87-16.22c.06-1.18-.98-2.11-2.14-1.9-.72.13-1.57.28-2.51.45-.82.15-1.64-.28-1.99-1.04l-19.4-42.23c-.33-.71-.16-1.55.41-2.09,35.56-33.56,55.37-67.89,36.78-118.03ZM192.17,205.12l-13.34-29.04c-.52-1.12.21-2.42,1.43-2.58l11.13-1.42c.81-.1,1.46-.73,1.58-1.54l1.03-6.87c.27-1.8,2.71-2.14,3.47-.49l12.81,27.86c.35.75.15,1.63-.49,2.16-4.9,4.06-9.84,8.3-14.75,12.53-.92.79-2.34.48-2.85-.62ZM236.96,301l-26.28-57.18c-.34-.74-.15-1.62.47-2.15,13.49-11.47,49.03-46.62,65.03-11.82h0c15.06,32.78-22.12,60.38-36.42,71.81-.93.74-2.3.41-2.8-.67ZM281.71,398.37l-29.13-63.39c-.34-.74-.15-1.62.47-2.15,16.05-13.55,59.15-55.7,76.81-17.28h0c16.69,36.28-28.51,69.91-45.36,83.5-.93.75-2.3.41-2.79-.67Z" fill="none" stroke-width="0"/>
    </clipPath>
  </defs>
  <g isolation="isolate">
    <g id="Layer_1" data-name="Layer 1">
      <g>
        <g>
          <path d="M1325.06,743.07l88.05-5.53c.14,0,.27.05.36.15l57.74,66.7c.22.25.09.65-.24.72l-94.6,21.15c-.18.04-.37-.04-.47-.2l-51.18-82.32c-.18-.29.01-.66.35-.68Z" fill="url(#linear-gradient)" stroke="#000" stroke-miterlimit="10" stroke-width="2"/>
          <polygon points="1475.41 796.12 1384.99 805.07 1328.03 734.28 1460.86 624.27 1475.41 796.12" fill="#8787dd" stroke="#000" stroke-miterlimit="10" stroke-width="1.37"/>
          <path d="M1325.59,744.74l54.99,70.26c.1.13.27.2.43.18l88.66-9.99c.5-.06.74.61.31.88l-116.49,75.1c-.28.18-.66.02-.73-.31l-28.02-135.74c-.1-.5.54-.79.85-.39Z" fill="#8787dd" stroke="#000" stroke-miterlimit="10" stroke-width="1.37"/>
          <polygon points="1380.74 815.21 1352.9 881.55 1471.7 804.96 1380.74 815.21" fill="#76ffe5" stroke-width="0"/>
          <polygon points="1460.86 624.27 1384.99 805.07 1475.41 796.12 1460.86 624.27" fill="#76ffe5" stroke-width="0"/>
        </g>
        <polygon points="1475.41 796.12 1384.99 805.07 1328.03 734.28 1460.86 624.27 1475.41 796.12" fill="none" stroke="#000" stroke-miterlimit="10" stroke-width="1.86"/>
        <path d="M1324.66,743.55l56.08,71.66,90.42-10.18c.13-.02.2.16.08.23l-118.34,76.3-28.47-137.9c-.03-.13.14-.21.23-.1Z" fill="none" stroke="#000" stroke-miterlimit="10" stroke-width="1.86"/>
      </g>
      <g>
        <g opacity=".96">
          <g>
            <path d="M706.33,529.58v-73.04c0-2.07-1.54-3.8-3.59-4.05l-58.62-7.03c-1.47-.18-2.72-1.15-3.29-2.52-.02-.05-.04-.1-.06-.15-.58-1.38-.38-2.95.54-4.13l36.48-46.42c1.28-1.62,1.14-3.95-.32-5.41l-51.65-51.65c-1.46-1.46-3.78-1.6-5.41-.32l-46.39,36.45c-1.17.92-2.75,1.12-4.13.54-.07-.03-.13-.06-.2-.08-1.37-.57-2.34-1.82-2.51-3.29l-7.02-58.57c-.25-2.05-1.99-3.59-4.05-3.59h-73.04c-2.07,0-3.8,1.54-4.05,3.59l-7.02,58.57c-.18,1.47-1.15,2.72-2.51,3.29-.07.03-.13.06-.2.08-1.38.58-2.96.38-4.13-.54l-46.39-36.45c-1.62-1.28-3.95-1.14-5.41.32l-51.65,51.65c-1.46,1.46-1.6,3.78-.32,5.41l36.48,46.42c.92,1.17,1.12,2.75.54,4.13-.02.05-.04.1-.06.15-.57,1.37-1.82,2.34-3.29,2.52l-58.62,7.03c-2.05.25-3.59,1.99-3.59,4.05v73.04c0,2.07,1.54,3.8,3.59,4.05l58.69,7.04c1.47.18,2.72,1.14,3.29,2.51.01.03.03.06.04.09.58,1.38.38,2.96-.54,4.13l-36.53,46.48c-1.28,1.62-1.14,3.95.32,5.41l51.65,51.65c1.46,1.46,3.78,1.6,5.41.32l46.52-36.56c1.17-.92,2.75-1.12,4.13-.54.02,0,.03.01.05.02,1.37.57,2.34,1.82,2.51,3.29l7.04,58.74c.25,2.05,1.99,3.59,4.05,3.59h73.04c2.07,0,3.8-1.54,4.05-3.59l7.04-58.74c.18-1.47,1.15-2.72,2.51-3.29.01,0,.03-.01.04-.02,1.38-.58,2.95-.38,4.13.54l46.52,36.56c1.62,1.28,3.95,1.14,5.41-.32l51.65-51.65c1.46-1.46,1.6-3.78.32-5.41l-36.53-46.48c-.92-1.17-1.12-2.75-.54-4.13.01-.03.03-.06.04-.09.57-1.37,1.82-2.34,3.29-2.51l58.69-7.04c2.05-.25,3.59-1.99,3.59-4.05ZM586.69,488.58c2.59,40.54-30.97,74.1-71.51,71.51-33.51-2.14-60.57-29.21-62.72-62.72-2.59-40.54,30.97-74.1,71.51-71.51,33.51,2.14,60.58,29.21,62.72,62.72Z" fill="#629ac4" stroke="#000" stroke-miterlimit="10" stroke-width="2"/>
            <path d="M697.89,528.25v-70.37l-71.25-6.79c-.53-1.36-1.1-2.7-1.68-4.04l46.27-55.35-49.76-49.76-55.84,45.72c-1.35-.59-2.7-1.16-4.08-1.7l-6.79-72.69h-70.37l-6.79,72.69c-1.37.54-2.73,1.11-4.08,1.7l-55.95-45.44-49.76,49.76,46.38,55.07c-.58,1.33-1.15,2.68-1.68,4.04l-71.18,6.79v70.37l71.23,6.8c.53,1.34,1.09,2.67,1.67,3.98l-40.19,50.33,49.76,49.76,49.84-40.74c1.3.57,2.62,1.12,3.94,1.65l6.8,71.08h70.37l6.8-71.08c1.33-.52,2.64-1.08,3.94-1.65l55.13,46.52,49.76-49.76-45.48-56.11c.58-1.32,1.14-2.64,1.67-3.98l71.31-6.8ZM578.53,492.99c0,32.51-26.45,58.95-58.95,58.95s-58.95-26.45-58.95-58.95,26.45-58.95,58.95-58.95,58.95,26.45,58.95,58.95Z" fill="#629ac4" stroke-width="0"/>
            <path d="M697.89,528.25v-70.37l-71.25-6.79c-.53-1.36-1.1-2.7-1.68-4.04l46.27-55.35-49.76-49.76-55.84,45.72c-1.35-.59-2.7-1.16-4.08-1.7l-6.79-72.69h-70.37l-6.79,72.69c-1.37.54-2.73,1.11-4.08,1.7l-55.95-45.44-49.76,49.76,46.38,55.07c-.58,1.33-1.15,2.68-1.68,4.04l-71.18,6.79v70.37l71.23,6.8c.53,1.34,1.09,2.67,1.67,3.98l-40.19,50.33,49.76,49.76,49.84-40.74c1.3.57,2.62,1.12,3.94,1.65l6.8,71.08h70.37l6.8-71.08c1.33-.52,2.64-1.08,3.94-1.65l55.13,46.52,49.76-49.76-45.48-56.11c.58-1.32,1.14-2.64,1.67-3.98l71.31-6.8ZM519.58,560.23c-37.14,0-67.25-30.11-67.25-67.25s30.11-67.25,67.25-67.25,67.25,30.11,67.25,67.25-30.11,67.25-67.25,67.25Z" fill="#7fb8db" stroke-width="0"/>
            <path d="M824.54,230.67v-55.94l-45.02-5.4c-.42-1.08-.87-2.15-1.34-3.21l28.02-35.65-39.55-39.55-35.63,28c-1.07-.47-2.15-.92-3.24-1.35l-5.39-44.98h-55.94l-5.39,44.98c-1.09.43-2.17.88-3.24,1.35l-35.63-28-39.55,39.55,28.02,35.65c-.46,1.06-.91,2.13-1.34,3.21l-45.02,5.4v55.94l45.06,5.4c.42,1.07.87,2.12,1.32,3.16l-28.05,35.7,39.55,39.55,35.72-28.07c1.04.45,2.08.89,3.13,1.31l5.41,45.1h55.94l5.41-45.1c1.06-.42,2.1-.85,3.13-1.31l35.72,28.07,39.55-39.55-28.05-35.7c.46-1.05.9-2.1,1.32-3.16l45.06-5.4ZM741.09,198.37c2.6,29.19-21.75,53.55-50.94,50.94-22.38-1.99-40.4-20.01-42.39-42.39-2.6-29.19,21.75-53.55,50.94-50.94,22.38,1.99,40.4,20.01,42.39,42.39Z" fill="#629ac4" stroke="#000" stroke-miterlimit="10" stroke-width="2"/>
          </g>
          <g>
            <g>
              <g>
                <g>
                  <path d="M1376.57,455.49c-8.43.96-14.17-3.11-16.85-5.63l17.7-80.71c8.87-52.51-113.21-130.37-270.45-156.92-157.24-26.55-300.05-1.45-308.92,51.06l-76.53,587.27c-8.87,52.51,94.36,149.33,240.95,174.08,146.59,24.75,271.47-13.97,290.25-86.8l5.65-25.78c.4.06.63.14.63.14,55.92,47.7,303.39,89.24,333.86-189.81,30.48-279.04-204.29-268.27-216.31-266.91ZM1536.16,717.11c-41.97,208.01-188.17,147.67-203.78,141.41-15.61-6.26-32.15-32.75-32.77-40.52-.56-7.03-13.34-19.76-15.76-22.11l46.82-213.52c2.2-.54,3.29.69,3.29.69,19.84-.99,31.84-18.11,31.84-18.11,26.01-58.36,212.32-55.86,170.36,152.16Z" fill="#e2e2e2" stroke-width="0"/>
                  <path d="M786.01,914.28c-15.54-17.43-28.51-37.69-34.3-60.31-5.53-21.62-4.29-44.35-2.1-66.56,8.13-82.59,28.7-163.38,43.86-244.97,9.33-50.21,16.63-100.8,21.86-151.61.78-7.54,1.5-15.28-.44-22.62-1.82-6.92-5.87-12.99-9.41-19.2-6.16-10.82-10.89-22.54-14.09-34.69l-69.87,536.24c-8.87,52.51,94.36,149.33,240.95,174.08,19.85,3.35,39.29,5.53,58.13,6.63,2.1-1.69,4.1-3.53,5.98-5.54-87.81-19.36-180.74-44.32-240.58-111.44Z" fill="#adb1bc" stroke-width="0"/>
                  <path d="M1489.9,490.66c26.18,12.1,51.3,35,58.82,62.84-22.2-24.3-38.44-34.99-63.5-45.18-55.58-22.59-91.64-9.65-115.45-4.88-7.58,1.52,2.93-23.2,5.91-25.49,8.96-6.89,24.85-7.64,35.52-7.02,28.32,1.65,52.94,7.83,78.69,19.74Z" fill="#fff" opacity=".6" stroke-width="0"/>
                  <path d="M1226.8,663.38c-2.2-2.41-5.8-3.02-9.04-2.64-8.98,1.06-16.12,8.5-19.68,16.81-3.56,8.31-4.25,17.51-5.36,26.49-2.21,17.89-6.24,35.55-12.01,52.62-5.6,16.56-12.89,32.67-23.1,46.86-19.3,26.83-47.77,45.28-73.05,66.57-30.54,25.72-58.25,58.86-62.97,98.51-.87,7.29-.67,15.45,4.22,20.93,4.54,5.09,11.86,6.47,18.63,7.25,44.77,5.18,90.96-2.67,131.51-22.34,4.02-1.95,8.06-4.07,11.25-7.2,3.98-3.92,6.37-9.16,8.42-14.36,9.02-22.79,13.45-47.11,16.8-71.39,7.38-53.56.4-108.14,6.97-161.8,1.41-11.51,4.58-17.89,7.31-30.36,1.7-7.77,6.86-18.53.09-25.95Z" fill="#fff" opacity=".26" stroke-width="0"/>
                  <path d="M1236.97,508.64c-3.61.75-6.4,3.61-8.61,6.56-3.51,4.7-6.2,10.02-7.76,15.68-2.41,8.73-2.1,17.93-2.69,26.96-.59,9.17-2.13,18.29-4.57,27.15-1.41,5.11-3.13,10.26-2.91,15.56.39,9.46,8.63,18.54,18.09,18.02,7.51-.42,13.76-6.36,17-13.15,3.24-6.79,4.11-14.42,5.42-21.82,2.09-11.84,5.41-23.5,6.33-35.48.85-11.08-1.58-43.37-20.29-39.48Z" fill="#fff" opacity=".26" stroke-width="0"/>
                  <g>
                    <ellipse cx="1084.38" cy="320.25" rx="96.42" ry="275.23" transform="translate(588.06 1336.17) rotate(-80.42)" fill="#e5d5c6" stroke-width="0"/>
                    <g mix-blend-mode="multiply" opacity=".33">
                      <path d="M1307.87,297.66c-45.94-30.56-120.74-57.84-207.44-72.48-23.61-3.99-46.69-6.8-68.86-8.5-15.31,47.16-37.04,111.49-61.26,175.37,29.99,9.41,63.03,17.37,98.01,23.28,66.27,11.19,128.4,13.12,177.86,7.25l61.69-124.92Z" fill="#adb1bc" stroke-width="0"/>
                      <path d="M1355.76,366.07c8.07-47.77-85.84-104.3-215.73-133.16-10.15,51.86-29.17,115.43-64.35,183.62,146.71,23.37,271.36,1.19,280.08-50.46Z" fill="#8a8fa0" stroke-width="0"/>
                    </g>
                  </g>
                </g>
                <path d="M1259.01,912.2c27.5,23.45,101.3,45.42,172.84,28.52h0c112.48-82.91,149.31-211.6,123.6-323.89-25.71-112.28-142.38-84.61-142.38-84.61l-1.53,2.15c61.49-12.68,155.71,28.62,124.62,182.74-41.97,208.01-188.17,147.67-203.78,141.41-15.61-6.26-32.15-32.75-32.77-40.52-.56-7.03-13.34-19.76-15.76-22.11-46.28,22.04-53.3,117.87-31.12,141.95l5.65-25.78c.4.06.63.14.63.14Z" fill="#adb1bc" stroke-width="0"/>
                <path d="M1376.57,455.49c-8.43.96-14.17-3.11-16.85-5.63l17.7-80.71c8.87-52.51-113.21-130.37-270.45-156.92-157.24-26.55-300.05-1.45-308.92,51.06l-76.53,587.27c-8.87,52.51,94.36,149.33,240.95,174.08,146.59,24.75,271.47-13.97,290.25-86.8l5.65-25.78c.4.06.63.14.63.14,55.92,47.7,303.39,89.24,333.86-189.81,30.48-279.04-204.29-268.27-216.31-266.91ZM1536.16,717.11c-41.97,208.01-188.17,147.67-203.78,141.41-15.61-6.26-32.15-32.75-32.77-40.52-.56-7.03-13.34-19.76-15.76-22.11l46.82-213.52c2.2-.54,3.29.69,3.29.69,19.84-.99,31.84-18.11,31.84-18.11,26.01-58.36,212.32-55.86,170.36,152.16Z" fill="none" stroke="#000" stroke-miterlimit="10" stroke-width="2"/>
              </g>
              <g>
                <path d="M839.12,640.59c-12.9,74.72,32.41,147.87,100.48,165.39,67.69,17.42,135.44-26,152.13-98.93,17.22-75.26-26.07-153.59-97.6-172.85-71.95-19.37-141.71,29.24-155.02,106.39Z" fill="#a168d5" stroke="#000" stroke-miterlimit="10" stroke-width="2"/>
                <path d="M1049.78,777.61c5.48,20.87,4.8,32.71-1.94,37.13-16.43,10.8-67.55-42.4-115.62-120.99-49.64-81.16-77.42-158.8-60.48-171.03,6.94-5.01,20.3,1.92,37.09,17.65" fill="none" stroke="#000" stroke-miterlimit="10" stroke-width="2"/>
                <path d="M845.73,720.42c-13.09,16.25-19.44,30.92-14.96,38.3,10.92,17.97,77.93-4.92,151.16-51.94,74.86-48.06,128.46-103.42,118.12-122.79-4.24-7.95-18.63-8.49-39.4-2.92" fill="none" stroke="#000" stroke-miterlimit="10" stroke-width="2"/>
              </g>
              <path d="M804.08,304.62c.96,5.42,3.59,10.38,6.43,15.04,3.79,5.93,8.3,11.37,13.29,16.31,17.82,17.62,39.81,30.35,62.32,41.04,9.56,4.54,20.31,9.1,30.2,12.9,21.89,8.35,44.43,15.47,67.08,21.51,51.44,13.73,103.99,24.02,157.08,28.26,21.71,1.75,43.9,2.43,65.66,1.67,44.76-1.4,106.89-10.45,143.37-37.45,2.43-1.97,4.86-4,6.72-6.55-3.09,4.58-7.58,8.09-11.93,11.41-.96.7-2.93,2.02-3.9,2.7-26.12,16.64-56.56,25.12-86.82,30.46-56.24,9.47-113.96,6.49-170.13-1.98-76.54-12.21-187.5-39.67-247.28-89.51-13.27-11.14-29.4-28.26-32.1-45.8h0Z" fill="#fff" opacity=".77" stroke-width="0"/>
            </g>
            <path d="M1074.1,663.5c-12.01,40.73-27.56,80.42-46.41,118.47-8.02,16.19-16.77,32.46-19.49,50.33-1.26,8.29-.63,18,5.89,23.27,8.28,6.68,20.59,2.34,29.79-3.01,36.96-21.45,65.47-56.28,80.92-95.97,12.27-31.51,26.95-94.71-5.11-120.08-21.6-17.08-40.08,8.27-45.6,26.99Z" fill="#fff" opacity=".26" stroke-width="0"/>
            <g clip-path="url(#clippath)">
              <path d="M843.19,372.18c-5.69-2.47-3.42-11.03,2.75-10.34,68.47,7.65,219.27,20.34,304.11-4.41,112.2-32.72,173.94-100.43,219.72-140.75,32.32-28.47,15.58,45.7,7.79,67.51-7.79,21.82-12.73,55.04-24.43,90.48-11.37,34.42-148.09,154.74-509.93-2.49Z" fill="#3f2c29" stroke-width="0"/>
              <path d="M969.12,345.49c-40.73-19.76-75.5-49.78-108.9-80.35-3.53-3.23-7.68-6.69-12.43-6.2-7.74.8-10.38,10.73-10.26,18.51.6,41.95,25.68,81.23,60.01,105.34,34.34,24.11,76.87,34.4,118.8,36.05,40.27,1.59,89.18-4.3,121.43-31.08,26.71-22.18-8.05-20.22-23.4-18.34-22.98,2.82-46.35,2.53-69.26-.77-26.31-3.79-52.06-11.56-75.99-23.17Z" fill="#3f2c29" stroke-width="0"/>
              <path d="M1231.81,341.01c-33.62,15.99-69.64,26.34-105.93,34.63,1.94,7.35,10.23,10.79,17.56,12.8,39.23,10.76,82.93,10.27,118.75-9.01,23.92-12.87,43.32-34.98,52.07-60.78,2-5.89,10.78-33.25-1.67-33.77-4.35-.18-13,11.4-16.31,14.32-5.75,5.07-11.75,9.86-17.94,14.37-14.58,10.61-30.25,19.69-46.52,27.43Z" fill="#70504d" opacity=".74" stroke-width="0"/>
              <path d="M1299.37,380.26c-4.65,3.15-9.69,5.87-13.54,9.96-2.83,3.01-4.85,7.96-2.12,11.06,2.4,2.73,6.75,2.09,10.26,1.16,6.35-1.68,12.64-3.57,18.87-5.65,13.63-4.57,28.12-11.16,34.26-24.16,3.96-8.38,3.73-18.09,2.82-27.31-.57-5.82-2.92-17.92-11.31-16.91-6.74.82-8.24,11.77-10.35,16.66-6.1,14.14-16.12,26.54-28.88,35.2Z" fill="#382220" stroke-width="0"/>
            </g>
            <path d="M1332.15,171.73c3-16.34,4.35-33.25,11.02-48.46,3.79-8.64,9.63-16.85,18.12-20.96,8.49-4.1,19.96-2.96,25.8,4.45,4.46,5.65,4.86,13.46,4.36,20.65-2.21,32.09-19.35,62.8-45.12,81.97-8.29,6.17-25.92,20.38-29.2,6.01-2.19-9.59,13.02-32.85,15.01-43.67Z" fill="#3f2c29" stroke-width="0"/>
            <path d="M1369.77,216.68c14.44-15.14,33.42-44.59,43.22-62.19,24.96-44.83,64.37-73.19,109.59-63.29,18.61,4.08,38.08,17.44,38.24,36.5.05,5.94-1.84,11.77-4.54,17.07-10.48,20.62-32.21,33.14-54.08,40.65-21.88,7.51-45.04,11.22-66.29,20.34-21.25,9.13-48.25,41.05-53.86,63.49" fill="#3f2c29" stroke-width="0"/>
            <path d="M1434.61,139.03c-10.57,15.07-16.24,33.23-27.44,47.84-1.58,2.05-3.32,4.16-3.7,6.72-.38,2.56,1.29,5.63,3.88,5.63,2.04,0,3.59-1.76,4.84-3.38,13.61-17.58,27.98-35.48,47.54-46.03,14.18-7.65,30.28-10.96,46.25-13.05,7.45-.98,15.11-1.76,21.86-5.07s12.51-9.82,12.55-17.33c.12-23.28-39.09-15.39-51.91-11.88-21.32,5.83-41.07,18.32-53.86,36.55Z" fill="#70504d" opacity=".74" stroke-width="0"/>
            <path d="M1482.1,168.94c-6.93,1.88-14.14,3.87-20.34,7.33-3.23,1.81-1.82,6.74,1.88,6.64,22.31-.62,44.48-6.65,63.99-17.51,6.94-3.86,14.07-9.03,15.96-16.75.41-1.68.51-3.6-.51-5-2.2-3.02-23.55,12.4-27.91,14.33-10.63,4.72-21.87,7.91-33.08,10.95Z" fill="#382220" stroke-width="0"/>
            <path d="M1466.33,205.79c9.55-2.09,21.51-1.74,26.61,6.59,4.71,7.7.57,17.97-5.63,24.53-18.72,19.78-51.13,19.23-72.53,36.08-5.64,4.44-10.5,10.08-17.05,13.01-.99.45-2.11.83-3.15.53-2.19-.62-2.56-3.54-2.35-5.8,3.43-36.87,39.86-67.45,74.11-74.94Z" fill="#3f2c29" stroke-width="0"/>
            <path d="M1438,76.4c2.47-1.81,5.22-3.36,8.24-3.86,3.02-.5,6.36.19,8.51,2.37.84.85,1.49,1.93,1.63,3.12.04.36.04.72,0,1.07-.24,1.95-1.71,3.69-3.15,5.14-3.83,3.84-14.31,15.93-19.59,10.03-4.25-4.75.19-14.81,4.36-17.86Z" fill="#3f2c29" stroke-width="0"/>
            <path d="M922.15,255.89c1.13-4.21,3.33-9.31,7.69-9.39,5.18-.1,7.08,6.63,7.83,11.75,1.71,11.7,5.76,23.06,11.85,33.2,4.72,7.86,12.48,15.75,21.53,14.29,4.45-.72,8.28-3.64,12.35-5.57,2.67-1.27,5.78.76,5.62,3.71-.14,2.66-.04,5.3.63,7.86,1.14,4.32,4.33,8.41,8.72,9.26,7.48,1.45,15.53-6.66,21.96,2.63,1.34,1.94,2.14,4.19,2.6,6.5,2.33,11.57,12.04,19.86,22.73,24.09,9.45,3.74,19.72,4.76,29.83,5.74,18.1,1.76,38.35,5.68,56.17,2.04.18,4.19-4.28,5.8-7.23,8.78-15.94,16.12-41.37,17.06-63.99,15.59-36.11-2.34-72.23-8.2-106.14-20.8-29.56-10.98-57.48-27.25-80.12-49.35-7.21-7.04-28.78-29.05-10.27-32.32,11.63-2.06,22.4,4.22,32.88,7.91,20.83,7.35,21.37-21.03,25.38-35.93Z" fill="#3f2c29" stroke-width="0"/>
            <path d="M964.54,279.56c.33,5.21,3.05,11.3,8.25,11.7,5.08.39,8.61-4.84,10.65-9.51,3.09-7.06,5.46-14.94,3.57-22.41-5.63-22.25-23.11,10.18-22.47,20.22Z" fill="#3f2c29" stroke-width="0"/>
          </g>
          <g isolation="isolate">
            <g isolation="isolate">
              <g clip-path="url(#clippath-1)">
                <g isolation="isolate">
                  <path d="M205.05,571.62l-.51,179.47s-.07-.01-.1-.02l.51-179.47s.07.01.1.02" stroke-width="0"/>
                  <path d="M204.95,571.6l-.51,179.47c-1.48-.31-2.97-.56-4.48-.78l.51-179.47c1.51.21,3,.47,4.48.78" stroke-width="0"/>
                  <path d="M200.47,570.82l-.51,179.47c-1.45-.21-2.92-.37-4.39-.49l.51-179.47c1.47.12,2.94.28,4.39.49" stroke-width="0"/>
                  <path d="M196.08,570.33l-.51,179.47c-1.48-.12-2.96-.2-4.45-.24l.51-179.47c1.48.04,2.97.12,4.45.24" stroke-width="0"/>
                  <path d="M191.63,570.1l-.51,179.47c-1.55-.04-3.1-.03-4.64.02l.51-179.47c1.54-.05,3.09-.06,4.64-.02" stroke-width="0"/>
                  <path d="M186.99,570.12l-.51,179.47c-1.68.06-3.36.17-5.02.33l.51-179.47c1.66-.16,3.34-.28,5.02-.33" stroke-width="0"/>
                  <path d="M181.97,570.45l-.51,179.47c-1.97.2-3.93.47-5.84.81l.51-179.47c1.92-.35,3.87-.62,5.84-.81" stroke-width="0"/>
                  <path d="M176.13,571.26l-.51,179.47c-2.92.53-5.75,1.22-8.45,2.09l.51-179.47c2.7-.87,5.54-1.57,8.45-2.09" stroke-width="0"/>
                  <path d="M167.67,573.35l-.51,179.47c-1.29.41-2.54.86-3.76,1.35-2.54,1.02-4.87,2.17-6.97,3.44l.51-179.47c2.09-1.27,4.42-2.42,6.97-3.44,1.22-.49,2.48-.94,3.76-1.35" stroke-width="0"/>
                  <path d="M156.94,578.14l-.51,179.47c-2.14,1.3-4.04,2.71-5.67,4.22l.51-179.47c1.63-1.51,3.53-2.92,5.67-4.22" stroke-width="0"/>
                  <path d="M151.27,582.36l-.51,179.47c-1.06.98-2.01,2-2.84,3.06l.51-179.47c.83-1.05,1.78-2.08,2.84-3.06" stroke-width="0"/>
                  <path d="M148.44,585.42l-.51,179.47c-.69.88-1.3,1.79-1.83,2.71l.51-179.47c.52-.93,1.13-1.83,1.83-2.71" stroke-width="0"/>
                  <path d="M146.61,588.13l-.51,179.47c-.48.85-.88,1.71-1.21,2.58l.51-179.47c.33-.87.73-1.74,1.21-2.58" stroke-width="0"/>
                  <path d="M145.4,590.71l-.51,179.47c-.31.84-.56,1.69-.73,2.55l.51-179.47c.17-.86.42-1.71.73-2.55" stroke-width="0"/>
                  <path d="M144.67,593.26l-.51,179.47c-.17.86-.27,1.72-.3,2.6l.51-179.47c.03-.87.13-1.74.3-2.6" stroke-width="0"/>
                  <path d="M144.37,595.86l-.51,179.47c0,.17,0,.34,0,.51l.51-179.47c0-.17,0-.34,0-.51" stroke-width="0"/>
                </g>
              </g>
            </g>
            <polygon points="144.39 599 143.88 778.47 143.85 775.84 144.36 596.37 144.39 599" fill="#5b1228" stroke-width="0"/>
            <polygon points="140.15 599.29 139.64 778.75 139.62 775.84 140.13 596.37 140.15 599.29" stroke-width="0"/>
            <polygon points="548.12 640.11 547.61 819.58 204.54 751.09 205.05 571.62 548.12 640.11" stroke-width="0"/>
            <g isolation="isolate">
              <g clip-path="url(#clippath-2)">
                <g isolation="isolate">
                  <path d="M573.66,660.83l-.51,179.47c0-3.3-1.29-6.59-3.88-9.65-1.88-2.22-4.34-4.2-7.27-5.9-1.65-.95-3.45-1.81-5.38-2.57l.51-179.47c1.93.76,3.73,1.62,5.38,2.57,2.94,1.7,5.4,3.68,7.27,5.9,2.58,3.06,3.88,6.35,3.88,9.65" stroke-width="0"/>
                  <path d="M557.12,642.71l-.51,179.47c-1.44-.57-2.96-1.08-4.54-1.53l.51-179.47c1.58.45,3.1.96,4.54,1.53" stroke-width="0"/>
                  <path d="M552.58,641.19l-.51,179.47c-1.3-.37-2.63-.7-4.01-.98l.51-179.47c1.38.29,2.72.61,4.01.98" stroke-width="0"/>
                  <path d="M548.57,640.2l-.51,179.47c-.15-.03-.3-.06-.45-.09l.51-179.47c.15.03.3.06.45.09" stroke-width="0"/>
                </g>
              </g>
            </g>
            <g isolation="isolate">
              <g clip-path="url(#clippath-3)">
                <g isolation="isolate">
                  <path d="M577.9,660.84l-.51,179.47c0,.12,0,.24,0,.37l.51-179.47c0-.12,0-.24,0-.37" stroke-width="0"/>
                  <path d="M577.89,661.21l-.51,179.47c-.02.79-.11,1.58-.27,2.36l.51-179.47c.16-.79.25-1.57.27-2.36" stroke-width="0"/>
                  <path d="M577.62,663.57l-.51,179.47c-.16.78-.38,1.57-.67,2.34l.51-179.47c.29-.78.52-1.56.67-2.34" stroke-width="0"/>
                  <path d="M576.95,665.92l-.51,179.47c-.3.81-.68,1.62-1.13,2.41l.51-179.47c.45-.8.83-1.6,1.13-2.41" stroke-width="0"/>
                  <path d="M575.81,668.33l-.51,179.47c-.06.11-.13.22-.19.34l.51-179.47c.07-.11.13-.22.19-.34" stroke-width="0"/>
                </g>
              </g>
            </g>
            <g isolation="isolate">
              <g clip-path="url(#clippath-4)">
                <g isolation="isolate">
                  <path d="M573.66,660.83l-.51,179.47c0,.11,0,.22,0,.33l.51-179.47c0-.11,0-.22,0-.33" fill="#6a152e" stroke-width="0"/>
                  <path d="M573.65,661.16l-.51,179.47c-.02.71-.1,1.42-.24,2.12l.51-179.47c.14-.71.22-1.42.24-2.12" fill="#6d162f" stroke-width="0"/>
                  <path d="M573.41,663.28l-.51,179.47c-.14.71-.34,1.41-.61,2.11l.51-179.47c.26-.7.46-1.4.61-2.11" fill="#711631" stroke-width="0"/>
                  <path d="M572.8,665.39l-.51,179.47c-.28.74-.62,1.47-1.03,2.2l.51-179.47c.41-.73.76-1.46,1.03-2.2" fill="#741733" stroke-width="0"/>
                  <path d="M571.77,667.59l-.51,179.47c-.05.09-.1.18-.16.27-.41.69-.87,1.37-1.39,2.03l.51-179.47c.52-.66.98-1.34,1.39-2.03.05-.09.11-.18.16-.27" fill="#781834" stroke-width="0"/>
                  <path d="M570.22,669.89l-.51,179.47c-.69.87-1.47,1.72-2.34,2.52l.51-179.47c.87-.8,1.65-1.65,2.34-2.52" fill="#7c1836" stroke-width="0"/>
                  <path d="M567.89,672.41l-.51,179.47c-1.34,1.24-2.89,2.39-4.63,3.45l.51-179.47c1.74-1.05,3.29-2.21,4.63-3.45" fill="#7f1937" stroke-width="0"/>
                  <path d="M563.26,675.86l-.51,179.47c-2.58,1.56-5.57,2.9-8.91,3.97l.51-179.47c3.33-1.07,6.33-2.41,8.91-3.97" fill="#831a39" stroke-width="0"/>
                  <path d="M554.35,679.83l-.51,179.47c-.58.19-1.18.37-1.78.54-1.75.49-3.54.9-5.36,1.23l.51-179.47c1.82-.33,3.61-.74,5.36-1.23.6-.17,1.2-.35,1.78-.54" fill="#7f1937" stroke-width="0"/>
                </g>
              </g>
            </g>
            <g isolation="isolate">
              <g clip-path="url(#clippath-5)">
                <g isolation="isolate">
                  <path d="M554.35,679.83l-.51,179.47c-.58.19-1.18.37-1.78.54-1.75.49-3.54.9-5.36,1.23l.51-179.47c1.82-.33,3.61-.74,5.36-1.23.6-.17,1.2-.35,1.78-.54" fill="#7f1937" stroke-width="0"/>
                </g>
              </g>
            </g>
            <polygon points="523.78 681.38 523.27 860.85 231.78 802.66 232.28 623.19 523.78 681.38" fill="#731732" stroke-width="0"/>
            <g isolation="isolate">
              <g clip-path="url(#clippath-6)">
                <g isolation="isolate">
                  <path d="M554.35,679.83l-.51,179.47c-.58.19-1.18.37-1.78.54-1.75.49-3.54.9-5.36,1.23l.51-179.47c1.82-.33,3.61-.74,5.36-1.23.6-.17,1.2-.35,1.78-.54" fill="#7f1937" stroke-width="0"/>
                  <path d="M547.2,681.6l-.51,179.47c-1.58.29-3.19.51-4.81.67l.51-179.47c1.62-.16,3.23-.38,4.81-.67" fill="#7c1836" stroke-width="0"/>
                  <path d="M542.39,682.27l-.51,179.47c-1.36.14-2.74.23-4.11.27l.51-179.47c1.38-.05,2.75-.14,4.11-.27" fill="#781834" stroke-width="0"/>
                  <path d="M538.28,682.55l-.51,179.47c-1.26.04-2.52.05-3.79.02l.51-179.47c1.26.03,2.53.03,3.79-.02" fill="#741733" stroke-width="0"/>
                  <path d="M534.49,682.56l-.51,179.47c-1.22-.03-2.44-.1-3.66-.2l.51-179.47c1.22.1,2.44.17,3.66.2" fill="#711631" stroke-width="0"/>
                  <path d="M530.84,682.37l-.51,179.47c-1.22-.1-2.44-.24-3.65-.41l.51-179.47c1.21.17,2.43.31,3.65.41" fill="#6d162f" stroke-width="0"/>
                  <path d="M527.18,681.96l-.51,179.47c-1.14-.16-2.28-.35-3.4-.58l.51-179.47c1.12.22,2.26.42,3.4.58" fill="#6a152e" stroke-width="0"/>
                </g>
              </g>
            </g>
            <polygon points="522.41 683.7 521.9 863.16 237.76 806.44 238.27 626.97 522.41 683.7" fill="#eaeaea" stroke="#000" stroke-miterlimit="10" stroke-width="2"/>
            <g isolation="isolate">
              <g clip-path="url(#clippath-7)">
                <g isolation="isolate">
                  <path d="M575.62,668.67l-.51,179.47c-.45.76-.96,1.51-1.53,2.24l.51-179.47c.57-.73,1.08-1.47,1.53-2.24" stroke-width="0"/>
                  <path d="M574.09,670.9l-.51,179.47c-.77.98-1.64,1.91-2.61,2.81l.51-179.47c.97-.9,1.84-1.84,2.61-2.81" stroke-width="0"/>
                  <path d="M571.48,673.71l-.51,179.47c-1.49,1.38-3.22,2.67-5.16,3.84l.51-179.47c1.94-1.17,3.67-2.46,5.16-3.84" stroke-width="0"/>
                  <path d="M566.32,677.56l-.51,179.47c-2.87,1.74-6.2,3.23-9.92,4.42l.51-179.47c3.71-1.19,7.05-2.68,9.92-4.42" stroke-width="0"/>
                  <path d="M556.4,681.98l-.51,179.47c-.64.21-1.3.4-1.96.59-1.95.55-3.95,1.01-5.99,1.38l.51-179.47c2.04-.37,4.04-.83,5.99-1.38.66-.19,1.32-.39,1.96-.59" stroke-width="0"/>
                  <path d="M548.45,683.95l-.51,179.47c-1.76.32-3.54.56-5.33.74l.51-179.47c1.8-.18,3.58-.43,5.33-.74" stroke-width="0"/>
                  <path d="M543.12,684.69l-.51,179.47c-1.51.15-3.03.25-4.56.3l.51-179.47c1.53-.05,3.05-.15,4.56-.3" stroke-width="0"/>
                  <path d="M538.55,684.99l-.51,179.47c-1.4.05-2.8.05-4.21.02l.51-179.47c1.4.04,2.81.03,4.21-.02" stroke-width="0"/>
                  <path d="M534.34,685.01l-.51,179.47c-1.36-.03-2.72-.11-4.08-.22l.51-179.47c1.36.11,2.72.18,4.08.22" stroke-width="0"/>
                  <path d="M530.27,684.79l-.51,179.47c-1.37-.11-2.73-.27-4.09-.46l.51-179.47c1.36.19,2.72.34,4.09.46" stroke-width="0"/>
                  <path d="M526.18,684.34l-.51,179.47c-1.27-.18-2.52-.39-3.77-.64l.51-179.47c1.25.25,2.51.46,3.77.64" stroke-width="0"/>
                </g>
              </g>
            </g>
            <g isolation="isolate">
              <g clip-path="url(#clippath-8)">
                <g isolation="isolate">
                  <path d="M787.17,762.54l-.51,179.47c-.02.72-.1,1.43-.24,2.14l.51-179.47c.14-.71.22-1.42.24-2.14" fill="#6d162f" stroke-width="0"/>
                  <path d="M786.93,764.68l-.51,179.47c-.14.71-.35,1.42-.61,2.11l.51-179.47c.26-.7.46-1.4.61-2.11" fill="#711631" stroke-width="0"/>
                  <path d="M786.32,766.8l-.51,179.47c-.27.73-.61,1.44-1.01,2.15l.51-179.47c.4-.7.73-1.42,1.01-2.15" fill="#741733" stroke-width="0"/>
                  <path d="M785.31,768.94l-.51,179.47c-.44.78-.95,1.54-1.54,2.29l.51-179.47c.59-.74,1.1-1.51,1.54-2.29" fill="#781834" stroke-width="0"/>
                  <path d="M783.77,771.23l-.51,179.47c-.69.88-1.49,1.73-2.38,2.55l.51-179.47c.89-.82,1.68-1.67,2.38-2.55" fill="#7c1836" stroke-width="0"/>
                  <path d="M781.4,773.79l-.51,179.47c-1.36,1.25-2.94,2.43-4.72,3.51l.51-179.47c1.78-1.08,3.36-2.25,4.72-3.51" fill="#7f1937" stroke-width="0"/>
                  <path d="M776.68,777.29l-.51,179.47c-2.51,1.52-5.43,2.84-8.7,3.9l.51-179.47c3.27-1.06,6.18-2.38,8.7-3.9" fill="#831a39" stroke-width="0"/>
                  <path d="M767.98,781.19l-.51,179.47c-2.05.67-4.24,1.23-6.56,1.67l.51-179.47c2.31-.44,4.51-1.01,6.56-1.67" fill="#7f1937" stroke-width="0"/>
                </g>
              </g>
            </g>
            <g isolation="isolate">
              <g clip-path="url(#clippath-9)">
                <g isolation="isolate">
                  <path d="M791.42,762.24l-.51,179.47c0,.12,0,.24,0,.36l.51-179.47c0-.12,0-.24,0-.36" stroke-width="0"/>
                  <path d="M791.41,762.6l-.51,179.47c-.02.8-.11,1.59-.27,2.37l.51-179.47c.16-.79.25-1.58.27-2.37" stroke-width="0"/>
                  <path d="M791.14,764.98l-.51,179.47c-.16.79-.38,1.57-.67,2.35l.51-179.47c.29-.77.52-1.56.67-2.35" stroke-width="0"/>
                  <path d="M790.46,767.32l-.51,179.47c-.3.81-.68,1.6-1.12,2.39l.51-179.47c.44-.78.82-1.58,1.12-2.39" stroke-width="0"/>
                  <path d="M789.35,769.71l-.51,179.47c-.49.87-1.06,1.71-1.71,2.54l.51-179.47c.65-.83,1.22-1.68,1.71-2.54" stroke-width="0"/>
                  <path d="M787.63,772.25l-.51,179.47c-.77.98-1.65,1.93-2.64,2.84l.51-179.47c.99-.91,1.87-1.86,2.64-2.84" stroke-width="0"/>
                  <path d="M784.99,775.09l-.51,179.47c-1.51,1.4-3.27,2.7-5.25,3.9l.51-179.47c1.98-1.2,3.74-2.51,5.25-3.9" stroke-width="0"/>
                  <path d="M779.74,778.99l-.51,179.47c-2.79,1.69-6.03,3.15-9.66,4.33l.51-179.47c3.63-1.18,6.87-2.64,9.66-4.33" stroke-width="0"/>
                  <path d="M770.08,783.32l-.51,179.47c-2.29.74-4.74,1.37-7.32,1.86l.51-179.47c2.59-.49,5.03-1.12,7.32-1.86" stroke-width="0"/>
                </g>
              </g>
            </g>
            <polygon points="303.68 790.29 303.17 969.76 231.78 802.66 232.28 623.19 303.68 790.29" stroke-width="0"/>
            <polygon points="230.53 800.64 230.03 980.11 143.88 778.47 144.39 599 230.53 800.64" fill="#5b1228" stroke-width="0"/>
            <polygon points="226.43 801.23 225.92 980.69 139.64 778.75 140.15 599.29 226.43 801.23" stroke-width="0"/>
            <g isolation="isolate">
              <g clip-path="url(#clippath-10)">
                <g isolation="isolate">
                  <path d="M304.8,795.61l-.51,179.47c0,.11,0,.22,0,.33l.51-179.47c0-.11,0-.22,0-.33" fill="#6a152e" stroke-width="0"/>
                  <path d="M304.8,795.94l-.51,179.47c-.02.71-.1,1.42-.24,2.12l.51-179.47c.14-.7.22-1.41.24-2.12" fill="#6d162f" stroke-width="0"/>
                  <path d="M304.55,798.06l-.51,179.47c-.14.7-.34,1.4-.6,2.09l.51-179.47c.26-.69.46-1.39.6-2.09" fill="#711631" stroke-width="0"/>
                  <path d="M303.95,800.15l-.51,179.47c-.27.71-.6,1.42-.99,2.12l.51-179.47c.39-.7.73-1.41.99-2.12" fill="#741733" stroke-width="0"/>
                  <path d="M302.96,802.27l-.51,179.47c-.43.76-.93,1.51-1.51,2.25l.51-179.47c.58-.74,1.08-1.49,1.51-2.25" fill="#781834" stroke-width="0"/>
                  <path d="M301.45,804.52l-.51,179.47c-.61.78-1.3,1.54-2.08,2.28-.1.1-.21.2-.31.29l.51-179.47c.1-.1.21-.19.31-.29.77-.74,1.47-1.5,2.08-2.28" fill="#7c1836" stroke-width="0"/>
                  <path d="M299.06,807.09l-.51,179.47c-1.39,1.28-2.98,2.47-4.75,3.54l.51-179.47c1.77-1.07,3.36-2.25,4.75-3.54" fill="#7f1937" stroke-width="0"/>
                  <path d="M294.31,810.62l-.51,179.47c-2.58,1.56-5.55,2.88-8.8,3.93l.51-179.47c3.26-1.05,6.22-2.37,8.8-3.93" fill="#831a39" stroke-width="0"/>
                  <path d="M285.51,814.55l-.51,179.47c-2.23.72-4.6,1.3-7.07,1.75l.51-179.47c2.48-.45,4.85-1.03,7.07-1.75" fill="#7f1937" stroke-width="0"/>
                  <path d="M278.43,816.3l-.51,179.47c-.75.13-1.5.26-2.27.37-.88.12-1.76.23-2.64.32l.51-179.47c.88-.09,1.76-.19,2.64-.32.77-.11,1.52-.23,2.27-.37" fill="#7c1836" stroke-width="0"/>
                  <path d="M273.52,816.99l-.51,179.47c-1.4.14-2.8.23-4.2.28l.51-179.47c1.4-.05,2.8-.14,4.2-.28" fill="#781834" stroke-width="0"/>
                  <path d="M269.32,817.27l-.51,179.47c-1.28.04-2.56.05-3.83.02l.51-179.47c1.27.03,2.55.03,3.83-.02" fill="#741733" stroke-width="0"/>
                  <path d="M265.49,817.28l-.51,179.47c-1.22-.03-2.44-.1-3.65-.2l.51-179.47c1.21.1,2.43.16,3.65.2" fill="#711631" stroke-width="0"/>
                  <path d="M261.84,817.09l-.51,179.47c-1.21-.1-2.41-.23-3.6-.4l.51-179.47c1.19.17,2.39.3,3.6.4" fill="#6d162f" stroke-width="0"/>
                  <path d="M258.24,816.69l-.51,179.47c-1.24-.18-2.47-.39-3.68-.64l.51-179.47c1.21.25,2.43.46,3.68.64" fill="#6a152e" stroke-width="0"/>
                  <path d="M254.56,816.05l-.51,179.47c-1.34-.28-2.65-.6-3.93-.96l.51-179.47c1.28.36,2.59.69,3.93.96" fill="#66142c" stroke-width="0"/>
                  <path d="M250.63,815.08l-.51,179.47c-1.57-.45-3.1-.96-4.56-1.54l.51-179.47c1.47.58,2.99,1.09,4.56,1.54" fill="#62132b" stroke-width="0"/>
                  <path d="M246.07,813.54l-.51,179.47c-1.96-.77-3.82-1.66-5.55-2.66-4.87-2.81-8.33-6.35-9.99-10.25l.51-179.47c1.65,3.89,5.12,7.44,9.99,10.25,1.73,1,3.59,1.89,5.55,2.66" fill="#5f1329" stroke-width="0"/>
                </g>
              </g>
            </g>
            <g isolation="isolate">
              <g clip-path="url(#clippath-11)">
                <g isolation="isolate">
                  <path d="M309.04,795.64l-.51,179.47c0,.12,0,.24,0,.37l.51-179.47c0-.12,0-.24,0-.37" stroke-width="0"/>
                  <path d="M309.03,796l-.51,179.47c-.02.79-.11,1.58-.27,2.36l.51-179.47c.16-.78.25-1.57.27-2.36" stroke-width="0"/>
                  <path d="M308.76,798.37l-.51,179.47c-.16.78-.38,1.55-.67,2.32l.51-179.47c.29-.77.51-1.54.67-2.32" stroke-width="0"/>
                  <path d="M308.09,800.68l-.51,179.47c-.3.79-.67,1.58-1.1,2.35l.51-179.47c.44-.77.81-1.56,1.1-2.35" stroke-width="0"/>
                  <path d="M306.99,803.04l-.51,179.47c-.48.84-1.04,1.68-1.68,2.49l.51-179.47c.64-.82,1.2-1.65,1.68-2.49" stroke-width="0"/>
                  <path d="M305.31,805.53l-.51,179.47c-.68.86-1.45,1.71-2.31,2.54-.11.11-.23.21-.34.32l.51-179.47c.12-.11.23-.21.34-.32.86-.83,1.63-1.67,2.31-2.54" stroke-width="0"/>
                  <path d="M302.66,808.39l-.51,179.47c-1.55,1.43-3.32,2.75-5.29,3.94l.51-179.47c1.97-1.19,3.75-2.51,5.29-3.94" stroke-width="0"/>
                  <path d="M297.37,812.33l-.51,179.47c-2.87,1.74-6.17,3.21-9.79,4.37l.51-179.47c3.62-1.16,6.92-2.63,9.79-4.37" stroke-width="0"/>
                  <path d="M287.58,816.7l-.51,179.47c-2.47.79-5.09,1.44-7.84,1.94l.51-179.47c2.75-.5,5.37-1.15,7.84-1.94" stroke-width="0"/>
                  <path d="M279.74,818.64l-.51,179.47c-.84.15-1.69.29-2.55.41-.98.14-1.97.26-2.96.36l.51-179.47c.99-.1,1.97-.22,2.96-.36.86-.12,1.71-.26,2.55-.41" stroke-width="0"/>
                  <path d="M274.23,819.41l-.51,179.47c-1.55.15-3.11.26-4.66.31l.51-179.47c1.55-.05,3.11-.16,4.66-.31" stroke-width="0"/>
                  <path d="M269.57,819.72l-.51,179.47c-1.42.05-2.84.05-4.25.02l.51-179.47c1.41.04,2.83.03,4.25-.02" stroke-width="0"/>
                  <path d="M265.31,819.74l-.51,179.47c-1.36-.03-2.72-.11-4.06-.22l.51-179.47c1.34.11,2.7.18,4.06.22" stroke-width="0"/>
                  <path d="M261.26,819.52l-.51,179.47c-1.35-.11-2.69-.26-4.01-.45l.51-179.47c1.32.19,2.66.34,4.01.45" stroke-width="0"/>
                  <path d="M257.25,819.07l-.51,179.47c-1.38-.2-2.75-.43-4.09-.71l.51-179.47c1.34.28,2.71.52,4.09.71" stroke-width="0"/>
                  <path d="M253.16,818.36l-.51,179.47c-1.49-.31-2.95-.67-4.37-1.07l.51-179.47c1.42.41,2.88.76,4.37,1.07" stroke-width="0"/>
                  <path d="M248.79,817.29l-.51,179.47c-1.75-.5-3.45-1.07-5.08-1.71l.51-179.47c1.63.64,3.33,1.21,5.08,1.71" stroke-width="0"/>
                  <path d="M243.71,815.57l-.51,179.47c-2.18-.86-4.25-1.85-6.17-2.96-5.42-3.13-9.27-7.06-11.11-11.39l.51-179.47c1.84,4.33,5.69,8.26,11.11,11.39,1.92,1.11,3.99,2.1,6.17,2.96" fill="#eaeaea" stroke="#000" stroke-miterlimit="10" stroke-width="2"/>
                </g>
              </g>
            </g>
            <polygon points="737.57 741.4 737.06 920.87 288.23 1006.71 288.74 827.24 737.57 741.4" stroke-width="0"/>
            <polygon points="761.42 782.86 760.91 962.33 312.06 1048.16 312.57 868.69 761.42 782.86" fill="#881b3b" stroke-width="0"/>
            <polygon points="762.76 785.19 762.25 964.65 313.4 1050.49 313.9 871.02 762.76 785.19" fill="#eaeaea" stroke="#000" stroke-miterlimit="10" stroke-width="2"/>
            <g isolation="isolate">
              <g clip-path="url(#clippath-12)">
                <g isolation="isolate">
                  <path d="M833.77,805.03l-.51,179.47c-1.9-3.18-4.98-6-8.98-8.31-1.66-.96-3.48-1.83-5.44-2.6l.51-179.47c1.96.77,3.78,1.64,5.44,2.6,4,2.31,7.07,5.13,8.98,8.31" stroke-width="0"/>
                  <path d="M819.35,794.12l-.51,179.47c-1.45-.57-2.98-1.09-4.59-1.55l.51-179.47c1.6.46,3.14.98,4.59,1.55" stroke-width="0"/>
                  <path d="M814.77,792.57l-.51,179.47c-.06-.02-.12-.03-.18-.05-1.26-.35-2.55-.67-3.85-.94l.51-179.47c1.3.27,2.59.58,3.85.94.06.02.12.03.18.05" stroke-width="0"/>
                  <path d="M810.74,791.59l-.51,179.47c-1.23-.26-2.48-.47-3.75-.65l.51-179.47c1.26.18,2.51.4,3.75.65" stroke-width="0"/>
                  <path d="M806.99,790.94l-.51,179.47c-1.2-.17-2.41-.31-3.63-.41l.51-179.47c1.22.1,2.43.24,3.63.41" stroke-width="0"/>
                  <path d="M803.36,790.53l-.51,179.47c-1.21-.1-2.43-.16-3.65-.2l.51-179.47c1.22.03,2.44.1,3.65.2" stroke-width="0"/>
                  <path d="M799.71,790.33l-.51,179.47c-1.26-.03-2.53-.03-3.79.02l.51-179.47c1.27-.04,2.53-.05,3.79-.02" stroke-width="0"/>
                  <path d="M795.92,790.35l-.51,179.47c-1.38.05-2.77.14-4.14.28l.51-179.47c1.38-.14,2.76-.23,4.14-.28" stroke-width="0"/>
                  <path d="M791.77,790.63l-.51,179.47c-1.64.16-3.28.39-4.89.68l.51-179.47c1.62-.29,3.25-.52,4.89-.68" stroke-width="0"/>
                  <path d="M786.88,791.31l-.51,179.47c-.37.07-.73.14-1.09.21-2.1.42-4.11.94-6.01,1.55l.51-179.47c1.9-.61,3.91-1.13,6.01-1.55.36-.07.73-.14,1.09-.21" stroke-width="0"/>
                  <path d="M779.78,793.07l-.51,179.47c-3.28,1.06-6.25,2.38-8.83,3.94l.51-179.47c2.58-1.56,5.54-2.89,8.83-3.94" stroke-width="0"/>
                  <path d="M770.95,797.01l-.51,179.47c-1.75,1.06-3.32,2.23-4.68,3.49l.51-179.47c1.36-1.26,2.93-2.43,4.68-3.49" stroke-width="0"/>
                  <path d="M766.27,800.49l-.51,179.47c-.73.67-1.4,1.38-2,2.1-.13.16-.26.32-.38.47l.51-179.47c.12-.16.25-.32.38-.47.61-.73,1.28-1.43,2-2.1" stroke-width="0"/>
                  <path d="M763.88,803.07l-.51,179.47c-.59.75-1.1,1.51-1.53,2.28l.51-179.47c.43-.77.95-1.53,1.53-2.28" stroke-width="0"/>
                  <path d="M762.35,805.35l-.51,179.47c-.4.7-.73,1.42-1,2.14l.51-179.47c.27-.72.6-1.43,1-2.14" stroke-width="0"/>
                  <path d="M761.35,807.49l-.51,179.47c-.26.69-.46,1.39-.6,2.09l.51-179.47c.14-.7.34-1.4.6-2.09" stroke-width="0"/>
                  <path d="M760.75,809.58l-.51,179.47c-.14.7-.22,1.41-.24,2.12l.51-179.47c.02-.71.1-1.42.24-2.12" stroke-width="0"/>
                  <path d="M760.51,811.7l-.51,179.47c0,.11,0,.22,0,.33l.51-179.47c0-.11,0-.22,0-.33" stroke-width="0"/>
                </g>
              </g>
            </g>
            <g isolation="isolate">
              <g clip-path="url(#clippath-13)">
                <g isolation="isolate">
                  <path d="M762.62,819.27l-.51,179.47c-1.43-2.37-2.13-4.81-2.12-7.25l.51-179.47c0,2.43.7,4.88,2.12,7.25" fill="#5f1329" stroke-width="0"/>
                </g>
              </g>
            </g>
            <path d="M562.51,645.29c2.94,1.7,5.4,3.68,7.27,5.9,4.44,5.25,5.09,11.17,1.83,16.68-3.24,5.52-10.02,9.96-19.05,12.51-9.04,2.54-19.26,2.91-28.78,1.01l-291.5-58.19,71.4,167.1c2.42,5.66.89,11.53-4.31,16.5-5.2,4.98-13.44,8.48-23.21,9.87-12.9,1.83-26.21-.34-35.64-5.78-4.87-2.81-8.33-6.35-9.99-10.25l-86.14-201.64-.03-2.63c-.04-8.65,7.26-16.75,19.55-21.66,11.99-4.79,27.35-5.95,41.14-3.08l343.07,68.49c5.5,1.09,10.38,2.87,14.38,5.18Z" fill="#a168d5" stroke-width="0"/>
            <g isolation="isolate">
              <g clip-path="url(#clippath-14)">
                <g isolation="isolate">
                  <path d="M758.61,820.07l-.51,179.47c-1.58-2.63-2.36-5.35-2.35-8.06l.51-179.47c0,2.71.77,5.42,2.35,8.06" stroke-width="0"/>
                </g>
              </g>
            </g>
            <path d="M575.62,668.67c-3.62,6.13-11.15,11.07-21.18,13.91-10.06,2.84-21.42,3.24-32.03,1.12l-284.13-56.72,69.52,162.73c2.69,6.3,1,12.82-4.79,18.36-5.79,5.54-14.96,9.44-25.82,10.98-14.34,2.04-29.16-.37-39.64-6.43-5.42-3.13-9.27-7.06-11.11-11.39l-86.28-201.94-.02-2.92c-.05-9.46,7.94-18.31,21.35-23.68,13.12-5.24,29.91-6.5,44.95-3.37l343.06,68.48c6.11,1.22,11.55,3.19,16.01,5.77,3.26,1.88,6,4.09,8.08,6.56,4.92,5.83,5.66,12.42,2.03,18.55ZM552.57,680.37c9.03-2.55,15.8-6.99,19.05-12.51,3.26-5.51,2.6-11.42-1.83-16.68-1.88-2.22-4.34-4.2-7.27-5.9-4-2.31-8.88-4.08-14.38-5.18l-343.07-68.49c-13.78-2.87-29.15-1.71-41.14,3.08-12.29,4.92-19.58,13.01-19.55,21.66l.03,2.63,86.14,201.64c1.65,3.89,5.12,7.44,9.99,10.25,9.43,5.45,22.74,7.61,35.64,5.78,9.77-1.39,18.01-4.89,23.21-9.87,5.2-4.98,6.73-10.85,4.31-16.5l-71.4-167.1,291.5,58.19c9.52,1.9,19.75,1.54,28.78-1.01" stroke-width="0"/>
            <g isolation="isolate">
              <g clip-path="url(#clippath-15)">
                <g isolation="isolate">
                  <path d="M288.74,827.24l-.51,179.47c-2.28.44-4.46.99-6.52,1.65l.51-179.47c2.06-.66,4.24-1.21,6.52-1.65" stroke-width="0"/>
                  <path d="M282.21,828.89l-.51,179.47c-3.27,1.05-6.24,2.37-8.81,3.93l.51-179.47c2.57-1.55,5.53-2.88,8.81-3.93" stroke-width="0"/>
                  <path d="M273.41,832.82l-.51,179.47c-1.76,1.06-3.34,2.23-4.71,3.5l.51-179.47c1.37-1.27,2.95-2.44,4.71-3.5" stroke-width="0"/>
                  <path d="M268.7,836.32l-.51,179.47c-.63.59-1.22,1.19-1.77,1.82-.21.24-.4.48-.59.72l.51-179.47c.19-.24.39-.48.59-.72.54-.63,1.13-1.23,1.77-1.82" stroke-width="0"/>
                  <path d="M266.34,838.86l-.51,179.47c-.59.75-1.1,1.51-1.53,2.28l.51-179.47c.43-.77.95-1.53,1.53-2.28" stroke-width="0"/>
                  <path d="M264.81,841.14l-.51,179.47c-.4.7-.73,1.42-1,2.14l.51-179.47c.27-.72.6-1.43,1-2.14" stroke-width="0"/>
                  <path d="M263.8,843.28l-.51,179.47c-.26.69-.46,1.39-.6,2.09l.51-179.47c.14-.7.34-1.4.6-2.09" stroke-width="0"/>
                  <path d="M263.2,845.37l-.51,179.47c-.14.71-.22,1.41-.24,2.12l.51-179.47c.02-.71.1-1.42.24-2.12" stroke-width="0"/>
                  <path d="M262.96,847.5l-.51,179.47c0,.11,0,.22,0,.33l.51-179.47c0-.11,0-.22,0-.33" stroke-width="0"/>
                </g>
              </g>
            </g>
            <g isolation="isolate">
              <g clip-path="url(#clippath-16)">
                <g isolation="isolate">
                  <path d="M279.57,866.03l-.51,179.47c-1.95-.77-3.79-1.65-5.51-2.64-4.19-2.42-7.28-5.31-9.16-8.58-1.31-2.29-1.96-4.64-1.96-6.98l.51-179.47c0,2.34.64,4.69,1.96,6.98,1.88,3.28,4.97,6.16,9.16,8.58,1.71.99,3.56,1.87,5.51,2.64" fill="#5f1329" stroke-width="0"/>
                </g>
              </g>
            </g>
            <g isolation="isolate">
              <g clip-path="url(#clippath-17)">
                <g isolation="isolate">
                  <path d="M312.57,868.69l-.51,179.47c-.19.04-.39.07-.58.11l.51-179.47c.19-.04.39-.07.58-.11" fill="#7f1937" stroke-width="0"/>
                  <path d="M311.99,868.8l-.51,179.47c-1.62.29-3.26.52-4.91.68l.51-179.47c1.64-.16,3.28-.39,4.91-.68" fill="#7c1836" stroke-width="0"/>
                  <path d="M307.08,869.49l-.51,179.47c-1.39.14-2.78.23-4.17.28l.51-179.47c1.39-.05,2.78-.14,4.17-.28" fill="#781834" stroke-width="0"/>
                  <path d="M302.91,869.76l-.51,179.47c-1.28.04-2.56.05-3.83.02l.51-179.47c1.27.03,2.55.03,3.83-.02" fill="#741733" stroke-width="0"/>
                  <path d="M299.09,869.78l-.51,179.47c-1.23-.03-2.45-.1-3.67-.2l.51-179.47c1.21.1,2.44.17,3.67.2" fill="#711631" stroke-width="0"/>
                  <path d="M295.42,869.59l-.51,179.47c-1.22-.1-2.43-.24-3.62-.4l.51-179.47c1.19.17,2.4.3,3.62.4" fill="#6d162f" stroke-width="0"/>
                  <path d="M291.8,869.18l-.51,179.47c-1.25-.18-2.48-.39-3.7-.64l.51-179.47c1.21.25,2.45.47,3.7.64" fill="#6a152e" stroke-width="0"/>
                  <path d="M288.1,868.54l-.51,179.47c-1.34-.28-2.66-.6-3.95-.97l.51-179.47c1.29.37,2.61.69,3.95.97" fill="#66142c" stroke-width="0"/>
                  <path d="M284.15,867.57l-.51,179.47c-1.58-.45-3.11-.97-4.58-1.55l.51-179.47c1.47.58,3,1.1,4.58,1.55" fill="#62132b" stroke-width="0"/>
                  <path d="M279.57,866.03l-.51,179.47c-1.95-.77-3.79-1.65-5.51-2.64-4.19-2.42-7.28-5.31-9.16-8.58-1.31-2.29-1.96-4.64-1.96-6.98l.51-179.47c0,2.34.64,4.69,1.96,6.98,1.88,3.28,4.97,6.16,9.16,8.58,1.71.99,3.56,1.87,5.51,2.64" fill="#5f1329" stroke-width="0"/>
                </g>
              </g>
            </g>
            <g isolation="isolate">
              <g clip-path="url(#clippath-18)">
                <g isolation="isolate">
                  <path d="M313.9,871.02l-.51,179.47c-.23.04-.47.09-.7.13l.51-179.47c.24-.04.47-.09.7-.13" stroke-width="0"/>
                  <path d="M313.2,871.15l-.51,179.47c-1.8.33-3.62.58-5.45.76l.51-179.47c1.83-.18,3.64-.43,5.45-.76" stroke-width="0"/>
                  <path d="M307.75,871.91l-.51,179.47c-1.54.15-3.09.26-4.63.31l.51-179.47c1.54-.05,3.09-.16,4.63-.31" stroke-width="0"/>
                  <path d="M303.13,872.22l-.51,179.47c-1.42.05-2.84.05-4.25.02l.51-179.47c1.41.04,2.83.03,4.25-.02" stroke-width="0"/>
                  <path d="M298.88,872.24l-.51,179.47c-1.36-.03-2.72-.11-4.07-.22l.51-179.47c1.35.11,2.71.18,4.07.22" stroke-width="0"/>
                  <path d="M294.81,872.02l-.51,179.47c-1.35-.11-2.7-.26-4.02-.45l.51-179.47c1.33.19,2.67.34,4.02.45" stroke-width="0"/>
                  <path d="M290.79,871.57l-.51,179.47c-1.39-.2-2.76-.43-4.11-.71l.51-179.47c1.35.28,2.72.52,4.11.71" stroke-width="0"/>
                  <path d="M286.68,870.86l-.51,179.47c-1.49-.31-2.96-.67-4.39-1.07l.51-179.47c1.43.41,2.9.77,4.39,1.07" stroke-width="0"/>
                  <path d="M282.29,869.78l-.51,179.47c-1.75-.5-3.46-1.07-5.1-1.72l.51-179.47c1.64.65,3.34,1.22,5.1,1.72" stroke-width="0"/>
                  <path d="M277.2,868.06l-.51,179.47c-2.17-.85-4.22-1.83-6.13-2.94-4.68-2.7-8.09-5.91-10.2-9.56-1.47-2.55-2.16-5.15-2.15-7.7l.51-179.47c0,2.55.69,5.15,2.15,7.7,2.11,3.64,5.52,6.86,10.2,9.56,1.91,1.1,3.96,2.08,6.13,2.94" fill="#eaeaea" stroke="#000" stroke-miterlimit="10" stroke-width="2"/>
                </g>
              </g>
            </g>
            <path d="M789.26,754.53c7.32,12.7-4.58,26.46-26.5,30.65l-448.85,85.83c-15.11,2.9-31.52.64-42.83-5.89-4.68-2.7-8.09-5.91-10.2-9.56-7.31-12.71,4.59-26.47,26.52-30.66l448.85-85.83c10.62-2.04,21.98-1.54,32,1.38,4.06,1.18,7.71,2.71,10.84,4.52,4.58,2.65,8.07,5.89,10.17,9.56ZM761.42,782.86c19.7-3.78,30.38-16.14,23.82-27.56-1.9-3.29-5.03-6.22-9.14-8.59-2.82-1.63-6.11-3-9.76-4.07-9-2.63-19.22-3.07-28.77-1.24l-448.84,85.84c-9.55,1.83-17.29,5.7-21.8,10.9-4.48,5.21-5.21,11.12-2.02,16.66,1.88,3.28,4.97,6.17,9.16,8.58,10.16,5.87,24.91,7.9,38.51,5.31l448.85-85.83" stroke-width="0"/>
            <path d="M776.1,746.71c4.11,2.37,7.24,5.3,9.14,8.59,6.56,11.42-4.12,23.79-23.83,27.56l-448.85,85.83c-13.59,2.59-28.34.56-38.51-5.31-4.19-2.42-7.28-5.31-9.16-8.58-3.18-5.54-2.46-11.46,2.02-16.66,4.51-5.21,12.25-9.08,21.8-10.9l448.84-85.84c9.55-1.83,19.77-1.39,28.77,1.24,3.66,1.07,6.94,2.43,9.76,4.07Z" fill="#a168d5" stroke-width="0"/>
            <g isolation="isolate">
              <g clip-path="url(#clippath-19)">
                <g isolation="isolate">
                  <path d="M552.96,939.16l-.51,179.47c-.25-.04-.5-.07-.74-.11l.51-179.47c.25.04.5.07.74.11" stroke-width="0"/>
                  <path d="M552.22,939.05l-.51,179.47c-1.23-.17-2.45-.31-3.68-.41l.51-179.47c1.23.1,2.45.24,3.68.41" stroke-width="0"/>
                  <path d="M548.54,938.64l-.51,179.47c-1.23-.1-2.46-.17-3.68-.2l.51-179.47c1.22.03,2.45.1,3.68.2" stroke-width="0"/>
                  <path d="M544.86,938.44l-.51,179.47c-1.27-.03-2.54-.03-3.79.02l.51-179.47c1.26-.04,2.52-.05,3.79-.02" stroke-width="0"/>
                  <path d="M541.07,938.46l-.51,179.47c-1.4.05-2.79.14-4.16.28l.51-179.47c1.37-.14,2.76-.23,4.16-.28" stroke-width="0"/>
                  <path d="M536.91,938.74l-.51,179.47c-1.63.16-3.23.39-4.79.67l.51-179.47c1.56-.28,3.17-.51,4.79-.67" stroke-width="0"/>
                  <path d="M532.11,939.4l-.51,179.47c-2.49.45-4.9,1.05-7.17,1.78l.51-179.47c2.27-.73,4.67-1.33,7.17-1.78" stroke-width="0"/>
                  <path d="M524.95,941.19l-.51,179.47c-3.23,1.04-6.19,2.36-8.78,3.91l.51-179.47c2.58-1.55,5.55-2.87,8.78-3.91" stroke-width="0"/>
                  <path d="M516.17,945.09l-.51,179.47c-1.78,1.07-3.38,2.25-4.76,3.52l.51-179.47c1.38-1.28,2.98-2.46,4.76-3.52" stroke-width="0"/>
                  <path d="M511.41,948.62l-.51,179.47c-.87.8-1.66,1.65-2.35,2.53l.51-179.47c.69-.88,1.48-1.72,2.35-2.53" stroke-width="0"/>
                  <path d="M509.06,951.14l-.51,179.47c-.57.73-1.08,1.48-1.51,2.25l.51-179.47c.44-.77.94-1.52,1.51-2.25" stroke-width="0"/>
                  <path d="M507.55,953.39l-.51,179.47c-.23.4-.44.81-.63,1.23-.14.31-.27.62-.39.93l.51-179.47c.12-.31.24-.62.39-.93.19-.42.4-.83.63-1.23" stroke-width="0"/>
                  <path d="M506.53,955.55l-.51,179.47c-.26.69-.46,1.39-.6,2.09l.51-179.47c.14-.7.34-1.4.6-2.09" stroke-width="0"/>
                  <path d="M505.93,957.65l-.51,179.47c-.14.71-.22,1.42-.24,2.14l.51-179.47c.02-.71.1-1.43.24-2.14" stroke-width="0"/>
                  <path d="M505.69,959.78l-.51,179.47c0,.11,0,.22,0,.33l.51-179.47c0-.11,0-.22,0-.33" stroke-width="0"/>
                </g>
              </g>
            </g>
            <g isolation="isolate">
              <g clip-path="url(#clippath-20)">
                <g isolation="isolate">
                  <path d="M530.8,980.8l-.51,179.47c-1.36-.28-2.69-.61-3.99-.98l.51-179.47c1.29.37,2.62.69,3.99.98" fill="#66142c" stroke-width="0"/>
                  <path d="M526.81,979.83l-.51,179.47c-1.58-.45-3.11-.97-4.57-1.54l.51-179.47c1.46.57,2.99,1.09,4.57,1.54" fill="#62132b" stroke-width="0"/>
                  <path d="M522.24,978.29l-.51,179.47c-1.94-.76-3.75-1.63-5.42-2.59-7.22-4.17-11.15-9.82-11.13-15.58l.51-179.47c-.02,5.76,3.92,11.42,11.13,15.58,1.67.96,3.48,1.83,5.42,2.59" fill="#5f1329" stroke-width="0"/>
                </g>
              </g>
            </g>
            <g isolation="isolate">
              <g clip-path="url(#clippath-21)">
                <g isolation="isolate">
                  <path d="M533.76,981.34l-.51,179.47c-1-.15-1.99-.33-2.96-.53l.51-179.47c.97.2,1.96.38,2.96.53" fill="#6a152e" stroke-width="0"/>
                  <path d="M530.8,980.8l-.51,179.47c-1.36-.28-2.69-.61-3.99-.98l.51-179.47c1.29.37,2.62.69,3.99.98" fill="#66142c" stroke-width="0"/>
                </g>
              </g>
            </g>
            <polygon points="953.15 1003.55 952.64 1183.02 833.26 984.5 833.77 805.03 953.15 1003.55" stroke-width="0"/>
            <polygon points="863.54 987.12 863.04 1166.59 762.12 998.74 762.62 819.27 863.54 987.12" fill="#5b1228" stroke-width="0"/>
            <polygon points="856.92 983.56 856.41 1163.03 758.1 999.54 758.61 820.07 856.92 983.56" stroke-width="0"/>
            <g isolation="isolate">
              <g clip-path="url(#clippath-22)">
                <g isolation="isolate">
                  <path d="M532.68,983.7l-.51,179.47c-1.13-.17-2.24-.37-3.33-.6l.51-179.47c1.09.23,2.21.43,3.33.6" stroke-width="0"/>
                  <path d="M529.35,983.1l-.51,179.47c-1.5-.31-2.97-.67-4.39-1.08l.51-179.47c1.43.41,2.89.77,4.39,1.08" stroke-width="0"/>
                  <path d="M524.95,982.03l-.51,179.47c-1.76-.5-3.45-1.07-5.07-1.71l.51-179.47c1.62.64,3.31,1.21,5.07,1.71" stroke-width="0"/>
                  <path d="M519.88,980.32l-.51,179.47c-2.16-.85-4.19-1.82-6.04-2.89-8.03-4.64-12.41-10.93-12.39-17.34l.51-179.47c-.02,6.41,4.36,12.7,12.39,17.34,1.86,1.07,3.88,2.04,6.04,2.89" stroke-width="0"/>
                </g>
              </g>
            </g>
            <polygon points="863.54 987.12 863.04 1166.59 552.45 1118.63 552.96 939.16 863.54 987.12" stroke-width="0"/>
            <polygon points="882.06 1018.21 881.55 1197.68 881.53 1197.67 882.04 1018.21 882.06 1018.21" fill="#62132a" stroke-width="0"/>
            <polygon points="882.04 1018.21 881.53 1197.67 878.57 1199.41 879.07 1019.95 882.04 1018.21" fill="#8c1c3d" stroke-width="0"/>
            <polygon points="882.05 1018.21 881.55 1197.68 878.57 1199.41 879.07 1019.95 882.05 1018.21" stroke-width="0"/>
            <path d="M947.96,1027.38c-8.45,7.13-22.39,11.39-37.35,11.39h-4.93s-371.92-57.42-371.92-57.42c-6.4-.99-12.26-2.94-16.94-5.64-9.52-5.49-13.32-13.57-9.9-21.07,5.3-11.63,25.94-18.56,46.04-15.47l310.58,47.96-100.92-167.84c-3.32-5.51-2.73-11.44,1.64-16.68,4.38-5.24,12.02-9.18,21.52-11.08,9.51-1.9,19.73-1.54,28.8,1.01,3.85,1.08,7.28,2.5,10.21,4.2,4,2.31,7.07,5.13,8.98,8.31l119.38,198.52c4.99,7.95,3.05,16.86-5.19,23.82ZM879.07,1019.95l2.98-1.73h-.01s-2.97,1.73-2.97,1.73" fill="#a168d5" stroke-width="0"/>
            <polygon points="879.07 1019.95 882.04 1018.21 882.05 1018.21 879.07 1019.95" stroke-width="0"/>
            <g isolation="isolate">
              <g clip-path="url(#clippath-23)">
                <g isolation="isolate">
                  <path d="M947.96,1027.38l-.51,179.47c-1.41,1.19-2.98,2.3-4.67,3.33l.51-179.47c1.7-1.02,3.26-2.14,4.67-3.33" fill="#7f1937" stroke-width="0"/>
                </g>
              </g>
            </g>
            <g isolation="isolate">
              <g clip-path="url(#clippath-24)">
                <g isolation="isolate">
                  <path d="M960.1,1012.58l-.51,179.47c0,.15,0,.29,0,.44l.51-179.47c0-.15,0-.29,0-.44" stroke-width="0"/>
                  <path d="M960.1,1013.02l-.51,179.47c-.03.95-.14,1.9-.33,2.85l.51-179.47c.19-.94.3-1.9.33-2.85" stroke-width="0"/>
                  <path d="M959.77,1015.86l-.51,179.47c-.19.94-.46,1.87-.8,2.8l.51-179.47c.35-.92.61-1.86.8-2.8" stroke-width="0"/>
                  <path d="M958.97,1018.66l-.51,179.47c-.36.95-.8,1.9-1.32,2.83l.51-179.47c.52-.93.97-1.87,1.32-2.83" stroke-width="0"/>
                  <path d="M957.64,1021.49l-.51,179.47c-.57,1.01-1.23,2-2,2.97l.51-179.47c.76-.97,1.43-1.96,2-2.97" stroke-width="0"/>
                  <path d="M955.65,1024.45l-.51,179.47c-.89,1.13-1.91,2.23-3.06,3.3l.51-179.47c1.15-1.07,2.17-2.17,3.06-3.3" stroke-width="0"/>
                  <path d="M952.59,1027.75l-.51,179.47c-.37.34-.75.68-1.14,1.01l.51-179.47c.39-.33.78-.67,1.14-1.01" stroke-width="0"/>
                </g>
              </g>
            </g>
            <g isolation="isolate">
              <g clip-path="url(#clippath-25)">
                <g isolation="isolate">
                  <path d="M947.96,1027.38l-.51,179.47c-1.41,1.19-2.98,2.3-4.67,3.33l.51-179.47c1.7-1.02,3.26-2.14,4.67-3.33" fill="#7f1937" stroke-width="0"/>
                  <path d="M943.29,1030.7l-.51,179.47c-3.14,1.9-6.74,3.5-10.66,4.76l.51-179.47c3.92-1.26,7.52-2.86,10.66-4.76" fill="#831a39" stroke-width="0"/>
                  <path d="M932.63,1035.46l-.51,179.47c-2.7.87-5.56,1.58-8.53,2.11l.51-179.47c2.97-.53,5.82-1.24,8.53-2.11" fill="#7f1937" stroke-width="0"/>
                  <path d="M924.1,1037.57l-.51,179.47c-1.89.34-3.83.61-5.8.81l.51-179.47c1.97-.2,3.91-.47,5.8-.81" fill="#7c1836" stroke-width="0"/>
                </g>
              </g>
            </g>
            <polygon points="910.61 1038.76 910.1 1218.23 905.17 1218.23 905.68 1038.76 910.61 1038.76" fill="#7f1937" stroke-width="0"/>
            <polygon points="905.68 1038.76 905.17 1218.23 533.25 1160.8 533.76 981.34 905.68 1038.76" fill="#761733" stroke-width="0"/>
            <polygon points="904.87 1041.17 904.36 1220.64 532.17 1163.17 532.68 983.7 904.87 1041.17" stroke-width="0"/>
            <path d="M951.44,1028.76c-9.21,7.8-24.48,12.45-40.82,12.45l-5.75-.04-372.19-57.47c-7.12-1.09-13.64-3.27-18.84-6.27-10.58-6.11-14.82-15.09-11.02-23.44,5.9-12.93,28.86-20.64,51.2-17.2l302.9,46.77-98.31-163.49c-3.67-6.13-3.04-12.72,1.85-18.55,4.86-5.83,13.36-10.21,23.94-12.31,10.58-2.12,21.95-1.72,32.03,1.12,4.26,1.2,8.08,2.78,11.34,4.67,4.45,2.57,7.87,5.71,10.01,9.25l119.36,198.5c5.42,8.69,3.32,18.42-5.7,26.03ZM910.61,1038.76c14.95,0,28.9-4.25,37.35-11.39,8.23-6.96,10.18-15.87,5.19-23.82l-119.38-198.52c-1.9-3.18-4.98-6-8.98-8.31-2.93-1.69-6.36-3.11-10.21-4.2-9.07-2.54-19.28-2.9-28.8-1.01-9.5,1.9-17.14,5.84-21.52,11.08-4.38,5.24-4.96,11.17-1.64,16.68l100.92,167.85-310.59-47.96c-20.1-3.1-40.75,3.84-46.04,15.47-3.42,7.5.38,15.58,9.9,21.07,4.68,2.7,10.53,4.65,16.94,5.64l371.92,57.42h4.93" stroke-width="0"/>
            <g isolation="isolate">
              <g clip-path="url(#clippath-26)">
                <g isolation="isolate">
                  <path d="M951.44,1028.76l-.51,179.47c-1.54,1.31-3.26,2.53-5.12,3.65l.51-179.47c1.86-1.12,3.58-2.34,5.12-3.65" stroke-width="0"/>
                  <path d="M946.32,1032.41l-.51,179.47c-3.43,2.07-7.36,3.82-11.64,5.19l.51-179.47c4.28-1.38,8.21-3.12,11.64-5.19" fill="#eaeaea" stroke="#000" stroke-miterlimit="10" stroke-width="2"/>
                  <path d="M934.68,1037.61l-.51,179.47c-2.95.95-6.07,1.72-9.31,2.31l.51-179.47c3.24-.58,6.36-1.36,9.31-2.31" stroke-width="0"/>
                  <path d="M925.37,1039.92l-.51,179.47c-2.07.37-4.18.67-6.33.88l.51-179.47c2.15-.21,4.26-.51,6.33-.88" stroke-width="0"/>
                  <path d="M919.04,1040.8l-.51,179.47c-1.8.18-3.62.3-5.46.36l.51-179.47c1.84-.06,3.67-.18,5.46-.36" fill="#eaeaea" stroke="#000" stroke-miterlimit="10" stroke-width="2"/>
                  <path d="M913.58,1041.16l-.51,179.47c-.98.03-1.97.05-2.95.05l.51-179.47c.99,0,1.97-.02,2.95-.05" stroke-width="0"/>
                </g>
              </g>
            </g>
            <polygon points="910.62 1041.21 910.12 1220.68 904.36 1220.64 904.87 1041.17 910.62 1041.21" stroke-width="0"/>
          </g>
        </g>
        <path d="M873.61,286.07c-3.82-2.94-6.37-7.18-9.43-10.9s-7.08-7.18-11.89-7.46c-1.57-.09-3.27.23-4.35,1.36-1.02,1.06-1.31,2.61-1.47,4.06-1.3,11.35,2.18,23.18,9.42,32.02,1.76,2.15,4.87,4.25,7.06,2.54,2.64-2.07.44-7.2,3.12-9.22,1.77-1.33,5.54-.74,7.68-1.29,3.02-.78,4.68-2.93,4.54-5.86-.12-2.52-2.74-3.62-4.67-5.24Z" fill="#70504d" opacity=".74" stroke-width="0"/>
        <path d="M943.65,296.51c-2.35-4.26-3.64-9.07-6.22-13.19-1.24-1.99-3.21-3.98-5.54-3.68-1.86.25-3.24,1.97-3.67,3.79-.43,1.82-.11,3.73.24,5.56,1.45,7.5,3.49,15.03,7.61,21.47,3.52,5.49,18.85,19.83,24.25,9.76,4.88-9.11-13.16-17.33-16.68-23.71Z" fill="#70504d" opacity=".74" stroke-width="0"/>
      </g>
      <g>
        <path d="M376.69,285.17c-14.28-38.52-34.05-46.17-56.85-37.94-1.48.53-2.9-.88-2.33-2.35,7.22-18.67,7.08-39.78-5.97-62.88h0s0,0,0,0c-5.94-10.56-12.8-17.14-20.33-20.62-.39-.18-.7-.48-.88-.87l1.95-4.89c-.38-.82-1.29-1.24-2.16-.99l-24.32,5.11h0c-9.63,2.37-19.81,7.5-30.26,14.31-.94.61-2.2.26-2.66-.75l-13.09-28.47c-.56-1.22.34-2.61,1.68-2.59l11.89.14c1,.01,1.83-.79,1.85-1.79l.37-16.68c.04-1.91-1.7-3.36-3.57-2.97l-20.72,4.34c-.29.06-.56.19-.79.38l-20.89,17.23c-.63.52-.84,1.4-.51,2.15l3.23,7.27c.48,1.08-.18,2.33-1.35,2.54l-20.25,3.6h0l-21.21,17.49c-.64.53-.84,1.42-.5,2.17l21.74,47.31c.34.74.14,1.62-.47,2.15-4.41,3.8-8.75,7.53-13.03,11.06l-.07-.15-29.68,24.46c-.64.53-.85,1.42-.5,2.17l13.7,29.8c.36.77,1.2,1.2,2.04,1.03l22.94-4.81c.3-.06.57-.2.8-.39l8.47-7.13c.5.59.97,1.21,1.4,1.84.07.09.12.2.17.3l25.1,54.61c.47,1.02,1.27,2.76,1.61,3.51l35.92,78.17c.03.07.06.15.09.22,1.37,4.21,2.46,11.67-3.8,16.85.38.09-11.71,9.77-15.25,12.6-.59.47-.82,1.24-.6,1.96l11.37,37.11c.28.9,1.2,1.45,2.12,1.25l22.47-4.71c.46-.1.87-.37,1.14-.76l11.43-16.78c.54-.79.38-1.86-.37-2.45l-1.19-.96c-.91-.73-.9-2.12,0-2.85,2.73-2.21,5.44-4.39,8.12-6.56.93-.75,2.3-.42,2.8.66l21.59,46.95c.36.77,1.2,1.2,2.04,1.03l22.37-4.69c.64-.13,1.15-.6,1.36-1.21l5.45-16.4c.32-.95-.19-1.98-1.14-2.3-2.59-.88-7.62-2.59-11.45-4.01-.46-.17-.81-.51-1.01-.95l-17.04-37.08c-.35-.77-.13-1.68.53-2.2,5.14-4.06,10.12-8.08,14.97-12.06.93-.76,2.31-.44,2.81.65l21.21,46.18c.36.78,1.2,1.2,2.04,1.03l22.02-4.62c.81-.17,1.41-.86,1.45-1.69l.87-16.22c.06-1.18-.98-2.11-2.14-1.9-.72.13-1.57.28-2.51.45-.82.15-1.64-.28-1.99-1.04l-19.4-42.23c-.33-.71-.16-1.55.41-2.09,35.56-33.56,55.37-67.89,36.78-118.03ZM192.17,205.12l-13.34-29.04c-.52-1.12.21-2.42,1.43-2.58l11.13-1.42c.81-.1,1.46-.73,1.58-1.54l1.03-6.87c.27-1.8,2.71-2.14,3.47-.49l12.81,27.86c.35.75.15,1.63-.49,2.16-4.9,4.06-9.84,8.3-14.75,12.53-.92.79-2.34.48-2.85-.62ZM236.96,301l-26.28-57.18c-.34-.74-.15-1.62.47-2.15,13.49-11.47,49.03-46.62,65.03-11.82h0c15.06,32.78-22.12,60.38-36.42,71.81-.93.74-2.3.41-2.8-.67ZM281.71,398.37l-29.13-63.39c-.34-.74-.15-1.62.47-2.15,16.05-13.55,59.15-55.7,76.81-17.28h0c16.69,36.28-28.51,69.91-45.36,83.5-.93.75-2.3.41-2.79-.67Z" fill="#f7931a" stroke="#000" stroke-miterlimit="10" stroke-width="3.9"/>
        <g clip-path="url(#clippath-27)">
          <polygon points="279.45 240.59 304.48 238.75 300.35 183.89 243.08 193.93 279.45 240.59" stroke="#000" stroke-miterlimit="10" stroke-width="3.9"/>
          <polygon points="180.81 146.09 229.55 135.87 249.29 185.51 200.19 189.19 180.81 146.09" stroke="#000" stroke-miterlimit="10" stroke-width="3.9"/>
          <polygon points="140.2 177.34 182.04 170.6 204.59 221.09 161.47 227.84 140.2 177.34" stroke="#000" stroke-miterlimit="10" stroke-width="3.9"/>
          <polygon points="266.9 262.22 311.39 262.05 291.74 281.19 259.33 275.89 266.9 262.22" stroke="#000" stroke-miterlimit="10" stroke-width="3.9"/>
          <path d="M322.27,333.73l48.5-.08s-9.05,32.87-27.79,48.67l-43.14-5.2,22.44-43.38Z" stroke="#000" stroke-miterlimit="10" stroke-width="3.9"/>
          <polygon points="210.26 453.23 256.16 445.64 282.23 416.77 203.76 258.83 167.96 289.48 210.26 453.23" stroke="#000" stroke-miterlimit="10" stroke-width="3.9"/>
        </g>
        <path d="M336.34,176.81c-18.69-33.18-46.3-27.33-75.99-7.95-.94.61-2.2.26-2.66-.76l-20.49-44.58c-.78-1.69-2.94-2.18-4.37-1l-18.38,15.16c-.64.53-.84,1.42-.5,2.17l21.14,45.98c.35.75.15,1.63-.49,2.16-4.9,4.06-9.84,8.3-14.75,12.53-.92.79-2.34.48-2.85-.62l-19.84-43.18c-.81-1.75-3.05-2.27-4.54-1.04l-18.26,15.06c-.64.53-.84,1.42-.5,2.17l21.74,47.31c.34.74.14,1.62-.47,2.15-4.41,3.8-8.75,7.53-13.03,11.06l-.07-.15-29.68,24.46c-.64.53-.85,1.42-.5,2.17l13.3,28.92c.51,1.1,1.92,1.42,2.84.63,4.25-3.64,11.65-9.56,14.36-11.8,8.96-7.38,15.15-2.81,18.85,2.57.06.09.12.19.17.29l25.1,54.61c.47,1.02,1.27,2.76,1.61,3.51l35.92,78.17c.03.07.06.14.09.22,1.37,4.21,2.46,11.68-3.8,16.85.38.09-11.71,9.77-15.25,12.6-.59.47-.82,1.24-.6,1.96l11.78,38.46c.04.12.18.16.27.08l28.83-23.78c4.78-3.93,9.54-7.72,14.2-11.49.93-.75,2.3-.42,2.8.66l21.97,47.76c.12.26.45.33.67.15l20.76-17.12c.64-.53.84-1.42.5-2.17l-21.74-47.3c-.35-.77-.13-1.68.53-2.2,5.14-4.06,10.12-8.08,14.97-12.06.93-.76,2.31-.44,2.81.65l21.58,46.97c.12.27.47.35.7.16l20.76-17.13c.64-.53.84-1.42.5-2.17l-21.99-47.86c-.33-.71-.16-1.55.41-2.09,35.56-33.56,55.37-67.89,36.78-118.03-14.27-38.51-34.04-46.17-56.84-37.94-1.48.53-2.91-.89-2.34-2.35,7.21-18.67,7.07-39.77-5.98-62.87h0s0,0,0,0ZM354.68,310.34c16.69,36.27-28.51,69.91-45.36,83.5-.93.75-2.3.41-2.79-.67l-29.13-63.39c-.34-.74-.15-1.62.47-2.15,16.05-13.55,59.15-55.7,76.81-17.28h0ZM300.99,224.65c15.06,32.78-22.12,60.38-36.42,71.81-.93.74-2.3.41-2.8-.67l-26.28-57.18c-.34-.74-.15-1.62.47-2.15,13.49-11.47,49.03-46.62,65.03-11.82h0Z" fill="#f7931a" stroke="#000" stroke-miterlimit="10" stroke-width="3.9"/>
      </g>
    </g>
  </g>
</svg>