<svg xmlns="http://www.w3.org/2000/svg" width="56" height="44" viewBox="0 0 56 44" fill="none">
    <path d="M39.9999 32C48.8365 32 56 24.8366 56 16C56 7.16346 48.8365 0 39.9999 0C31.1634 0 24 7.16346 24 16C24 24.8366 31.1634 32 39.9999 32Z" fill="#CDAFE9"/>
    <ellipse cx="21.5913" cy="21.9377" rx="13.9155" ry="14.0158" stroke="black" stroke-width="2.75"/>
    <path d="M27.2837 9.95265C32.4031 5.92239 36.2076 3.12618 38.2391 5.15191C41.0197 7.92464 34.2868 16.7512 24.7709 26.4326C15.255 36.114 6.56617 42.9905 3.77898 40.2113C0.991788 37.4321 5.75689 33.1986 9.57522 27.9464" stroke="black" stroke-width="2.75"/>
    <path d="M34.0462 29.6726C37.7913 34.8543 40.3637 38.1138 38.2861 40.1854C36.2085 42.257 26.8101 36.0881 17.2942 26.4067C7.77829 16.7253 -0.805437 9.74017 3.82597 5.126C5.12445 3.83125 9.28253 5.75537 14.5417 9.74409" stroke="black" stroke-width="2.75"/>
    </svg>