<svg width="554" height="487" viewBox="0 0 554 487" fill="none" xmlns="http://www.w3.org/2000/svg">
<path d="M448.001 254L413 273.775L448.001 294L483 273.775L448.001 254Z" fill="#9B5FD3"/>
<path d="M453 162L418 181.774L453 202L488 181.774L453 162Z" fill="#9B5FD3"/>
<path d="M447.973 267.039C450.775 266.102 454.804 264.818 459.701 263.5C461.113 263.116 462.616 262.733 464.163 262.355C464.361 262.983 465.981 267.994 467.637 269.825C469.141 271.489 471.519 273.19 473.884 272.983C476.201 272.78 478.056 270.754 477.603 268.376C476.973 265.074 471.431 262.61 468.45 262.242C468.259 262.219 465.973 262.192 464.804 262.203C465.74 261.978 466.67 261.752 467.648 261.534C469.053 261.208 470.55 260.911 471.997 260.614C472.753 260.487 473.516 260.36 474.289 260.231C475.065 260.084 475.821 260.04 476.6 259.938C477.743 259.813 478.928 259.742 480.111 259.668C480.356 261.118 481.148 265.359 482.343 267.172C483.577 269.043 485.67 271.084 488.04 271.239C490.36 271.389 492.502 269.667 492.414 267.248C492.292 263.89 487.187 260.615 484.297 259.8C484.202 259.773 483.574 259.665 482.827 259.542C483.984 259.505 485.138 259.464 486.312 259.467C489.641 259.471 493.032 259.579 496.43 259.673C497.139 259.693 497.846 259.702 498.554 259.719C498.754 260.94 499.571 265.542 500.823 267.441C502.058 269.312 504.15 271.354 506.52 271.508C508.84 271.659 510.982 269.936 510.893 267.517C510.772 264.159 505.667 260.884 502.777 260.068C502.673 260.038 501.922 259.91 501.081 259.773C502.927 259.797 504.769 259.8 506.596 259.744C509.793 259.652 512.935 259.386 515.959 258.89C516.026 259.321 516.875 264.736 518.267 266.847C519.501 268.719 521.594 270.76 523.964 270.915C526.284 271.065 528.426 269.343 528.338 266.923C528.215 263.565 523.111 260.29 520.221 259.474C520.015 259.417 517.295 258.971 516.318 258.844C516.354 258.838 516.392 258.837 516.428 258.83C519.598 258.279 522.557 257.363 525.319 256.358C528.077 255.359 530.589 254.184 532.872 253.043C535.16 251.908 537.182 250.727 538.962 249.668C539.922 249.088 540.79 248.539 541.593 248.018C541.591 248.032 541.582 248.088 541.582 248.088C541.573 248.149 545.608 247.506 545.857 247.437C548.75 246.629 553.864 243.371 553.997 240.013C554.093 237.594 551.956 235.865 549.635 236.008C547.264 236.155 545.165 238.19 543.926 240.058C542.656 241.971 541.818 246.655 541.625 247.82C540.78 248.344 539.87 248.894 538.851 249.481C537.052 250.498 535.01 251.631 532.709 252.711C532.096 253.001 531.425 253.288 530.781 253.578C531.766 252.864 533.105 251.865 533.225 251.754C535.42 249.707 538.456 244.459 537.024 241.418C535.993 239.227 533.299 238.676 531.305 239.871C529.27 241.092 528.345 243.865 528.107 246.094C527.857 248.419 529.325 253.067 529.657 254.08C528.219 254.699 526.726 255.303 525.134 255.841C522.394 256.772 519.428 257.621 516.304 258.093C516.131 258.12 515.948 258.125 515.773 258.15C516.321 257.881 519.222 256.194 519.411 256.053C521.818 254.258 525.413 249.376 524.324 246.196C523.54 243.904 520.923 243.062 518.81 244.032C516.652 245.022 515.428 247.677 514.947 249.866C514.391 252.389 515.603 257.955 515.649 258.164C512.718 258.569 509.678 258.763 506.578 258.784C504.332 258.803 502.056 258.731 499.773 258.636C500.478 258.27 503.174 256.7 503.355 256.566C505.762 254.77 509.356 249.888 508.268 246.709C507.484 244.417 504.867 243.575 502.755 244.545C500.597 245.535 499.373 248.19 498.892 250.378C498.349 252.84 499.487 258.178 499.584 258.629C498.547 258.585 497.513 258.546 496.473 258.495C493.082 258.328 489.683 258.144 486.324 258.067C485.16 258.04 484.012 258.057 482.862 258.067C483.901 257.487 485.773 256.392 485.924 256.28C488.331 254.485 491.925 249.602 490.837 246.423C490.051 244.131 487.436 243.289 485.322 244.259C483.164 245.249 481.941 247.904 481.459 250.092C480.975 252.29 481.835 256.8 482.095 258.066C480.182 258.099 478.285 258.173 476.42 258.335C475.618 258.423 474.793 258.46 474.028 258.588C473.254 258.7 472.488 258.811 471.728 258.921C470.167 259.204 468.715 259.46 467.268 259.762C466.535 259.908 465.848 260.064 465.138 260.214C466.279 259.783 468.077 259.07 468.233 258.987C470.884 257.577 475.178 253.296 474.584 249.987C474.156 247.604 471.698 246.376 469.462 247.014C467.178 247.667 465.567 250.105 464.758 252.196C463.867 254.501 464.152 259.772 464.19 260.416C462.455 260.796 460.769 261.182 459.198 261.572C454.226 262.797 450.13 264.004 447.275 264.89C444.424 265.776 442.795 266.354 442.795 266.354L442.781 266.359C442.774 266.361 442.768 266.364 442.762 266.365C442.151 266.597 441.846 267.279 442.077 267.887C442.31 268.497 442.992 268.802 443.601 268.571C443.606 268.571 445.166 267.978 447.973 267.039Z" fill="#9B5FD3"/>
<path d="M530 254.482C530.001 254.486 532.339 259.81 534.28 261.522C535.934 262.981 538.443 264.378 540.725 263.907C542.959 263.447 544.538 261.251 543.828 258.973C542.842 255.81 537.163 254.025 534.216 254C533.962 254 529.976 254.426 530 254.482Z" fill="#9B5FD3"/>
<path d="M446.935 264.822C448.754 262.495 451.404 259.202 454.758 255.402C455.723 254.303 456.765 253.156 457.846 251.987C458.358 252.4 462.473 255.689 464.864 256.305C467.035 256.864 469.956 256.972 471.815 255.495C473.634 254.049 474.063 251.336 472.371 249.601C470.024 247.194 464.044 248.194 461.356 249.529C461.184 249.614 459.263 250.853 458.297 251.507C458.953 250.802 459.602 250.102 460.298 249.379C461.29 248.333 462.373 247.261 463.416 246.214C463.977 245.692 464.543 245.164 465.115 244.631C465.682 244.081 466.287 243.627 466.88 243.111C467.765 242.377 468.713 241.665 469.659 240.95C470.664 242.025 473.664 245.126 475.661 245.98C477.722 246.862 480.594 247.411 482.654 246.233C484.672 245.079 485.507 242.462 484.098 240.491C482.142 237.756 476.081 237.839 473.22 238.751C473.127 238.781 472.544 239.036 471.853 239.346C472.798 238.678 473.737 238.007 474.716 237.361C477.493 235.53 480.381 233.751 483.265 231.955C483.866 231.581 484.461 231.198 485.061 230.821C485.901 231.73 489.123 235.119 491.215 236.013C493.277 236.895 496.148 237.444 498.208 236.266C500.225 235.112 501.059 232.495 499.652 230.524C497.696 227.789 491.633 227.872 488.774 228.784C488.672 228.818 487.975 229.124 487.198 229.474C488.751 228.475 490.288 227.462 491.78 226.408C494.393 224.569 496.868 222.615 499.114 220.533C499.408 220.856 503.104 224.906 505.43 225.9C507.491 226.78 510.363 227.331 512.423 226.153C514.441 224.999 515.275 222.381 513.867 220.41C511.911 217.675 505.848 217.758 502.989 218.671C502.786 218.736 500.273 219.864 499.389 220.297C499.415 220.272 499.446 220.249 499.473 220.224C501.811 218.017 503.772 215.62 505.52 213.259C507.268 210.904 508.714 208.539 509.988 206.328C511.268 204.12 512.302 202.021 513.203 200.155C513.683 199.141 514.103 198.205 514.484 197.328C514.49 197.341 514.514 197.393 514.514 197.393C514.539 197.449 517.549 194.688 517.719 194.492C519.685 192.222 522.15 186.683 520.407 183.809C519.151 181.737 516.416 181.473 514.56 182.872C512.666 184.302 512.039 187.157 512.036 189.398C512.034 191.695 513.92 196.065 514.402 197.143C513.985 198.046 513.531 199.007 513.006 200.058C512.068 201.898 510.991 203.969 509.669 206.141C509.318 206.72 508.917 207.329 508.539 207.926C508.967 206.788 509.532 205.217 509.57 205.059C510.27 202.14 509.905 196.087 507.033 194.34C504.964 193.08 502.415 194.106 501.413 196.203C500.391 198.345 501.15 201.167 502.181 203.159C503.257 205.237 507.046 208.307 507.882 208.969C507.024 210.279 506.114 211.605 505.083 212.932C503.314 215.219 501.308 217.563 498.965 219.679C498.835 219.796 498.685 219.902 498.554 220.02C498.863 219.494 500.35 216.486 500.429 216.263C501.445 213.439 501.747 207.383 499.084 205.33C497.165 203.851 494.519 204.591 493.293 206.565C492.04 208.581 492.486 211.47 493.291 213.563C494.221 215.974 498.302 219.95 498.457 220.099C496.237 222.053 493.81 223.89 491.238 225.618C489.375 226.872 487.438 228.067 485.484 229.246C485.869 228.552 487.25 225.756 487.327 225.542C488.343 222.718 488.644 216.662 485.981 214.609C484.063 213.13 481.417 213.87 480.19 215.844C478.938 217.86 479.384 220.75 480.189 222.842C481.095 225.195 484.991 229.023 485.32 229.343C484.432 229.878 483.547 230.417 482.653 230.946C479.734 232.676 476.799 234.398 473.955 236.186C472.97 236.805 472.023 237.452 471.069 238.095C471.616 237.037 472.573 235.092 472.636 234.916C473.652 232.091 473.954 226.035 471.291 223.983C469.373 222.503 466.727 223.244 465.501 225.217C464.248 227.234 464.694 230.122 465.499 232.215C466.308 234.317 469.515 237.605 470.43 238.519C468.854 239.601 467.313 240.709 465.848 241.873C465.227 242.389 464.56 242.875 463.993 243.403C463.41 243.924 462.832 244.439 462.26 244.949C461.114 246.047 460.045 247.061 459.005 248.111C458.475 248.638 457.988 249.146 457.48 249.664C458.193 248.675 459.299 247.088 459.383 246.933C460.815 244.294 462.03 238.354 459.71 235.922C458.037 234.169 455.31 234.498 453.799 236.264C452.255 238.067 452.258 240.99 452.738 243.18C453.266 245.595 456.413 249.836 456.801 250.352C455.564 251.626 454.372 252.876 453.278 254.068C449.807 257.832 447.061 261.097 445.169 263.411C443.281 265.721 442.242 267.102 442.242 267.102L442.233 267.114C442.229 267.119 442.226 267.124 442.222 267.13C441.841 267.66 441.963 268.398 442.491 268.778C443.021 269.159 443.759 269.037 444.139 268.509C444.139 268.509 445.113 267.153 446.935 264.822Z" fill="#9B5FD3"/>
<path d="M508.001 209.178C508.005 209.18 513.081 212.506 515.749 212.88C518.019 213.198 521 212.961 522.714 211.209C524.392 209.494 524.508 206.633 522.587 205.039C519.921 202.828 513.965 204.579 511.39 206.284C511.167 206.432 507.947 209.143 508.001 209.178Z" fill="#9B5FD3"/>
<path d="M465.905 107.983C450.017 136.978 460.233 173 460.233 173C460.233 173 496.207 162.012 512.095 133.017C527.983 104.022 517.767 68 517.767 68C517.767 68 481.793 78.9868 465.905 107.983Z" fill="#9B5FD3"/>
<path d="M460 173L518 68" stroke="white" stroke-width="0.8984" stroke-miterlimit="10"/>
<path d="M498 105L491 87" stroke="white" stroke-width="0.8984" stroke-miterlimit="10"/>
<path d="M488 122L517 108" stroke="white" stroke-width="0.8984" stroke-miterlimit="10"/>
<path d="M483 132L473 105" stroke="white" stroke-width="0.8984" stroke-miterlimit="10"/>
<path d="M475 147L503 140" stroke="white" stroke-width="0.8984" stroke-miterlimit="10"/>
<path d="M468 158L460 138" stroke="white" stroke-width="0.8984" stroke-miterlimit="10"/>
<path d="M425.992 143.878C430.358 162.379 448.906 174 448.906 174C448.906 174 460.375 155.624 456.008 137.122C451.642 118.621 433.094 107 433.094 107C433.094 107 421.625 125.376 425.992 143.878Z" fill="#9B5FD3"/>
<path d="M449 174L433 107" stroke="white" stroke-width="0.8984" stroke-miterlimit="10"/>
<path d="M439 131L429 126" stroke="white" stroke-width="0.8984" stroke-miterlimit="10"/>
<path d="M441 142L448 125" stroke="white" stroke-width="0.8984" stroke-miterlimit="10"/>
<path d="M443 148L428 140" stroke="white" stroke-width="0.8984" stroke-miterlimit="10"/>
<path d="M445 156L455 143" stroke="white" stroke-width="0.8984" stroke-miterlimit="10"/>
<path d="M446 164L435 159" stroke="white" stroke-width="0.8984" stroke-miterlimit="10"/>
<path d="M494.514 157.735C476.288 163.33 466 182.13 466 182.13C466 182.13 485.26 191.86 503.486 186.265C521.712 180.67 532 161.87 532 161.87C532 161.87 512.74 152.14 494.514 157.735Z" fill="#9B5FD3"/>
<path d="M466 182L532 162" stroke="white" stroke-width="0.8984" stroke-miterlimit="10"/>
<path d="M509 169L514 159" stroke="white" stroke-width="0.8984" stroke-miterlimit="10"/>
<path d="M498 173L516 178" stroke="white" stroke-width="0.8984" stroke-miterlimit="10"/>
<path d="M491 174L498 159" stroke="white" stroke-width="0.8984" stroke-miterlimit="10"/>
<path d="M483 177L497 185" stroke="white" stroke-width="0.8984" stroke-miterlimit="10"/>
<path d="M476 179L480 168" stroke="white" stroke-width="0.8984" stroke-miterlimit="10"/>
<path d="M105 190L70 209.775L105 230L140 209.775L105 190Z" fill="#9B5FD3"/>
<path d="M78.0006 225L43 244.775L78.0006 265L113 244.775L78.0006 225Z" fill="#9B5FD3"/>
<path d="M258.76 217L224 236.588L421.24 353L456 332.967L258.76 217Z" fill="#9B5FD3"/>
<path d="M225 211.777L205.874 201L157 228.877L176.298 240L225 211.777Z" fill="#9B5FD3"/>
<path d="M385 441.538L347.315 421L298 449.115L335.859 470L385 441.538Z" fill="#9B5FD3"/>
<path d="M19.5 221L0 231.876L19.5 243L39 231.876L19.5 221Z" fill="#9B5FD3"/>
<path d="M438.499 359L419 369.876L438.499 381L458 369.876L438.499 359Z" fill="#9B5FD3"/>
<path d="M493.5 356L474 366.876L493.5 378L513 366.876L493.5 356Z" fill="#9B5FD3"/>
<path d="M17 327.652L231.534 454L388 365.252L181.489 235L17 327.652Z" fill="#9B5FD3"/>
<path d="M494 305L453 328.235L494 352L535 328.235L494 305Z" fill="#9B5FD3"/>
<path d="M103.742 204.331C104.099 201.41 104.668 197.237 105.575 192.27C105.832 190.836 106.13 189.321 106.452 187.768C107.094 187.86 112.238 188.559 114.569 187.86C116.686 187.224 119.208 185.818 120.029 183.604C120.832 181.435 119.819 178.896 117.512 178.282C114.31 177.428 109.766 181.348 108.172 183.868C108.07 184.03 107.076 186.074 106.59 187.128C106.788 186.19 106.981 185.258 107.203 184.284C107.511 182.881 107.881 181.409 108.232 179.981C108.441 179.247 108.652 178.506 108.865 177.758C109.064 176.997 109.346 176.297 109.585 175.555C109.96 174.473 110.4 173.378 110.836 172.284C112.229 172.688 116.335 173.799 118.455 173.504C120.642 173.2 123.346 172.198 124.489 170.135C125.608 168.113 124.987 165.449 122.798 164.487C119.761 163.153 114.682 166.331 112.729 168.578C112.666 168.65 112.302 169.169 111.876 169.787C112.334 168.732 112.788 167.677 113.289 166.623C114.706 163.634 116.243 160.633 117.769 157.62C118.087 156.991 118.395 156.359 118.712 155.731C119.883 156.075 124.321 157.319 126.541 157.012C128.728 156.708 131.433 155.705 132.575 153.641C133.694 151.621 133.072 148.956 130.884 147.995C127.847 146.66 122.768 149.839 120.816 152.085C120.746 152.165 120.313 152.785 119.834 153.483C120.64 151.835 121.423 150.18 122.149 148.514C123.424 145.602 124.524 142.664 125.367 139.733C125.778 139.859 130.952 141.424 133.42 141.081C135.608 140.777 138.312 139.775 139.455 137.711C140.574 135.691 139.951 133.026 137.764 132.063C134.726 130.729 129.647 133.907 127.695 136.154C127.557 136.313 126.005 138.567 125.477 139.39C125.487 139.355 125.501 139.32 125.511 139.285C126.367 136.2 126.809 133.148 127.088 130.233C127.371 127.325 127.392 124.561 127.348 122.019C127.309 119.476 127.119 117.152 126.934 115.096C126.825 113.984 126.705 112.968 126.584 112.023C126.595 112.031 126.641 112.064 126.641 112.064C126.692 112.098 127.834 108.196 127.878 107.941C128.389 104.994 127.663 98.9967 124.734 97.4347C122.625 96.309 120.181 97.4856 119.322 99.6327C118.446 101.826 119.365 104.587 120.499 106.504C121.662 108.468 125.468 111.236 126.421 111.91C126.528 112.896 126.631 113.949 126.721 115.116C126.861 117.171 127.001 119.492 126.985 122.026C126.982 122.701 126.952 123.428 126.936 124.131C126.719 122.938 126.401 121.306 126.352 121.151C125.463 118.298 122.088 113.313 118.776 113.292C116.391 113.277 114.757 115.461 114.973 117.766C115.195 120.12 117.268 122.143 119.147 123.316C121.108 124.539 125.864 125.22 126.907 125.357C126.846 126.917 126.749 128.517 126.551 130.179C126.215 133.04 125.71 136.071 124.803 139.082C124.753 139.248 124.68 139.416 124.629 139.583C124.622 138.975 124.353 135.642 124.309 135.412C123.736 132.478 120.921 127.148 117.632 126.759C115.262 126.479 113.402 128.467 113.367 130.783C113.33 133.148 115.171 135.389 116.912 136.763C118.918 138.348 124.381 139.65 124.587 139.7C123.702 142.509 122.583 145.323 121.287 148.118C120.35 150.146 119.319 152.159 118.266 154.17C118.241 153.379 117.989 150.282 117.945 150.06C117.371 147.126 114.557 141.796 111.268 141.407C108.899 141.127 107.038 143.115 107.003 145.43C106.967 147.795 108.808 150.036 110.548 151.411C112.507 152.958 117.735 154.231 118.177 154.337C117.698 155.25 117.224 156.163 116.736 157.074C115.147 160.049 113.541 163.024 112.047 166.01C111.529 167.044 111.056 168.083 110.577 169.121C110.501 167.937 110.324 165.784 110.289 165.601C109.716 162.667 106.901 157.337 103.612 156.948C101.242 156.668 99.3815 158.656 99.3463 160.973C99.3111 163.337 101.15 165.578 102.892 166.953C104.64 168.335 109.014 169.501 110.251 169.812C109.468 171.545 108.729 173.282 108.081 175.027C107.819 175.785 107.502 176.543 107.291 177.284C107.062 178.029 106.834 178.765 106.61 179.494C106.199 181.019 105.811 182.435 105.464 183.864C105.283 184.586 105.129 185.27 104.962 185.973C105.064 184.761 105.194 182.839 105.186 182.664C105.058 179.674 103.075 173.975 99.8819 173.087C97.5812 172.446 95.4453 174.127 95.0631 176.411C94.6733 178.742 96.1568 181.24 97.673 182.866C99.3438 184.658 104.15 186.669 104.74 186.912C104.341 188.634 103.968 190.316 103.648 191.894C102.625 196.889 101.96 201.09 101.535 204.037C101.111 206.979 100.934 208.692 100.934 208.692L100.933 208.707C100.933 208.714 100.932 208.72 100.932 208.727C100.879 209.374 101.354 209.943 101.994 209.996C102.634 210.049 103.196 209.569 103.249 208.921C103.249 208.915 103.384 207.257 103.742 204.331Z" fill="#9B5FD3"/>
<path d="M128.002 124.988C128.006 124.988 133.7 125.172 136.035 124.119C138.025 123.221 140.324 121.493 140.876 119.145C141.417 116.846 140.148 114.388 137.834 114.036C134.623 113.55 130.637 118.073 129.365 120.823C129.256 121.061 127.943 124.986 128.002 124.988Z" fill="#9B5FD3"/>
<path d="M99.5806 205.143C98.274 202.501 96.4573 198.693 94.4871 194.033C93.9162 192.69 93.3327 191.257 92.7478 189.778C93.3377 189.496 98.0519 187.203 99.6288 185.314C101.061 183.597 102.411 181.01 101.883 178.7C101.367 176.437 99.1163 174.882 96.8366 175.658C93.6714 176.736 92.0044 182.557 92.0488 185.556C92.0514 185.748 92.3393 188.013 92.5119 189.166C92.1617 188.271 91.8116 187.383 91.4627 186.446C90.9502 185.101 90.4516 183.662 89.9607 182.272C89.7323 181.542 89.5027 180.805 89.2693 180.059C89.0194 179.312 88.8709 178.569 88.6629 177.813C88.3838 176.7 88.1516 175.538 87.9169 174.378C89.3111 173.936 93.3783 172.567 94.9996 171.136C96.6742 169.658 98.3983 167.305 98.2245 164.941C98.0545 162.625 96.0653 160.745 93.6942 161.165C90.4034 161.749 87.8789 167.249 87.4704 170.22C87.4577 170.317 87.4361 170.953 87.4184 171.709C87.2243 170.571 87.0251 169.435 86.8665 168.273C86.4149 164.981 86.0571 161.612 85.6829 158.238C85.6055 157.535 85.5167 156.834 85.4368 156.131C86.6115 155.765 91.0314 154.322 92.7301 152.822C94.4047 151.343 96.1287 148.993 95.9549 146.628C95.7849 144.312 93.7957 142.431 91.4247 142.852C88.1339 143.436 85.6093 148.936 85.2008 151.907C85.1869 152.013 85.1628 152.774 85.1437 153.624C84.9154 151.795 84.6642 149.972 84.3597 148.173C83.8307 145.025 83.1393 141.953 82.2361 139.032C82.6522 138.907 87.8675 137.319 89.7564 135.653C91.431 134.174 93.1538 131.824 92.9813 129.458C92.8113 127.143 90.8221 125.262 88.451 125.683C85.1602 126.267 82.6357 131.766 82.2272 134.737C82.198 134.948 82.132 137.701 82.1422 138.684C82.1308 138.649 82.1244 138.611 82.113 138.577C81.1362 135.518 79.8282 132.719 78.4594 130.125C77.0969 127.535 75.5961 125.213 74.1587 123.113C72.7265 121.008 71.2879 119.171 70.0015 117.555C69.2987 116.687 68.639 115.904 68.0161 115.181C68.03 115.181 68.0871 115.182 68.0871 115.182C68.148 115.183 66.9631 111.28 66.8604 111.043C65.6691 108.294 61.758 103.684 58.4329 104.017C56.0378 104.257 54.6271 106.608 55.0863 108.883C55.5557 111.206 57.8481 113.002 59.8576 113.971C61.9166 114.963 66.6434 115.146 67.8169 115.177C68.4487 115.941 69.116 116.764 69.8328 117.69C71.0811 119.33 72.4753 121.192 73.8555 123.32C74.2247 123.886 74.599 124.51 74.9732 125.108C74.1359 124.232 72.9688 123.044 72.8432 122.942C70.5254 121.054 64.9409 118.775 62.1424 120.61C60.1265 121.932 59.9527 124.671 61.404 126.478C62.8858 128.323 65.7427 128.855 67.9704 128.784C70.2945 128.71 74.6713 126.617 75.624 126.149C76.4308 127.487 77.2301 128.879 77.9773 130.38C79.2687 132.96 80.512 135.778 81.4051 138.801C81.4546 138.969 81.4863 139.149 81.5345 139.319C81.1945 138.814 79.1343 136.177 78.9706 136.01C76.8736 133.877 71.572 130.995 68.5895 132.511C66.4405 133.602 65.9698 136.307 67.2143 138.262C68.4855 140.258 71.2676 141.103 73.4889 141.277C76.049 141.479 81.3645 139.513 81.565 139.439C82.3655 142.282 82.9719 145.262 83.4184 148.324C83.7457 150.542 83.9855 152.803 84.2049 155.074C83.7482 154.428 81.8326 151.978 81.6741 151.816C79.577 149.683 74.2755 146.802 71.2929 148.317C69.1439 149.409 68.6732 152.112 69.9178 154.068C71.1889 156.065 73.971 156.909 76.1923 157.084C78.6928 157.281 83.7939 155.42 84.2227 155.262C84.3217 156.293 84.4257 157.322 84.517 158.356C84.8164 161.733 85.1019 165.119 85.4863 168.453C85.6195 169.608 85.7933 170.74 85.9607 171.876C85.2465 170.928 83.9119 169.228 83.7812 169.094C81.6842 166.961 76.3826 164.079 73.4001 165.595C71.2511 166.687 70.7804 169.391 72.0249 171.346C73.2961 173.343 76.0782 174.187 78.2995 174.363C80.531 174.539 84.8545 173.067 86.066 172.635C86.3603 174.522 86.694 176.389 87.1088 178.21C87.3055 178.992 87.4552 179.802 87.686 180.541C87.903 181.291 88.1174 182.034 88.3292 182.768C88.8215 184.274 89.2744 185.674 89.7678 187.064C90.0127 187.769 90.2601 188.427 90.5062 189.108C89.9252 188.038 88.9762 186.359 88.8735 186.215C87.1215 183.787 82.316 180.131 79.1406 181.176C76.852 181.928 75.9779 184.528 76.9142 186.651C77.8695 188.819 80.4917 190.076 82.6623 190.589C85.0549 191.152 90.2055 190.145 90.836 190.017C91.4475 191.681 92.059 193.295 92.659 194.794C94.5467 199.544 96.2974 203.427 97.561 206.129C98.8233 208.825 99.6162 210.357 99.6162 210.357L99.6225 210.37C99.625 210.376 99.6288 210.381 99.6314 210.387C99.9435 210.959 100.656 211.168 101.225 210.854C101.793 210.54 102.001 209.824 101.689 209.253C101.689 209.253 100.89 207.79 99.5806 205.143Z" fill="#9B5FD3"/>
<path d="M76.1063 126C76.11 125.997 80.9197 122.882 82.3074 120.677C83.4884 118.798 84.4958 116.061 83.7366 113.815C82.992 111.617 80.6666 110.326 78.5699 111.365C75.6588 112.807 74.704 118.809 75.0769 121.796C75.1099 122.056 76.0574 126.033 76.1063 126Z" fill="#9B5FD3"/>
<path d="M296.121 409.956L292.024 409.086L291 406.912L297.555 403C297.555 403 299.604 403.217 300.833 406.912C302.061 410.608 296.121 409.956 296.121 409.956Z" fill="white" stroke="#333333" stroke-width="0.8984" stroke-miterlimit="10"/>
<path d="M181.624 234L17 326.365L227.582 446L391 352.66L181.624 234Z" fill="white" stroke="#333333" stroke-width="0.8984" stroke-miterlimit="10" stroke-linecap="round"/>
<path d="M66 326.577L112.399 300L182 339.423L135.599 366L66 326.577Z" fill="#9B5FD3"/>
<path d="M175 264L182 260" stroke="#333333" stroke-width="0.8984" stroke-miterlimit="10" stroke-linecap="round"/>
<path d="M136 287L172 267" stroke="#333333" stroke-width="0.8984" stroke-miterlimit="10" stroke-linecap="round"/>
<path d="M148 294L194 267" stroke="#333333" stroke-width="0.8984" stroke-miterlimit="10" stroke-linecap="round"/>
<path d="M177 290L204 274" stroke="#333333" stroke-width="0.8984" stroke-miterlimit="10" stroke-linecap="round"/>
<path d="M159 300L171 293" stroke="#333333" stroke-width="0.8984" stroke-miterlimit="10" stroke-linecap="round"/>
<path d="M258 323L275 313" stroke="#333333" stroke-width="0.8984" stroke-miterlimit="10" stroke-linecap="round"/>
<path d="M238 334L252 326" stroke="#333333" stroke-width="0.8984" stroke-miterlimit="10" stroke-linecap="round"/>
<path d="M183 366L233 337" stroke="#333333" stroke-width="0.8984" stroke-miterlimit="10" stroke-linecap="round"/>
<path d="M159 380L177 369" stroke="#333333" stroke-width="0.8984" stroke-miterlimit="10" stroke-linecap="round"/>
<path d="M266 332L287 320" stroke="#333333" stroke-width="0.8984" stroke-miterlimit="10" stroke-linecap="round"/>
<path d="M251 340L260 335" stroke="#333333" stroke-width="0.8984" stroke-miterlimit="10" stroke-linecap="round"/>
<path d="M235 349L247 342" stroke="#333333" stroke-width="0.8984" stroke-miterlimit="10" stroke-linecap="round"/>
<path d="M171 386L228 353" stroke="#333333" stroke-width="0.8984" stroke-miterlimit="10" stroke-linecap="round"/>
<path d="M288 332L298 326" stroke="#333333" stroke-width="0.8984" stroke-miterlimit="10" stroke-linecap="round"/>
<path d="M205 379L283 335" stroke="#333333" stroke-width="0.8984" stroke-miterlimit="10" stroke-linecap="round"/>
<path d="M182 392L201 381" stroke="#333333" stroke-width="0.8984" stroke-miterlimit="10" stroke-linecap="round"/>
<path d="M246 369L310 333" stroke="#333333" stroke-width="0.8984" stroke-miterlimit="10" stroke-linecap="round"/>
<path d="M205 392L243 371" stroke="#333333" stroke-width="0.8984" stroke-miterlimit="10" stroke-linecap="round"/>
<path d="M194 399L201 395" stroke="#333333" stroke-width="0.8984" stroke-miterlimit="10" stroke-linecap="round"/>
<path d="M318 342L321 340" stroke="#333333" stroke-width="0.8984" stroke-miterlimit="10" stroke-linecap="round"/>
<path d="M283 362L313 345" stroke="#333333" stroke-width="0.8984" stroke-miterlimit="10" stroke-linecap="round"/>
<path d="M235 389L278 365" stroke="#333333" stroke-width="0.8984" stroke-miterlimit="10" stroke-linecap="round"/>
<path d="M206 406L229 393" stroke="#333333" stroke-width="0.8984" stroke-miterlimit="10" stroke-linecap="round"/>
<path d="M185 101L194.871 103.471L198 114L185.786 110.026L185 101Z" fill="white" stroke="#333333" stroke-width="0.6738" stroke-miterlimit="10" stroke-linecap="round" stroke-linejoin="round"/>
<path d="M337.125 34.3009C337.773 29.8546 335.632 25.4642 331.731 23.2392L292.151 0.671734C289.041 -1.1017 285.123 0.811675 284.607 4.35601C284.091 7.90034 280.173 9.81371 277.063 8.04028L273.4 5.95134L241 228.244L435.401 339L484 126.031L342.519 45.3613C338.617 43.1375 336.476 38.7472 337.125 34.3009Z" fill="#333333"/>
<path d="M241 24V228.348L435.769 339L452 144.315L241 24Z" fill="#9B5FD3" stroke="#333333" stroke-width="0.8984" stroke-miterlimit="10" stroke-linecap="round"/>
<path d="M241 37L251.498 162.993L260.399 213.358L436.527 313L439 148.503L241 37Z" fill="#9B5FD3"/>
<path d="M241.231 228.346L225 34L436 154.55V339L241.231 228.346Z" fill="white" stroke="#333333" stroke-width="0.8984" stroke-miterlimit="10" stroke-linecap="round"/>
<path d="M226 51L236.458 176.617L245.328 226.832L434 336L423.282 162.171L226 51Z" fill="#9B5FD3"/>
<path d="M240.429 228.299L208 45L418.786 163.593L435 339L240.429 228.299Z" fill="white" stroke="#333333" stroke-width="0.8984" stroke-miterlimit="10" stroke-linecap="round"/>
<path d="M251.095 233.406L222 69L411.113 175.37L430 334L251.095 233.406Z" fill="#9B5FD3" stroke="#333333" stroke-width="0.8984" stroke-miterlimit="10" stroke-linecap="round"/>
<path d="M214 77L236.396 203.986L244.125 223.871L434 332L390.092 177.78L214 77Z" fill="#9B5FD3"/>
<path d="M176 62L386.62 182.341L435 339L240.751 228.325L176 62Z" fill="#333333" stroke="#333333" stroke-width="0.8984" stroke-miterlimit="10"/>
<path d="M191.061 112C191.061 112 190.643 108.019 192 105" stroke="#333333" stroke-width="0.4492" stroke-miterlimit="10" stroke-linecap="round" stroke-linejoin="round"/>
<path d="M328.303 356.647C328.303 356.647 325.633 354.666 326.043 357.637C326.453 360.607 328.303 362.785 330.151 362.983C332 363.181 332 361.597 332 361.597L328.303 356.647Z" fill="white" stroke="#333333" stroke-width="0.8984" stroke-miterlimit="10"/>
<path d="M347.159 352.683C347.159 352.683 349.493 350.592 349.917 353.728C350.341 356.864 349.068 360 347.795 360C346.523 360 347.159 352.683 347.159 352.683Z" fill="white" stroke="#333333" stroke-width="0.8984" stroke-miterlimit="10"/>
<path d="M335 366.109L337.27 372.476C337.27 372.476 339.952 373.503 342.635 372.681C345.317 371.86 348 368.779 348 368.779L346.143 362L335 366.109Z" fill="white" stroke="#333333" stroke-width="0.8984" stroke-miterlimit="10"/>
<path d="M334.814 366.943C331.545 364.306 329.038 359.631 327.857 356.521C325.957 351.525 322.791 346.944 324.48 344.861C326.168 342.779 328.912 344.444 328.912 344.444C328.912 344.444 325.745 340.071 332.289 337.573C338.832 335.075 346.009 335.7 345.376 338.406C344.742 341.112 343.898 342.362 344.953 342.57C346.008 342.778 349.386 341.945 348.964 345.276C348.541 348.607 346.431 350.689 346.431 351.314C346.431 351.939 347.486 355.686 347.064 358.809C346.22 365.068 342.005 372.745 334.814 366.943Z" fill="#333333"/>
<path d="M308 445.975C308 445.975 314.88 449.975 322.271 453.725C329.661 457.475 358.943 470 358.943 470L362 466.25L334.757 442.225C334.757 442.225 314.116 437.725 308 445.975Z" fill="#333333"/>
<path d="M336.084 420.006C336.084 420.006 325.747 419.763 326.005 422.436C326.263 425.11 339.444 429 342.286 429C345.128 429 343.578 422.436 343.578 422.436L336.084 420.006Z" fill="white" stroke="#333333" stroke-width="0.8984" stroke-miterlimit="10"/>
<path d="M336 409.589C336 409.589 336 421.772 337.216 423.068C338.432 424.364 341.352 425.66 342.811 424.623C344.27 423.586 345 418.402 345 418.402C345 418.402 340.621 406.219 336 409.589Z" fill="#333333"/>
<path d="M343.211 426.762C343.211 426.762 311.32 433.521 309.263 436.024C307.205 438.527 305.92 442.281 308.234 445.286C310.549 448.289 347.841 446.537 353.498 446.037C359.155 445.537 363.271 442.783 367.129 439.028C370.986 435.274 373.815 431.018 372.787 424.51C371.945 419.181 369.7 416 369.7 416L343.135 421.279L343.211 426.762Z" fill="#333333"/>
<path d="M344 427C344 427 344 430.405 352 434" stroke="white" stroke-width="0.4492" stroke-miterlimit="10" stroke-linejoin="round"/>
<path d="M343.003 428C343.003 428 342.788 431.685 346 435" stroke="white" stroke-width="0.4492" stroke-miterlimit="10" stroke-linejoin="round"/>
<path d="M347 436C347 436 348.588 437.555 350 438" stroke="white" stroke-width="0.4492" stroke-miterlimit="10" stroke-linejoin="round"/>
<path d="M340 447C340 447 319.628 446.143 316 445" stroke="white" stroke-width="0.4492" stroke-miterlimit="10" stroke-linejoin="round"/>
<path d="M314 446.397C314 446.397 318.705 447.988 324 446" stroke="white" stroke-width="0.4492" stroke-miterlimit="10" stroke-linejoin="round"/>
<path d="M323.262 386C322.628 386.828 321.783 388.897 321.783 388.897C321.783 388.897 316.581 402.219 313.335 411.273L300.861 406.486C296.634 406.486 296 409.383 296 409.383C296 409.383 308.891 419.729 311.85 422.212C314.809 424.695 316.711 423.868 316.711 423.868C316.737 423.835 316.757 423.805 316.783 423.772C317.249 423.683 317.721 423.517 318.191 423.247C321.784 421.177 331.293 402.554 331.293 402.554L335 402.239" fill="white"/>
<path d="M323.262 386C322.628 386.828 321.783 388.897 321.783 388.897C321.783 388.897 316.581 402.219 313.335 411.273L300.861 406.486C296.634 406.486 296 409.383 296 409.383C296 409.383 308.891 419.729 311.85 422.212C314.809 424.695 316.711 423.868 316.711 423.868C316.737 423.835 316.757 423.805 316.783 423.772C317.249 423.684 317.721 423.517 318.191 423.247C321.784 421.177 331.293 402.554 331.293 402.554L335 402.239" stroke="#333333" stroke-width="0.8984" stroke-miterlimit="10"/>
<path d="M310 410C310 410 305.882 410.84 305 417" stroke="#333333" stroke-width="0.4492" stroke-miterlimit="10" stroke-linejoin="round"/>
<path d="M336 373C336 373 341.531 372.516 345.901 370.345C350.271 368.173 351 366 351 366" stroke="#333333" stroke-width="0.4492" stroke-miterlimit="10" stroke-linejoin="round"/>
<path d="M360 469.6C360 469.6 361.541 472.764 361.308 474.771C361.075 476.778 359.444 484.807 360.842 485.922C362.24 487.037 369.463 475.886 370.861 472.541C372.259 469.195 362.629 466 362.629 466C362.629 466 360.323 467.329 360 469.6Z" fill="white" stroke="#333333" stroke-width="0.8984" stroke-miterlimit="10"/>
<path d="M361 486C361 486 363.75 481.336 365.833 476.916C367.916 472.497 370 470 370 470" stroke="#333333" stroke-width="0.4492" stroke-miterlimit="10" stroke-linejoin="round"/>
<path d="M327 422C327 422 334.883 427.793 338 428" stroke="#333333" stroke-width="0.4492" stroke-miterlimit="10" stroke-linejoin="round"/>
<path d="M358.55 364.018C358.55 364.018 362.73 363.574 364.306 367.15C365.882 370.727 376.392 384.522 377.443 387.588C378.494 390.653 378.494 395.252 373.502 396.785C368.509 398.317 365.357 391.164 365.357 391.164L358 366.894" fill="white"/>
<path d="M358.55 364.018C358.55 364.018 362.73 363.574 364.306 367.15C365.882 370.727 376.392 384.522 377.443 387.588C378.494 390.653 378.494 395.252 373.502 396.785C368.509 398.317 365.357 391.164 365.357 391.164L358 366.894" stroke="#333333" stroke-width="0.8984" stroke-miterlimit="10"/>
<path d="M367 389C367 389 370.641 392 374 392" stroke="#333333" stroke-width="0.4492" stroke-miterlimit="10" stroke-linejoin="round"/>
<path d="M367 390C367 390 371.118 394 372 394" stroke="#333333" stroke-width="0.4492" stroke-miterlimit="10" stroke-linejoin="round"/>
<path d="M348.826 366.287C348.826 366.287 337.787 370.445 335.496 372.94C333.205 375.435 326.749 380.634 324.665 383.752C322.582 386.871 321.333 387.91 322.374 390.822C323.415 393.733 339.869 415.98 342.16 420.762C344.452 425.544 346.535 427 354.24 427C361.947 427 367.57 421.801 368.819 417.019C370.069 412.237 364.445 376.683 364.237 371.693C364.029 366.704 361.32 364 358.405 364C355.49 364 348.826 366.287 348.826 366.287Z" fill="white" stroke="#333333" stroke-width="0.8984" stroke-miterlimit="10"/>
<path d="M331 403C331 403 332.99 404.568 341 406" stroke="#333333" stroke-width="0.4492" stroke-miterlimit="10" stroke-linejoin="round"/>
<path d="M343 406L348 407" stroke="#333333" stroke-width="0.4492" stroke-miterlimit="10" stroke-linejoin="round"/>
<path d="M332 404C332 404 336.392 408.571 346 414" stroke="#333333" stroke-width="0.4492" stroke-miterlimit="10" stroke-linejoin="round"/>
<path d="M311.921 418C310.177 413.657 313 411 313 411C313 411 308.722 413.385 309.014 416.914" stroke="#333333" stroke-width="0.4492" stroke-miterlimit="10" stroke-linejoin="round"/>
<path d="M354 376C354 376 356.25 385.135 354 394" stroke="#333333" stroke-width="0.4492" stroke-miterlimit="10" stroke-linejoin="round"/>
<path d="M210.089 206.458C210.089 206.458 215.352 210.865 219.563 209.848C221.716 209.327 215.352 204.084 212.802 202.361C210.958 201.114 207.123 203.248 210.089 206.458Z" fill="#333333"/>
<path d="M169.501 225.198C169.501 225.198 167.34 232.216 168.204 236.344C169.068 240.472 172.094 235.931 172.526 233.042C172.959 230.152 173 224 173 224L169.501 225.198Z" fill="#333333"/>
<path d="M177.132 139.848C177.132 139.848 170.619 143.192 171.401 152.241C172.183 161.29 174.159 182.069 172.282 185.812C170.404 189.555 167.248 190.064 168.163 197.562C169.079 205.06 167.965 227.007 170.217 227.982C172.47 228.957 180.032 190.775 180.982 184.217C181.932 177.66 188.37 154.092 188.37 154.092C188.37 154.092 197.684 177.153 198.512 181.128C199.179 184.329 206.641 199.504 209.524 205.299C210.081 206.417 211.56 206.662 212.45 205.786C212.917 205.326 213.105 204.659 212.943 204.022C211.61 198.804 205.63 175.275 205.778 173.553C205.943 171.615 201.739 152.509 199.853 147.27C197.966 142.031 190.867 134 190.867 134L177.132 139.848Z" fill="white" stroke="#333333" stroke-width="0.6738" stroke-miterlimit="10" stroke-linecap="round" stroke-linejoin="round"/>
<path d="M161.41 84.537C161.41 84.537 151.65 88.5248 154.533 94.3199C157.415 100.115 163.278 97.6488 164.11 101.05C164.942 104.451 156.292 112.975 158.833 118.371C161.374 123.767 163.131 126.64 162.436 130.282C161.742 133.925 157.871 137.878 160.882 142.204C163.892 146.529 167.852 148.741 173.96 147.776C180.068 146.811 184.044 114.204 180.895 102.836C177.746 91.4654 168.168 84.7356 165.958 84.1791C163.748 83.6238 161.41 84.537 161.41 84.537Z" fill="#333333"/>
<path d="M162 88C162 88 157.004 90.1876 158.179 93.9375C159.354 97.6873 162 98 162 98" stroke="white" stroke-width="0.2246" stroke-miterlimit="10" stroke-linejoin="round"/>
<path d="M191.929 117.007C191.517 115.618 188.911 112.144 188.911 112.144L188.42 111.179C186.974 105.487 185.592 101 185.592 101L171.883 104.985L162 114.877L177.432 139.471C177.432 139.471 186.462 142.609 191.099 133.599C192.021 131.808 191.757 127.729 190.986 123.046C191.356 121.369 192.258 118.119 191.929 117.007Z" fill="white" stroke="#333333" stroke-width="0.6738" stroke-miterlimit="10" stroke-linecap="round" stroke-linejoin="round"/>
<path d="M173 113C175.209 113 177 111.209 177 109C177 106.791 175.209 105 173 105C170.791 105 169 106.791 169 109C169 111.209 170.791 113 173 113Z" fill="#9B5FD3" stroke="#333333" stroke-width="0.4492" stroke-miterlimit="10" stroke-linecap="round"/>
<path d="M171.808 181.506C171.808 181.506 179.115 185.387 188.51 183.466C197.904 181.547 205.981 174.256 205.981 174.256C206.288 173.812 202.809 151.652 200.829 144.414C198.647 136.438 195.392 131.561 192.644 132.031C192.644 132.031 190.014 136.639 186.256 138.174C182.498 139.71 177.5 140.124 177.5 140.124C177.5 140.124 175.359 140.478 172.729 145.469C170.099 150.46 171.056 178.051 171.808 181.506Z" fill="#333333"/>
<path d="M196 143C196 143 193.943 156.247 187 163" stroke="white" stroke-width="0.2246" stroke-miterlimit="10" stroke-linejoin="round"/>
<path d="M192 160C192 160 187.898 168.585 182 171" stroke="white" stroke-width="0.2246" stroke-miterlimit="10" stroke-linejoin="round"/>
<path d="M166 102.185C166 102.185 168.176 106.039 170.353 109.893C172.529 113.748 177.288 112.105 175.671 106.664C174.053 101.224 172.33 97 172.33 97L166 102.185Z" fill="white" stroke="#333333" stroke-width="0.6738" stroke-miterlimit="10" stroke-linecap="round" stroke-linejoin="round"/>
<path d="M161.001 92.9255C161.001 92.9255 160.789 103.847 168.618 107.427C176.446 111.007 178.043 96.9204 176.437 89.8552C174.833 82.7914 161.485 83.1203 161.001 92.9255Z" fill="white" stroke="#333333" stroke-width="0.6738" stroke-miterlimit="10" stroke-linecap="round" stroke-linejoin="round"/>
<path d="M164.141 87.7017C164.141 87.7017 168.766 94.0439 171.937 95.8043C175.108 97.5647 176.384 99.9025 176.384 99.9025C176.384 99.9025 177.755 101.135 178.371 111.217C178.988 121.299 186.922 123.47 186.995 118.277C187.069 113.083 186.326 104.475 186.326 104.475C186.326 104.475 186.715 95.5949 181.179 86.9453C175.644 78.2957 161.044 80.7491 159.295 83.9398C157.546 87.1306 164.141 87.7017 164.141 87.7017Z" fill="#333333"/>
<path d="M163 86C163 86 168.145 86.2994 172.381 90.7871C176.618 95.2748 181.158 101.559 186 100.96" stroke="white" stroke-width="0.2246" stroke-miterlimit="10" stroke-linejoin="round"/>
<path d="M161 85.0069C161 85.0069 163.682 81.7231 168.895 83.5565C174.107 85.3898 178.706 95.7782 183 97" stroke="white" stroke-width="0.2246" stroke-miterlimit="10" stroke-linejoin="round"/>
<path d="M176 100C176 100 180.302 101.911 180.302 106.734C180.302 111.558 181.77 120 185 120" stroke="white" stroke-width="0.2246" stroke-miterlimit="10" stroke-linejoin="round"/>
<path d="M161.74 115.043C161.74 115.043 156.623 120.978 163.939 126.42C166.765 128.522 180.715 133.943 185.564 135.796C186.594 136.19 187.751 136.004 188.61 135.31L208.108 119.545C208.108 119.545 212.077 119.754 213.143 118.679C213.882 117.932 216.15 115.458 217.467 114.016C218.052 113.376 218.166 112.434 217.757 111.669C217.308 110.825 216.336 110.412 215.425 110.676L212.016 111.66L212.565 110.55C212.843 109.99 212.587 109.31 212.01 109.076C211.588 108.907 211.107 109.025 210.811 109.374L209.175 111.301L207.044 115.603L185.355 125.88L167.327 116.964" fill="white"/>
<path d="M161.74 115.043C161.74 115.043 156.623 120.978 163.939 126.42C166.765 128.522 180.715 133.943 185.564 135.796C186.594 136.19 187.751 136.004 188.61 135.31L208.108 119.545C208.108 119.545 212.077 119.754 213.143 118.679C213.882 117.932 216.15 115.458 217.467 114.016C218.052 113.376 218.166 112.434 217.757 111.669C217.308 110.825 216.336 110.412 215.425 110.676L212.016 111.66L212.565 110.55C212.843 109.99 212.587 109.31 212.01 109.076C211.588 108.907 211.107 109.025 210.811 109.374L209.175 111.301L207.044 115.603L185.355 125.88L167.327 116.964" stroke="#333333" stroke-width="0.6738" stroke-miterlimit="10" stroke-linecap="round" stroke-linejoin="round"/>
<path d="M174.239 121C174.239 121 168.953 124 170.186 130L171.948 131C171.948 131 170.891 124 176 122.201L174.239 121Z" fill="#9B5FD3" stroke="#333333" stroke-width="0.4492" stroke-miterlimit="10" stroke-linecap="round"/>
<path d="M169 116L171 119" stroke="#333333" stroke-width="0.4492" stroke-miterlimit="10" stroke-linecap="round" stroke-linejoin="round"/>
<path d="M163 95.6789C163 95.6789 163.305 94.82 164.531 95.0344C165.755 95.2488 166.265 99.6543 166.469 100.299C166.673 100.943 167.388 101.266 168 100.729" stroke="#333333" stroke-width="0.4492" stroke-miterlimit="10" stroke-linecap="round" stroke-linejoin="round"/>
<path d="M167 94C167 94 167.285 92.3318 169 93.3047" stroke="#333333" stroke-width="0.4492" stroke-miterlimit="10" stroke-linecap="round" stroke-linejoin="round"/>
<path d="M168 103.561C168 103.561 169.936 105.251 171 102" stroke="#333333" stroke-width="0.4492" stroke-miterlimit="10" stroke-linejoin="round"/>
<path d="M164.959 98.4379C165.068 98.712 164.951 98.9621 164.697 98.9961C164.444 99.0302 164.15 98.8361 164.041 98.5621C163.932 98.288 164.049 98.0379 164.303 98.0039C164.556 97.9698 164.85 98.1639 164.959 98.4379Z" fill="#333333"/>
<path d="M169.959 96.438C170.068 96.712 169.951 96.9621 169.697 96.9961C169.444 97.0301 169.15 96.8361 169.041 96.5622C168.932 96.2882 169.049 96.039 169.303 96.0041C169.556 95.9691 169.85 96.164 169.959 96.438Z" fill="#333333"/>
<path d="M217 111L212 113" stroke="#333333" stroke-width="0.4492" stroke-miterlimit="10" stroke-linecap="round" stroke-linejoin="round"/>
<path d="M218 112L213 115" stroke="#333333" stroke-width="0.4492" stroke-miterlimit="10" stroke-linecap="round" stroke-linejoin="round"/>
<path d="M217 115L214 116" stroke="#333333" stroke-width="0.4492" stroke-miterlimit="10" stroke-linecap="round" stroke-linejoin="round"/>
<path d="M212 112L210 113" stroke="#333333" stroke-width="0.4492" stroke-miterlimit="10" stroke-linecap="round" stroke-linejoin="round"/>
</svg>
