<?xml version="1.0" encoding="UTF-8"?>
<svg xmlns="http://www.w3.org/2000/svg" xmlns:xlink="http://www.w3.org/1999/xlink" viewBox="0 0 1672 1301">
  <defs>
    <clipPath id="clippath">
      <path d="M1278.99,1147.13h0s0-.01,0-.01c.15-1.76.22-3.54.21-5.32,0-1.19-.05-2.38-.12-3.56l.27-26.44-7.9-.13c-21.83-41.57-87.3-71.57-164.55-71.25-73.08.3-135.39,27.64-160.1,65.94l-10.85-.18-.52,37.03c.23,56.38,77.37,101.77,172.3,101.38,91.92-.38,166.8-43.53,171.25-97.45Z" fill="none" stroke-width="0"/>
    </clipPath>
    <clipPath id="clippath-1">
      <path d="M430.55,803.04h0s0,0,0,0c-1.49-.91-3.02-1.75-4.59-2.54-1.05-.52-2.11-1.01-3.18-1.47l-23.14-11.91-3.6,6.89c-46.2.84-101.5,45.18-135.34,113.27-32.01,64.41-35.48,131.29-12.71,169.94l-4.95,9.46,29.25,17.78c53.52,26.31,127.96-23.45,169.54-107.12,40.26-81.01,34.18-166.58-11.28-194.31Z" fill="none" stroke-width="0"/>
    </clipPath>
    <clipPath id="clippath-2">
      <path d="M1346.68,754.93c-29.62-12.38-59.34-13.64-85.42-5.69h0s-.08.02-.08.02c-2.33.71-4.63,1.5-6.9,2.35l-16.3,5.56.67,1.77c-27.65,15.69-48.74,43.29-57.21,79.76-17.88,76.93,27.11,164.16,100.49,194.82,21.89,9.15,43.83,12.22,64.32,10l2.64,2.06,21.64-7.39c.23-.08.46-.16.7-.24h.03s0,0,0,0c36.7-12.66,66.04-43.79,75.92-88.21,17.6-79.19-27.11-164.16-100.5-194.82Z" fill="none" stroke-width="0"/>
    </clipPath>
    <clipPath id="clippath-3">
      <path d="M716.1,366.72l-15.02-8.88c28.85,17.05,65.31,21.35,103.11,8.91,2.06-.68,4.12-1.4,6.15-2.17,35.49-13.34,66.79-39.72,88.69-74.9,23.15-37.19,33-79.74,27.73-119.83l15.02,8.88c5.27,40.09-4.58,82.64-27.73,119.83-21.9,35.18-53.2,61.56-88.69,74.9-2.04.77-4.09,1.49-6.15,2.17-37.8,12.44-74.25,8.14-103.11-8.91Z" fill="none" stroke-width="0"/>
    </clipPath>
    <clipPath id="clippath-4">
      <path d="M867.84,75.43l15.02,8.88c1.11.65,2.21,1.33,3.3,2.02,30.6,19.5,50.35,52.32,55.62,92.4l-15.02-8.88c-5.27-40.08-25.02-72.9-55.62-92.4-1.09-.69-2.19-1.37-3.3-2.02Z" fill="none" stroke-width="0"/>
    </clipPath>
    <clipPath id="clippath-5">
      <path d="M764.74,66.62c36.65-12.06,73.09-8.92,103.09,8.81l15.02,8.88c-30-17.72-66.44-20.87-103.09-8.81-2.04.67-4.07,1.38-6.08,2.14l-15.02-8.88c2.01-.76,4.04-1.47,6.08-2.14Z" fill="none" stroke-width="0"/>
    </clipPath>
    <clipPath id="clippath-6">
      <path d="M642.17,263.51c-4.63-35.25,2.69-71.52,18.68-103.54,5.01,2.96,10.01,5.92,15.02,8.88-16,32.01-23.32,68.28-18.68,103.54,5.64,42.91,27.9,76.02,58.97,94.36l-15.02-8.88c-31.07-18.34-53.33-51.45-58.97-94.36Z" fill="none" stroke-width="0"/>
    </clipPath>
    <clipPath id="clippath-7">
      <path d="M660.85,159.98c20.57-41.18,55.5-75.32,97.81-91.22l15.02,8.88c-42.31,15.91-77.23,50.05-97.81,91.22-5.01-2.96-10.01-5.92-15.02-8.88Z" fill="none" stroke-width="0"/>
    </clipPath>
    <clipPath id="clippath-8">
      <path d="M714.51,369.4l-15.02-8.88c-31.63-18.69-54.29-52.42-60.03-96.12-10.79-82.13,42.1-169.65,118.73-198.46,2.05-.77,4.1-1.49,6.18-2.18,37.35-12.29,74.48-9.08,105.05,8.98l15.02,8.88c-30.57-18.06-67.7-21.28-105.05-8.98-2.08.68-4.13,1.41-6.18,2.18-76.63,28.81-129.51,116.33-118.73,198.46,5.74,43.7,28.4,77.43,60.03,96.12Z" fill="none" stroke-width="0"/>
    </clipPath>
    <clipPath id="clippath-9">
      <path d="M992.37,118.76l-15.02-8.88c3.69-4.22,5.87-9.52,6.15-14.9l15.02,8.88c-.28,5.38-2.46,10.67-6.15,14.9Z" fill="none" stroke-width="0"/>
    </clipPath>
    <clipPath id="clippath-10">
      <path d="M975.73,78.95l15.02,8.88c1.11.66,2.14,1.47,3.07,2.43,3.31,3.39,4.97,8.23,4.7,13.61l-15.02-8.88c.27-5.39-1.39-10.22-4.7-13.61-.93-.96-1.96-1.77-3.07-2.43Z" fill="none" stroke-width="0"/>
    </clipPath>
    <clipPath id="clippath-11">
      <path d="M966.03,77.03c3.54-.42,6.88.25,9.7,1.92l15.02,8.88c-2.82-1.67-6.16-2.34-9.7-1.92-.26-.15-.6-.36-.86-.51-.13-.08-.31-.18-.44-.26-2.23-1.32-4.47-2.64-6.7-3.96-1.29-.76-2.58-1.53-3.88-2.29-.46-.27-.92-.55-1.39-.82-.44-.26-.88-.52-1.33-.78-.13-.08-.32-.15-.43-.25,0,0,0,0,0,0Z" fill="none" stroke-width="0"/>
    </clipPath>
    <clipPath id="clippath-12">
      <path d="M981.04,85.9c-.15-.03-.3-.18-.43-.25-2.36-1.4-4.72-2.79-7.08-4.19,2.5,1.48,5.01,2.96,7.51,4.44,0,0,0,0,0,0Z" fill="none" stroke-width="0"/>
    </clipPath>
    <clipPath id="clippath-13">
      <path d="M966.02,77.03c.15.03.3.18.43.25,1.22.72,2.44,1.44,3.66,2.17,1.3.77,2.61,1.54,3.91,2.31,2.34,1.38,4.68,2.76,7.02,4.15-1.49.18-2.96.54-4.39,1.08l-15.02-8.88c1.43-.54,2.9-.9,4.39-1.08Z" fill="none" stroke-width="0"/>
    </clipPath>
    <clipPath id="clippath-14">
      <path d="M961.64,78.1c5,2.96,10.01,5.92,15.02,8.88-3.32,1.25-6.42,3.43-9,6.39l-15.02-8.88c2.58-2.95,5.68-5.14,9-6.39Z" fill="none" stroke-width="0"/>
    </clipPath>
    <clipPath id="clippath-15">
      <path d="M977.63,75.73l15.02,8.88c-3.32-1.96-7.25-2.76-11.42-2.26-1.75.21-3.48.64-5.16,1.27-3.91,1.47-7.56,4.04-10.6,7.52l-15.02-8.88c3.04-3.48,6.69-6.05,10.6-7.52,1.68-.63,3.41-1.06,5.16-1.27,4.17-.49,8.1.3,11.42,2.26Z" fill="none" stroke-width="0"/>
    </clipPath>
    <clipPath id="clippath-16">
      <path d="M818.66,315.28l-15.02-8.88c.47.28,1.04.3,1.58.1.37-.14.72-.38,1.01-.71l15.02,8.88c-.29.34-.64.58-1.01.71-.54.2-1.11.18-1.58-.1Z" fill="none" stroke-width="0"/>
    </clipPath>
    <clipPath id="clippath-17">
      <path d="M803.64,306.41s-.03-.02-.05-.03l15.02,8.88s.03.02.05.03c-4.51-2.66-10.51-6.21-15.02-8.88Z" fill="none" stroke-width="0"/>
    </clipPath>
    <clipPath id="clippath-18">
      <path d="M816.77,318.5l-15.02-8.88s-.09-.06-.14-.09l15.02,8.88s.09.06.14.09Z" fill="none" stroke-width="0"/>
    </clipPath>
    <clipPath id="clippath-19">
      <path d="M814.67,262.46l-15.02-8.88c1.21.71,2.68.77,4.07.25.94-.35,1.85-.98,2.61-1.84l15.02,8.88c-.76.87-1.66,1.49-2.61,1.84-1.39.52-2.86.46-4.07-.25Z" fill="none" stroke-width="0"/>
    </clipPath>
    <clipPath id="clippath-20">
      <path d="M816.57,259.25l-15.02-8.88c.47.28,1.04.3,1.57.09.37-.14.72-.38,1.02-.72l15.02,8.88c-.29.34-.65.58-1.02.72-.54.2-1.11.18-1.57-.09Z" fill="none" stroke-width="0"/>
    </clipPath>
    <clipPath id="clippath-21">
      <path d="M814.67,262.46l-15.02-8.88s-.08-.05-.13-.08l15.02,8.88s.08.05.13.08Z" fill="none" stroke-width="0"/>
    </clipPath>
    <clipPath id="clippath-22">
      <path d="M711.08,204.17c4.71-1.54,9.39-1.13,13.25,1.15l15.02,8.88c-3.86-2.28-8.54-2.68-13.25-1.15-5.01-2.96-10.01-5.92-15.02-8.88Z" fill="none" stroke-width="0"/>
    </clipPath>
    <clipPath id="clippath-23">
      <path d="M724.33,205.32l15.02,8.88c.16.09.31.19.47.29l-15.02-8.88c-.15-.1-.31-.19-.47-.29Z" fill="none" stroke-width="0"/>
    </clipPath>
    <clipPath id="clippath-24">
      <path d="M695.22,229.55c6.5,3.85,6.67,3.95,7.51,4.44,2.5,1.48,5.01,2.96,7.51,4.44.67,5.17,3.21,9.41,7.15,11.94l-15.02-8.88c-3.94-2.53-6.48-6.77-7.15-11.94Z" fill="none" stroke-width="0"/>
    </clipPath>
    <clipPath id="clippath-25">
      <path d="M710.24,238.43c-2.5-1.48-5.01-2.96-7.51-4.44,2.5,1.48,5.01,2.95,7.51,4.43,0,0,0,0,0,0Z" fill="none" stroke-width="0"/>
    </clipPath>
    <clipPath id="clippath-26">
      <path d="M713.84,222.97c-2.5-1.48-5.01-2.96-7.51-4.44,2.5,1.48,5.01,2.95,7.51,4.43,0,0,0,0,0,0Z" fill="none" stroke-width="0"/>
    </clipPath>
    <clipPath id="clippath-27">
      <path d="M698.83,214.08c2.82-4.51,6.85-7.9,11.41-9.62,5.01,2.96,10.01,5.92,15.02,8.88-4.56,1.72-8.59,5.11-11.41,9.62-5-2.96-10.01-5.91-15.02-8.86,5,2.96,10.01,5.91,15.01,8.87-2.99,4.79-4.27,10.28-3.6,15.46-5.01-2.96-10.01-5.91-15.02-8.87,0,0,0,0,0,0-.67-5.18.62-10.67,3.61-15.46Z" fill="none" stroke-width="0"/>
    </clipPath>
    <clipPath id="clippath-28">
      <path d="M726.21,202.1l15.02,8.88c-4.53-2.68-10.03-3.15-15.58-1.34-.33.11-.66.22-.98.34-5.36,2.02-10.11,6.01-13.43,11.32-3.52,5.64-5.03,12.1-4.25,18.19.79,6.1,3.78,11.08,8.42,14.06l-15.02-8.88c-4.64-2.98-7.63-7.96-8.42-14.06-.79-6.09.73-12.55,4.25-18.19,3.32-5.31,8.07-9.3,13.43-11.32.33-.12.65-.24.98-.34,5.55-1.81,11.05-1.33,15.58,1.34Z" fill="none" stroke-width="0"/>
    </clipPath>
  </defs>
  <g isolation="isolate">
    <g id="Layer_1" data-name="Layer 1">
      <g>
        <g>
          <path d="M1090.69,863.31s68.22-20.43,64.13-43.91c-4.09-23.49-35.23-41.98-40.08-65.93-4.85-23.94,18.23-55.6,61.33-65.82,43.1-10.21,106.82-5.1,112.23-45.95s4.39-114.65,4.39-114.65" fill="none" stroke="#000" stroke-miterlimit="10" stroke-width="5"/>
          <g>
            <path d="M1282.43,499.76h20.68c1.06,0,1.91.86,1.91,1.91v19.47c0,4.97-4.03,9-9,9h-6.51c-4.97,0-9-4.03-9-9v-19.47c0-1.06.86-1.91,1.91-1.91Z" stroke-width="0"/>
            <rect x="1281.88" y="504.87" width="21.62" height="1.79" fill="#939393" stroke-width="0"/>
            <rect x="1281.88" y="507.72" width="21.62" height="1.79" fill="#939393" stroke-width="0"/>
          </g>
        </g>
        <g>
          <path d="M1079.73,894.29s165.1-53.61,97.79-109.22c-118.61-97.98,136.93-39.62,170.75-130.47,20.85-56.01,17.91-152.46,17.91-152.46" fill="none" stroke="#000" stroke-miterlimit="10" stroke-width="5"/>
          <g>
            <path d="M1355.58,473.91h20.68c1.06,0,1.91.86,1.91,1.91v19.47c0,4.97-4.03,9-9,9h-6.51c-4.97,0-9-4.03-9-9v-19.47c0-1.06.86-1.91,1.91-1.91Z" stroke-width="0"/>
            <rect x="1355.03" y="479.02" width="21.62" height="1.79" fill="#939393" stroke-width="0"/>
            <rect x="1355.03" y="481.87" width="21.62" height="1.79" fill="#939393" stroke-width="0"/>
          </g>
        </g>
        <g>
          <path d="M1488.83,331.15c-7.38-66.96-64.13-119.05-133.06-119.05-13.35,0-26.23,1.96-38.39,5.6-23.72-37.54-65.58-62.48-113.27-62.48-72.64,0-131.76,57.85-133.82,129.99-39.83,10.07-69.32,46.15-69.32,89.11,0,50.76,41.15,91.91,91.92,91.91,5.49,0,10.87-.48,16.1-1.41,23.78,37.22,65.46,61.9,112.9,61.9,42.24,0,79.9-19.56,104.43-50.12,9.48,2.13,19.33,3.26,29.45,3.26,31.47,0,60.4-10.86,83.26-29.04,11.85,10.02,27.16,16.08,43.89,16.08,37.56,0,68.01-30.45,68.01-68.01,0-35.57-27.31-64.74-62.1-67.74Z" fill="#f4f4f4" stroke-width="0"/>
          <path d="M1544.12,428.56c-42.03,42.16-111.16-26.86-111.16-26.86-51.32,49.02-115.66,5.36-115.66,5.36,0,0-19.92,48.26-88.85,50.55-68.94,2.3-125.62-53.62-125.62-53.62-61.85-10.14-84.44-46.45-92.64-69.85-5.9,12.13-9.23,25.75-9.23,40.16,0,50.76,41.15,91.91,91.92,91.91,5.49,0,10.87-.48,16.1-1.41,23.78,37.22,65.46,61.9,112.9,61.9,42.24,0,79.9-19.56,104.43-50.12,9.48,2.13,19.33,3.26,29.45,3.26,31.47,0,60.4-10.86,83.26-29.04,11.85,10.02,27.16,16.08,43.89,16.08,26.92,0,50.19-15.65,61.21-38.34Z" fill="#cfdbe5" stroke-width="0"/>
          <path d="M1488.83,331.15c-7.38-66.96-64.13-119.05-133.06-119.05-13.35,0-26.23,1.96-38.39,5.6-23.72-37.54-65.58-62.48-113.27-62.48-72.64,0-131.76,57.85-133.82,129.99-39.83,10.07-69.32,46.15-69.32,89.11,0,50.76,41.15,91.91,91.92,91.91,5.49,0,10.87-.48,16.1-1.41,23.78,37.22,65.46,61.9,112.9,61.9,42.24,0,79.9-19.56,104.43-50.12,9.48,2.13,19.33,3.26,29.45,3.26,31.47,0,60.4-10.86,83.26-29.04,11.85,10.02,27.16,16.08,43.89,16.08,37.56,0,68.01-30.45,68.01-68.01,0-35.57-27.31-64.74-62.1-67.74Z" fill="none" stroke="#000" stroke-miterlimit="10" stroke-width="2"/>
        </g>
        <g>
          <g>
            <ellipse cx="1371.31" cy="983.5" rx="164.94" ry="73.71" transform="translate(-50.41 74.39) rotate(-3.05)" fill="#ab99c4" mix-blend-mode="multiply" opacity=".6" stroke-width="0"/>
            <g>
              <g>
                <g isolation="isolate">
                  <polygon points="1114.74 679.83 1113.21 1016.16 778.23 864.62 779.76 528.3 1114.74 679.83" fill="#020305" stroke-width="0"/>
                  <polygon points="779.76 528.3 778.23 864.62 445.42 1016.16 446.95 679.84 779.76 528.3" fill="#030408" stroke-width="0"/>
                  <polygon points="781.93 831.37 780.4 1167.7 445.42 1016.16 446.95 679.84 781.93 831.37" fill="#586389" stroke-width="0"/>
                  <polygon points="1114.74 679.83 1113.21 1016.16 780.4 1167.7 781.93 831.37 1114.74 679.83" fill="#7f8ec5" stroke-width="0"/>
                  <polygon points="1114.74 680.32 781.93 831.86 446.95 680.33 779.76 528.79 1114.74 680.32" stroke-width="0"/>
                  <g>
                    <path d="M781.95,836.44c0-.82-.47-1.56-1.22-1.9l-339.08-153.39c-1.37-.62-2.92.38-2.93,1.88l-1.51,331.79c0,.82.47,1.56,1.22,1.9l339.08,153.39c1.37.62,2.92-.38,2.93-1.88l1.51-331.79Z" fill="#f2f2f2" stroke="#000" stroke-miterlimit="10" stroke-width="2"/>
                    <path d="M1120.28,681.05l-337.23,153.55c-.67.3-1.1.97-1.1,1.7l-1.51,332.19c0,1.37,1.41,2.29,2.66,1.72l337.23-153.55c.67-.3,1.1-.97,1.1-1.7l1.51-332.19c0-1.37-1.41-2.29-2.66-1.72Z" fill="#cecece" stroke="#000" stroke-miterlimit="10" stroke-width="2"/>
                  </g>
                  <path d="M779.96,525.16l341.9,154.66c.43.19.43.8,0,.99l-339.67,154.66c-.14.07-.31.07-.45,0l-341.9-154.66c-.43-.19-.43-.8,0-.99l339.67-154.66c.14-.07.31-.07.45,0ZM781.93,831.86l331.71-151.04c.43-.19.43-.8,0-.99l-333.66-150.94c-.14-.06-.31-.06-.45,0l-331.49,150.94c-.43.19-.43.8,0,.99l333.89,151.04" fill="#030409" stroke-width="0"/>
                </g>
                <g>
                  <g>
                    <polygon points="762.91 935.55 455.27 801.08 455.27 753.47 762.91 887.94 762.91 935.55" fill="#a168d5" stroke="#000" stroke-miterlimit="10" stroke-width="2.92"/>
                    <g>
                      <ellipse cx="509.35" cy="795.98" rx="12.16" ry="18.67" transform="translate(-377.64 469.99) rotate(-37.21)" fill="#fff" stroke-width="0"/>
                      <ellipse cx="550.51" cy="813.96" rx="12.16" ry="18.67" transform="translate(-380.14 498.54) rotate(-37.21)" fill="#7fb8db" stroke-width="0"/>
                      <ellipse cx="594.21" cy="833.06" rx="12.16" ry="18.67" transform="translate(-382.79 528.85) rotate(-37.21)" fill="#ee5871" stroke-width="0"/>
                      <polygon points="705.72 879.82 632.1 847.65 632.1 835.45 705.72 867.63 705.72 879.82" fill="#fff" stroke-width="0"/>
                      <polygon points="705.72 895.96 632.1 863.78 632.1 851.59 705.72 883.76 705.72 895.96" fill="#fff" stroke-width="0"/>
                    </g>
                    <polygon points="462.88 794.85 462.88 756.8 455.27 753.47 455.27 801.08 762.91 935.55 762.91 923.57 462.88 794.85" stroke="#000" stroke-miterlimit="10" stroke-width="2.92"/>
                  </g>
                  <g>
                    <polygon points="762.91 1016.67 455.27 882.2 455.27 834.59 762.91 969.06 762.91 1016.67" fill="#a168d5" stroke="#000" stroke-miterlimit="10" stroke-width="2.92"/>
                    <g>
                      <ellipse cx="509.35" cy="876.3" rx="12.16" ry="18.67" transform="translate(-426.21 486.34) rotate(-37.21)" fill="#fff" stroke-width="0"/>
                      <ellipse cx="550.51" cy="894.29" rx="12.16" ry="18.67" transform="translate(-428.71 514.89) rotate(-37.21)" fill="#7fb8db" stroke-width="0"/>
                      <ellipse cx="594.21" cy="913.39" rx="12.16" ry="18.67" transform="translate(-431.36 545.2) rotate(-37.21)" fill="#ee5871" stroke-width="0"/>
                      <polygon points="705.72 960.15 632.1 927.98 632.1 915.78 705.72 947.95 705.72 960.15" fill="#fff" stroke-width="0"/>
                      <polygon points="705.72 976.28 632.1 944.11 632.1 931.91 705.72 964.09 705.72 976.28" fill="#fff" stroke-width="0"/>
                    </g>
                    <polygon points="462.88 875.97 462.88 837.92 455.27 834.59 455.27 882.2 762.91 1016.67 762.91 1004.69 462.88 875.97" stroke="#000" stroke-miterlimit="10" stroke-width="2.92"/>
                  </g>
                  <g>
                    <polygon points="762.91 1097.79 455.27 963.32 455.27 915.71 762.91 1050.19 762.91 1097.79" fill="#a168d5" stroke="#000" stroke-miterlimit="10" stroke-width="2.92"/>
                    <g>
                      <ellipse cx="509.35" cy="958" rx="12.16" ry="18.67" transform="translate(-475.61 502.97) rotate(-37.21)" fill="#fff" stroke-width="0"/>
                      <ellipse cx="550.51" cy="975.98" rx="12.16" ry="18.67" transform="translate(-478.11 531.52) rotate(-37.21)" fill="#7fb8db" stroke-width="0"/>
                      <ellipse cx="594.21" cy="995.08" rx="12.16" ry="18.67" transform="translate(-480.76 561.83) rotate(-37.21)" fill="#ee5871" stroke-width="0"/>
                      <polygon points="705.72 1041.84 632.1 1009.67 632.1 997.47 705.72 1029.65 705.72 1041.84" fill="#fff" stroke-width="0"/>
                      <polygon points="705.72 1057.98 632.1 1025.8 632.1 1013.61 705.72 1045.78 705.72 1057.98" fill="#fff" stroke-width="0"/>
                    </g>
                    <polygon points="462.88 957.1 462.88 919.04 455.27 915.71 455.27 963.32 762.91 1097.79 762.91 1085.81 462.88 957.1" stroke="#000" stroke-miterlimit="10" stroke-width="2.92"/>
                  </g>
                </g>
                <g>
                  <g>
                    <polygon points="799.75 935.55 1107.39 801.08 1107.39 753.47 799.75 887.94 799.75 935.55" fill="#a168d5" stroke="#000" stroke-miterlimit="10" stroke-width="2.92"/>
                    <polygon points="1099.77 794.85 1099.77 756.8 1107.39 753.47 1107.39 801.08 799.75 935.55 799.75 923.57 1099.77 794.85" stroke="#000" stroke-miterlimit="10" stroke-width="2.92"/>
                  </g>
                  <g>
                    <polygon points="799.75 1016.67 1107.39 882.2 1107.39 834.59 799.75 969.06 799.75 1016.67" fill="#a168d5" stroke="#000" stroke-miterlimit="10" stroke-width="2.92"/>
                    <polygon points="1099.77 875.97 1099.77 837.92 1107.39 834.59 1107.39 882.2 799.75 1016.67 799.75 1004.69 1099.77 875.97" stroke="#000" stroke-miterlimit="10" stroke-width="2.92"/>
                  </g>
                  <g>
                    <polygon points="799.75 1097.79 1107.39 963.32 1107.39 915.71 799.75 1050.19 799.75 1097.79" fill="#a168d5" stroke="#000" stroke-miterlimit="10" stroke-width="2.92"/>
                    <polygon points="1099.77 957.1 1099.77 919.04 1107.39 915.71 1107.39 963.32 799.75 1097.79 799.75 1085.81 1099.77 957.1" stroke="#000" stroke-miterlimit="10" stroke-width="2.92"/>
                  </g>
                </g>
              </g>
              <g>
                <g isolation="isolate">
                  <polygon points="1114.74 314.78 1113.21 651.1 778.23 499.57 779.76 163.24 1114.74 314.78" fill="#020305" stroke-width="0"/>
                  <polygon points="779.76 163.24 778.23 499.57 445.42 651.11 446.95 314.78 779.76 163.24" fill="#030408" stroke-width="0"/>
                  <polygon points="781.93 466.32 780.4 802.64 445.42 651.11 446.95 314.78 781.93 466.32" fill="#586389" stroke-width="0"/>
                  <polygon points="1114.74 314.78 1113.21 651.1 780.4 802.64 781.93 466.32 1114.74 314.78" fill="#7f8ec5" stroke-width="0"/>
                  <polygon points="1116.4 313.95 781.93 465.06 446.95 313.53 779.76 161.99 1116.4 313.95" fill="#ffeedc" stroke-width="0"/>
                  <g>
                    <path d="M1085.38,314.57l-303.06,137.99c-.3.14-.65.14-.95,0l-305.05-138c-.9-.41-.9-1.68,0-2.09l303.06-137.99c.3-.14.65-.14.95,0l305.05,138c.9.41.9,1.68,0,2.09Z" fill="#f2f2f2" stroke="#070707" stroke-miterlimit="10" stroke-width="2"/>
                    <path d="M1067.98,321.94l-287.61-130.11c-.28-.12-.59-.12-.87,0l-285.74,130.11-17.44-9.46,303.06-137.99,307.03,138.97-18.42,8.48Z" fill="#070707" stroke-width="0"/>
                  </g>
                  <g>
                    <path d="M781.95,471.39c0-.82-.47-1.56-1.22-1.9l-339.08-153.39c-1.37-.62-2.92.38-2.93,1.88l-1.51,331.79c0,.82.47,1.56,1.22,1.9l339.08,153.39c1.37.62,2.92-.38,2.93-1.88l1.51-331.79Z" fill="#f2f2f2" stroke="#000" stroke-miterlimit="10" stroke-width="2"/>
                    <path d="M1120.28,315.99l-337.23,153.55c-.67.3-1.1.97-1.1,1.7l-1.51,332.19c0,1.37,1.41,2.29,2.66,1.72l337.23-153.55c.67-.3,1.1-.97,1.1-1.7l1.51-332.19c0-1.37-1.41-2.29-2.66-1.72Z" fill="#cecece" stroke="#000" stroke-miterlimit="10" stroke-width="2"/>
                  </g>
                  <path d="M779.73,158.77l341.63,154.54c.62.28.62,1.16,0,1.44l-339.4,154.54-343.22-155.26,340.99-155.26ZM781.93,465.57l332.81-151.54-334.98-151.54-332.81,151.54,334.98,151.54" fill="#030409" stroke-width="0"/>
                </g>
                <g>
                  <g>
                    <polygon points="762.91 570.49 455.27 436.02 455.27 388.41 762.91 522.88 762.91 570.49" fill="#a168d5" stroke="#000" stroke-miterlimit="10" stroke-width="2.92"/>
                    <g>
                      <ellipse cx="509.35" cy="430.92" rx="12.16" ry="18.67" transform="translate(-156.9 395.7) rotate(-37.21)" fill="#fff" stroke-width="0"/>
                      <ellipse cx="550.51" cy="448.91" rx="12.16" ry="18.67" transform="translate(-159.4 424.24) rotate(-37.21)" fill="#7fb8db" stroke-width="0"/>
                      <ellipse cx="594.21" cy="468" rx="12.16" ry="18.67" transform="translate(-162.05 454.55) rotate(-37.21)" fill="#ee5871" stroke-width="0"/>
                      <polygon points="705.72 514.77 632.1 482.59 632.1 470.4 705.72 502.57 705.72 514.77" fill="#fff" stroke-width="0"/>
                      <polygon points="705.72 530.9 632.1 498.73 632.1 486.53 705.72 518.7 705.72 530.9" fill="#fff" stroke-width="0"/>
                    </g>
                    <polygon points="462.88 429.79 462.88 391.74 455.27 388.41 455.27 436.02 762.91 570.49 762.91 558.51 462.88 429.79" stroke="#000" stroke-miterlimit="10" stroke-width="2.92"/>
                  </g>
                  <g>
                    <polygon points="762.91 651.62 455.27 517.14 455.27 469.53 762.91 604.01 762.91 651.62" fill="#a168d5" stroke="#000" stroke-miterlimit="10" stroke-width="2.92"/>
                    <g>
                      <ellipse cx="509.35" cy="511.25" rx="12.16" ry="18.67" transform="translate(-205.47 412.04) rotate(-37.21)" fill="#fff" stroke-width="0"/>
                      <ellipse cx="550.51" cy="529.23" rx="12.16" ry="18.67" transform="translate(-207.97 440.59) rotate(-37.21)" fill="#7fb8db" stroke-width="0"/>
                      <ellipse cx="594.21" cy="548.33" rx="12.16" ry="18.67" transform="translate(-210.62 470.9) rotate(-37.21)" fill="#ee5871" stroke-width="0"/>
                      <polygon points="705.72 595.09 632.1 562.92 632.1 550.72 705.72 582.9 705.72 595.09" fill="#fff" stroke-width="0"/>
                      <polygon points="705.72 611.23 632.1 579.05 632.1 566.86 705.72 599.03 705.72 611.23" fill="#fff" stroke-width="0"/>
                    </g>
                    <polygon points="462.88 510.92 462.88 472.86 455.27 469.53 455.27 517.14 762.91 651.62 762.91 639.63 462.88 510.92" stroke="#000" stroke-miterlimit="10" stroke-width="2.92"/>
                  </g>
                  <g>
                    <polygon points="762.91 732.74 455.27 598.26 455.27 550.66 762.91 685.13 762.91 732.74" fill="#a168d5" stroke="#000" stroke-miterlimit="10" stroke-width="2.92"/>
                    <g>
                      <ellipse cx="509.35" cy="592.94" rx="12.16" ry="18.67" transform="translate(-254.87 428.67) rotate(-37.21)" fill="#fff" stroke-width="0"/>
                      <ellipse cx="550.51" cy="610.92" rx="12.16" ry="18.67" transform="translate(-257.37 457.22) rotate(-37.21)" fill="#7fb8db" stroke-width="0"/>
                      <ellipse cx="594.21" cy="630.02" rx="12.16" ry="18.67" transform="translate(-260.02 487.53) rotate(-37.21)" fill="#ee5871" stroke-width="0"/>
                      <polygon points="705.72 676.79 632.1 644.61 632.1 632.42 705.72 664.59 705.72 676.79" fill="#fff" stroke-width="0"/>
                      <polygon points="705.72 692.92 632.1 660.75 632.1 648.55 705.72 680.72 705.72 692.92" fill="#fff" stroke-width="0"/>
                    </g>
                    <polygon points="462.88 592.04 462.88 553.99 455.27 550.66 455.27 598.26 762.91 732.74 762.91 720.76 462.88 592.04" stroke="#000" stroke-miterlimit="10" stroke-width="2.92"/>
                  </g>
                </g>
                <g>
                  <g>
                    <polygon points="799.75 570.49 1107.39 436.02 1107.39 388.41 799.75 522.88 799.75 570.49" fill="#a168d5" stroke="#000" stroke-miterlimit="10" stroke-width="2.92"/>
                    <polygon points="1099.77 429.79 1099.77 391.74 1107.39 388.41 1107.39 436.02 799.75 570.49 799.75 558.51 1099.77 429.79" stroke="#000" stroke-miterlimit="10" stroke-width="2.92"/>
                  </g>
                  <g>
                    <polygon points="799.75 651.62 1107.39 517.14 1107.39 469.53 799.75 604.01 799.75 651.62" fill="#a168d5" stroke="#000" stroke-miterlimit="10" stroke-width="2.92"/>
                    <polygon points="1099.77 510.92 1099.77 472.86 1107.39 469.53 1107.39 517.14 799.75 651.62 799.75 639.63 1099.77 510.92" stroke="#000" stroke-miterlimit="10" stroke-width="2.92"/>
                  </g>
                  <g>
                    <polygon points="799.75 732.74 1107.39 598.26 1107.39 550.66 799.75 685.13 799.75 732.74" fill="#a168d5" stroke="#000" stroke-miterlimit="10" stroke-width="2.92"/>
                    <polygon points="1099.77 592.04 1099.77 553.99 1107.39 550.66 1107.39 598.26 799.75 732.74 799.75 720.76 1099.77 592.04" stroke="#000" stroke-miterlimit="10" stroke-width="2.92"/>
                  </g>
                </g>
              </g>
            </g>
            <g>
              <g>
                <path d="M1278.99,1147.13h0s0-.01,0-.01c.15-1.76.22-3.54.21-5.32,0-1.19-.05-2.38-.12-3.56l.27-26.44-7.9-.13c-21.83-41.57-87.3-71.57-164.55-71.25-73.08.3-135.39,27.64-160.1,65.94l-10.85-.18-.52,37.03c.23,56.38,77.37,101.77,172.3,101.38,91.92-.38,166.8-43.53,171.25-97.45Z" fill="#e0e0e0" stroke="#070404" stroke-miterlimit="10" stroke-width="2"/>
                <g clip-path="url(#clippath)">
                  <polygon points="957.01 1124.92 946.19 1223.4 909.81 1159.64 921.23 1079.26 957.01 1124.92" stroke="#070404" stroke-miterlimit="10" stroke-width="3.05"/>
                  <polygon points="980.22 1129.94 965.76 1242.04 993.95 1262.41 1011.36 1140.01 980.22 1129.94" stroke="#070404" stroke-miterlimit="10" stroke-width="3.05"/>
                  <polygon points="1018.46 1157.22 1002.85 1251.02 1019.77 1256.27 1032.88 1156.64 1018.46 1157.22" stroke="#070404" stroke-miterlimit="10" stroke-width="3.05"/>
                  <polygon points="1225.46 1127.24 1244.12 1306.04 1233.31 1313.82 1215.44 1131.11 1225.46 1127.24" stroke="#070404" stroke-miterlimit="10" stroke-width="3.05"/>
                </g>
                <path d="M1107.88,1214.58c-94.93.39-172.07-45-172.3-101.37-.23-56.38,76.54-102.4,171.46-102.79,94.93-.39,172.07,45,172.3,101.38.23,56.38-76.54,102.4-171.47,102.79Z" fill="#fff" stroke="#070404" stroke-miterlimit="10" stroke-width="2"/>
                <ellipse cx="1107.44" cy="1107.7" rx="145.87" ry="86.63" transform="translate(-4.53 4.55) rotate(-.23)" fill="#fff" stroke="#070404" stroke-miterlimit="10" stroke-width="2"/>
                <path d="M1253.17,1111.21c-3.79-45.93-67.8-82.26-146.05-81.94-78.24.32-141.95,37.17-145.37,83.11-.11-1.36-.17-2.72-.18-4.1-.2-47.84,64.95-86.9,145.52-87.23,80.56-.33,146.03,38.19,146.23,86.04,0,1.38-.04,2.75-.15,4.12Z" fill="#121216" stroke="#070404" stroke-miterlimit="10" stroke-width="2"/>
              </g>
              <g>
                <g>
                  <polygon points="1220.84 1099.85 1104.08 1066.97 1062.14 1112.15 1103.26 1151.52 1220.84 1099.85" fill="#8787dd" stroke="#000" stroke-miterlimit="10" stroke-width="1.78"/>
                  <polygon points="1219.33 1099.73 1128.19 1107.03 1103.26 1151.52 1219.33 1099.73" fill="#76ffe5" stroke-width="0"/>
                  <polygon points="1104.07 1067.88 1128.19 1107.03 1062.6 1112.11 1104.07 1067.88" fill="#5656b7" stroke="#000" stroke-miterlimit="10" stroke-width="1.78"/>
                  <polygon points="1103.13 1150.92 1128.18 1107.41 1062.6 1112.49 1103.13 1150.92" fill="#8787dd" stroke="#000" stroke-miterlimit="10" stroke-width="1.78"/>
                  <polygon points="1090.69 1068.04 1049.39 1113.23 1090.3 1152.62 990.96 1117.76 1090.69 1068.04" fill="#5656b7" stroke="#000" stroke-miterlimit="10" stroke-width="1.78"/>
                  <polygon points="1049.39 1113.23 990.96 1117.76 1090.3 1152.62 1049.39 1113.23" fill="#8787dd" stroke-width="0"/>
                  <line x1="1220.84" y1="1099.85" x2="1062.14" y2="1112.15" fill="none" stroke="#000" stroke-miterlimit="10" stroke-width="1.78"/>
                  <polyline points="1104.08 1066.97 1128.19 1107.03 1103.03 1151.62" fill="none" stroke="#000" stroke-miterlimit="10" stroke-width="1.78"/>
                  <line x1="1049.39" y1="1113.23" x2="990.96" y2="1117.76" fill="none" stroke="#000" stroke-miterlimit="10" stroke-width="1.78"/>
                </g>
                <polygon points="1220.84 1099.85 1104.08 1066.97 1062.14 1112.15 1103.26 1151.52 1220.84 1099.85" fill="none" stroke="#000" stroke-miterlimit="10" stroke-width="1.78"/>
                <polygon points="1090.69 1068.04 1049.39 1113.23 1090.3 1152.62 990.96 1117.76 1090.69 1068.04" fill="none" stroke="#000" stroke-miterlimit="10" stroke-width="1.78"/>
              </g>
            </g>
            <path d="M286.7,1110.38s41.36,21.54,120.26-12.59c78.89-34.13,83.02-57.76,83.02-57.76,0,0,34.2-123-27.09-202.11-61.29-79.11-176.18,230.39-176.18,230.39v42.07Z" fill="#ab99c4" mix-blend-mode="multiply" opacity=".6" stroke-width="0"/>
            <g>
              <g>
                <path d="M431.61,801.11h0s0,0,0,0c-1.51-.92-3.06-1.78-4.65-2.57-1.06-.53-2.14-1.02-3.22-1.49l-23.45-12.07-3.65,6.98c-46.82.85-102.85,45.78-137.14,114.78-32.44,65.27-35.95,133.04-12.88,172.19l-5.01,9.59,32.77,17.03c50.35,25.02,125.32-23.42,167.46-108.2,40.8-82.09,35.84-168.15-10.22-196.24Z" fill="#e0e0e0" stroke="#070404" stroke-miterlimit="10" stroke-width="2"/>
                <g clip-path="url(#clippath-1)">
                  <polygon points="268.81 1076.44 350.66 1129.46 278.51 1133.29 212.85 1087.75 268.81 1076.44" stroke="#070404" stroke-miterlimit="10" stroke-width="3"/>
                  <polygon points="283.48 1058.25 375.7 1120.48 406.07 1104.67 306.09 1035.3 283.48 1058.25" stroke="#070404" stroke-miterlimit="10" stroke-width="3"/>
                  <polygon points="324.37 1036.66 399.98 1091.81 412.07 1079.25 330.22 1023.71 324.37 1036.66" stroke="#070404" stroke-miterlimit="10" stroke-width="3"/>
                  <polygon points="389.42 841.35 554.92 903.9 556.99 916.84 388.39 851.87 389.42 841.35" stroke="#070404" stroke-miterlimit="10" stroke-width="3"/>
                </g>
                <path d="M415.16,983.8c-42.13,84.78-117.1,133.22-167.45,108.2-50.35-25.02-57.01-114.03-14.88-198.82,42.13-84.78,117.11-133.22,167.46-108.2,50.35,25.02,57.01,114.04,14.88,198.82Z" fill="#fff" stroke="#070404" stroke-miterlimit="10" stroke-width="2"/>
                <ellipse cx="319.7" cy="936.36" rx="145.48" ry="86.4" transform="translate(-661.1 805.93) rotate(-63.57)" fill="#fff" stroke="#070404" stroke-miterlimit="10" stroke-width="2"/>
                <path d="M388.04,808.05c-42.63-17.18-103.66,23.61-138.39,93.5-34.72,69.88-30.4,143.14,9.02,166.76-1.26-.51-2.51-1.07-3.73-1.67-42.73-21.24-48.39-96.78-12.63-168.73,35.76-71.95,99.38-113.06,142.12-91.83,1.23.61,2.43,1.27,3.6,1.97Z" fill="#121216" stroke="#070404" stroke-miterlimit="10" stroke-width="2"/>
              </g>
              <path d="M370.63,928.86c7.35-16.8,1.03-27.27-10.15-35.25-.23-.16-.27-.47-.11-.79l11.63-23.5c.18-.35.11-.68-.16-.84l-8.26-4.63c-.5-.28-1.4.13-1.71.77l-10.54,21.69c-.31.63-1.19,1.03-1.69.77-2.12-1.09-4.3-2.15-6.49-3.22-.3-.14-.38-.48-.2-.84l11.34-23.65c.17-.35.1-.68-.17-.83l-8.67-4.86c-.5-.28-1.42.13-1.73.78l-10.84,23.03c-.3.63-1.19,1.04-1.7.79-1.9-.92-3.77-1.84-5.59-2.79l.04-.08-13.57-7.09c-.52-.27-1.44.15-1.73.8l-6.7,14.81c-.16.36-.08.69.22.83,1.74.81,7.47,3.51,7.28,3.63,4.24,2.12,4,6.33,3,9.59-.01.05-.03.09-.05.14l-12.55,27.03c-.16.35-.63,1.36-.92,1.98l-16.56,35.67s-.04.08-.06.12c-1.01,1.68-3.06,4.08-5.96,2.95.05.16-4.63-1.76-6.68-2.61-.48-.2-1.27.14-1.61.7l-8.44,13.8c-.25.41-.17.81.2.94l12.95,4.81c2.29.86,4.52,1.74,6.71,2.58.32.12.42.45.25.82l-9.57,20.34c-.18.37-.07.71.27.82l8.32,2.86c.52.18,1.34-.23,1.62-.82l8.94-18.65c.29-.6,1.14-1.01,1.65-.8,2.1.84,4.15,1.62,6.17,2.37.33.12.42.45.24.83l-9.47,19.47c-.18.38-.08.71.26.83l7.96,2.73c.52.18,1.32-.23,1.61-.8l9.14-18.48c.28-.56,1.04-.95,1.57-.81,15.82,4.28,28.84,2.7,40.15-16.13,9.08-15.12,8.12-24.72,1.8-31.61-.38-.41.14-1.24.92-1.48,6.64-2.06,12.81-7.59,17.66-18.71h0s0,0,0,0ZM333.51,970.71c-7.87,15.65-26.46,6.76-33.57,3.89-.32-.13-.41-.46-.23-.82l13.48-28.11c.29-.6,1.13-1.01,1.65-.81,7.64,3.09,26.9,9.51,18.67,25.85h0ZM350.2,926.76c-7.59,15.2-23.13,6.56-29.13,3.73-.3-.14-.37-.47-.2-.83l12.97-27.04c.3-.62,1.16-1.03,1.67-.79,6.55,2.99,22.56,9.18,14.7,24.93h0Z" fill="#f7931a" stroke="#070404" stroke-miterlimit="10" stroke-width="4.12"/>
            </g>
            <g>
              <path d="M1346.68,754.93c-29.62-12.38-59.34-13.64-85.42-5.69h0s-.08.02-.08.02c-2.33.71-4.63,1.5-6.9,2.35l-16.3,5.56.67,1.77c-27.65,15.69-48.74,43.29-57.21,79.76-17.88,76.93,27.11,164.16,100.49,194.82,21.89,9.15,43.83,12.22,64.32,10l2.64,2.06,21.64-7.39c.23-.08.46-.16.7-.24h.03s0,0,0,0c36.7-12.66,65.62-43.89,75.92-88.21,17.88-76.93-27.11-164.16-100.5-194.82Z" fill="#e0e0e0" stroke="#070404" stroke-miterlimit="10" stroke-width="2"/>
              <g clip-path="url(#clippath-2)">
                <polygon points="1378.52 752.15 1309.35 785.07 1210.28 767.37 1273.35 725.92 1378.52 752.15" stroke-width="0"/>
                <polygon points="1408.67 772.14 1333.77 812.99 1350.32 841.24 1439.31 789.16 1408.67 772.14" stroke-width="0"/>
                <polygon points="1453.94 953.58 1365.43 1018.61 1309.6 1061.16 1367.14 1079.54 1484.92 993.75 1453.94 953.58" stroke-width="0"/>
                <polygon points="1433.69 802.01 1357.46 846.69 1363.48 857.16 1443.65 808.14 1433.69 802.01" stroke-width="0"/>
              </g>
              <ellipse cx="1291.13" cy="902.15" rx="130.99" ry="155.01" transform="translate(-273.34 719.58) rotate(-28.29)" fill="#fff" stroke="#070404" stroke-miterlimit="10" stroke-width="2"/>
              <ellipse cx="1291.13" cy="902.15" rx="110.19" ry="130.4" transform="translate(-273.34 719.58) rotate(-28.29)" fill="#fff" stroke="#070404" stroke-miterlimit="10" stroke-width="2"/>
              <path d="M1357.46,1014.38c-26.2,16.04-59.95,18.99-93.56,4.94-61.72-25.79-99.58-99.17-84.53-163.87,7.76-33.41,28.11-57.98,54.46-70.38-21.99,13.42-38.68,36.05-45.55,65.57-15.03,64.72,22.81,138.09,84.54,163.89,29.9,12.5,59.93,11.53,84.64-.15Z" stroke="#070404" stroke-miterlimit="10" stroke-width="2"/>
            </g>
            <g>
              <path d="M1232.07,890.97c-2.02,34.5,22.23,65.32,53.96,69.78,31.55,4.43,60.02-18.7,63.86-52.58,3.96-34.97-19.65-68.24-53.03-73.31-33.58-5.1-62.69,20.48-64.78,56.11Z" fill="#a168d5" stroke="#000" stroke-miterlimit="10" stroke-width="2"/>
              <path d="M1334.48,942.27c3.55,9.17,3.84,14.57,1.02,16.92-6.89,5.73-32.76-15.75-58.55-48.9-26.63-34.23-43.18-67.97-36.13-74.38,2.89-2.63,9.29-.17,17.7,6.1" fill="none" stroke="#000" stroke-miterlimit="10" stroke-width="2"/>
              <path d="M1239.14,926.79c-5.1,8.03-7.23,15-4.82,18.11,5.87,7.58,35.04-6.21,65.81-31.25,31.45-25.59,52.9-53.4,47.23-61.65-2.33-3.39-8.87-2.9-18,.69" fill="none" stroke="#000" stroke-miterlimit="10" stroke-width="2"/>
            </g>
            <path d="M748.37,383.3c46.02,16.77,132.97,7.3,232.68-7.13l139.23-59.66-119.28-53.92-72.9,10.94-179.73,109.77Z" fill="#ab99c4" mix-blend-mode="multiply" opacity=".6" stroke-width="0"/>
          </g>
          <g>
            <g isolation="isolate">
              <g isolation="isolate">
                <g clip-path="url(#clippath-3)">
                  <g isolation="isolate">
                    <path d="M716.1,366.72l-15.02-8.88c.41.24.82.48,1.24.72l15.02,8.88c-.41-.24-.83-.48-1.24-.72" stroke-width="0"/>
                    <path d="M717.33,367.44l-15.02-8.88c5.13,2.94,10.49,5.49,16.05,7.61l15.02,8.88c-5.56-2.12-10.92-4.67-16.05-7.61" stroke-width="0"/>
                    <path d="M733.38,375.05l-15.02-8.88c6.92,2.64,14.14,4.64,21.61,5.94l15.02,8.88c-7.47-1.3-14.69-3.29-21.61-5.94" stroke-width="0"/>
                    <path d="M754.99,380.99l-15.02-8.88c20.08,3.5,41.91,1.98,64.21-5.35,2.06-.68,4.12-1.4,6.15-2.17,5.7-2.14,11.29-4.62,16.75-7.42l15.02,8.88c-5.46,2.8-11.05,5.28-16.75,7.42-2.04.77-4.09,1.49-6.15,2.17-22.3,7.34-44.13,8.85-64.21,5.35" stroke-width="0"/>
                    <path d="M842.11,366.05l-15.02-8.88c7.41-3.79,14.58-8.17,21.45-13.1l15.02,8.88c-6.88,4.92-14.05,9.3-21.45,13.1" stroke-width="0"/>
                    <path d="M863.56,352.95l-15.02-8.88c5.5-3.93,10.81-8.22,15.9-12.82l15.02,8.88c-5.09,4.6-10.4,8.89-15.9,12.82" stroke-width="0"/>
                    <path d="M879.46,340.13l-15.02-8.88c4.61-4.17,9.05-8.61,13.29-13.29l15.02,8.88c-4.24,4.68-8.68,9.12-13.29,13.29" stroke-width="0"/>
                    <path d="M892.75,326.84l-15.02-8.88c4.12-4.55,8.06-9.34,11.8-14.35l15.02,8.88c-3.73,5.01-7.67,9.8-11.8,14.35" stroke-width="0"/>
                    <path d="M904.55,312.49l-15.02-8.88c3.33-4.47,6.5-9.11,9.49-13.92.46-.73.91-1.47,1.36-2.21l15.02,8.88c-.45.74-.9,1.48-1.36,2.21-2.99,4.81-6.16,9.45-9.49,13.92" stroke-width="0"/>
                    <path d="M915.4,296.36l-15.02-8.88c3.66-6.05,6.97-12.23,9.92-18.52l15.02,8.88c-2.95,6.29-6.26,12.47-9.92,18.52" stroke-width="0"/>
                    <path d="M925.32,277.84l-15.02-8.88c3.56-7.57,6.59-15.29,9.1-23.1l15.02,8.88c-2.51,7.81-5.55,15.53-9.1,23.1" stroke-width="0"/>
                    <path d="M934.43,254.74l-15.02-8.88c8.04-25.03,10.63-50.99,7.35-76l15.02,8.88c3.29,25.01.69,50.98-7.35,76" stroke-width="0"/>
                  </g>
                </g>
              </g>
              <g isolation="isolate">
                <g clip-path="url(#clippath-4)">
                  <g isolation="isolate">
                    <path d="M941.77,178.74l-15.02-8.88c-5.27-40.08-25.02-72.9-55.62-92.4-1.09-.69-2.19-1.37-3.3-2.02l15.02,8.88c1.11.65,2.21,1.33,3.3,2.02,30.6,19.5,50.35,52.32,55.62,92.4" stroke-width="0"/>
                  </g>
                </g>
              </g>
              <g isolation="isolate">
                <g clip-path="url(#clippath-5)">
                  <g isolation="isolate">
                    <path d="M773.67,77.63l-15.02-8.88c2.01-.76,4.04-1.47,6.08-2.14,22.04-7.25,44-9.01,64.53-5.4l15.02,8.88c-20.53-3.61-42.49-1.85-64.53,5.4-2.04.67-4.07,1.38-6.08,2.14" fill="#adadad" stroke-width="0"/>
                    <path d="M844.28,70.09l-15.02-8.88c7.3,1.28,14.43,3.24,21.31,5.88l15.02,8.88c-6.88-2.63-14-4.6-21.31-5.88" fill="#a8a8a8" stroke-width="0"/>
                    <path d="M865.59,75.97l-15.02-8.88c5.53,2.12,10.9,4.67,16.08,7.65l15.02,8.88c-5.18-2.98-10.55-5.53-16.08-7.65" fill="#a3a3a3" stroke-width="0"/>
                    <path d="M881.67,83.62l-15.02-8.88c.4.23.79.46,1.19.69l15.02,8.88c-.4-.23-.79-.46-1.19-.69" fill="#9e9e9e" stroke-width="0"/>
                  </g>
                </g>
              </g>
              <g isolation="isolate">
                <g clip-path="url(#clippath-6)">
                  <g isolation="isolate">
                    <path d="M716.1,366.72l-15.02-8.88c-31.04-18.34-53.27-51.44-58.91-94.33-3.34-25.39-.47-51.31,7.37-75.79l15.02,8.88c-7.84,24.48-10.7,50.39-7.37,75.79,5.64,42.88,27.87,75.98,58.91,94.33" fill="#858585" stroke-width="0"/>
                    <path d="M664.55,196.6l-15.02-8.88c2.55-7.96,5.62-15.76,9.18-23.34l15.02,8.88c-3.56,7.58-6.63,15.39-9.18,23.34" fill="#8a8a8a" stroke-width="0"/>
                    <path d="M673.73,173.26l-15.02-8.88c2.97-6.33,6.28-12.52,9.91-18.51l15.02,8.88c-3.62,5.99-6.93,12.17-9.91,18.51" fill="#8f8f8f" stroke-width="0"/>
                  </g>
                </g>
              </g>
              <g isolation="isolate">
                <g clip-path="url(#clippath-7)">
                  <g isolation="isolate">
                    <path d="M673.73,173.26l-15.02-8.88c2.97-6.33,6.28-12.52,9.91-18.51l15.02,8.88c-3.62,5.99-6.93,12.17-9.91,18.51" fill="#8f8f8f" stroke-width="0"/>
                    <path d="M683.64,154.76l-15.02-8.88c3.31-5.48,6.89-10.8,10.71-15.92l15.02,8.88c-3.82,5.13-7.4,10.44-10.71,15.92" fill="#949494" stroke-width="0"/>
                    <path d="M694.35,138.83l-15.02-8.88c3.73-5,7.69-9.82,11.87-14.44l15.02,8.88c-4.18,4.61-8.14,9.43-11.87,14.44" fill="#999" stroke-width="0"/>
                    <path d="M706.22,124.4l-15.02-8.88c4.27-4.71,8.76-9.2,13.45-13.45l15.02,8.88c-4.7,4.24-9.19,8.73-13.45,13.45" fill="#9e9e9e" stroke-width="0"/>
                    <path d="M719.67,110.95l-15.02-8.88c5.12-4.62,10.48-8.95,16.07-12.94l15.02,8.88c-5.58,3.99-10.95,8.32-16.07,12.94" fill="#a3a3a3" stroke-width="0"/>
                    <path d="M735.74,98.01l-15.02-8.88c6.87-4.91,14.08-9.32,21.58-13.14l15.02,8.88c-7.5,3.82-14.7,8.23-21.58,13.14" fill="#a8a8a8" stroke-width="0"/>
                    <path d="M757.32,84.86l-15.02-8.88c5.31-2.71,10.77-5.13,16.35-7.23l15.02,8.88c-5.59,2.1-11.04,4.52-16.35,7.23" fill="#adadad" stroke-width="0"/>
                  </g>
                </g>
              </g>
              <path d="M773.67,77.63c2.01-.76,4.04-1.47,6.08-2.14,38.01-12.51,75.79-8.66,106.4,10.84,30.6,19.5,50.35,52.32,55.62,92.4,5.27,40.09-4.58,82.64-27.73,119.83-21.9,35.18-53.2,61.56-88.69,74.9-2.04.77-4.09,1.49-6.15,2.17-78.46,25.82-151.14-20.49-162.02-103.24-10.59-80.6,41.29-166.48,116.49-194.76Z" fill="#dcdcdc" stroke-width="0"/>
              <g isolation="isolate">
                <g clip-path="url(#clippath-8)">
                  <g isolation="isolate">
                    <path d="M714.51,369.4l-15.02-8.88c-31.63-18.69-54.29-52.42-60.03-96.12-3.4-25.87-.48-52.27,7.51-77.2l15.02,8.88c-7.99,24.93-10.91,51.34-7.51,77.2,5.74,43.7,28.4,77.43,60.03,96.12" stroke-width="0"/>
                    <path d="M661.99,196.08l-15.02-8.88c2.6-8.11,5.73-16.06,9.36-23.79l15.02,8.88c-3.63,7.73-6.76,15.68-9.36,23.79" stroke-width="0"/>
                    <path d="M671.35,172.29l-15.02-8.88c3.03-6.46,6.4-12.76,10.1-18.86l15.02,8.88c-3.69,6.1-7.07,12.4-10.1,18.86" stroke-width="0"/>
                    <path d="M681.44,153.43l-15.02-8.88c3.38-5.58,7.02-11.01,10.92-16.23l15.02,8.88c-3.89,5.23-7.54,10.65-10.92,16.23" stroke-width="0"/>
                    <path d="M692.36,137.2l-15.02-8.88c3.8-5.1,7.84-10.01,12.09-14.71l15.02,8.88c-4.26,4.7-8.29,9.61-12.09,14.71" stroke-width="0"/>
                    <path d="M704.46,122.48l-15.02-8.88c4.35-4.8,8.93-9.38,13.71-13.71l15.02,8.88c-4.79,4.32-9.36,8.9-13.71,13.71" stroke-width="0"/>
                    <path d="M718.17,108.78l-15.02-8.88c5.22-4.71,10.69-9.13,16.38-13.19l15.02,8.88c-5.69,4.07-11.16,8.48-16.38,13.19" stroke-width="0"/>
                    <path d="M734.55,95.58l-15.02-8.88c7.01-5.01,14.35-9.5,21.99-13.4l15.02,8.88c-7.64,3.9-14.99,8.39-21.99,13.4" stroke-width="0"/>
                    <path d="M756.54,82.19l-15.02-8.88c5.41-2.76,10.97-5.23,16.67-7.36,2.05-.77,4.1-1.49,6.18-2.18,22.45-7.39,44.82-9.17,65.74-5.5l15.02,8.88c-20.91-3.67-43.29-1.89-65.74,5.5-2.08.68-4.13,1.41-6.18,2.18-5.69,2.14-11.25,4.6-16.67,7.36" stroke-width="0"/>
                    <path d="M845.12,67.14l-15.02-8.88c7.44,1.31,14.7,3.31,21.71,5.99l15.02,8.88c-7.01-2.68-14.27-4.68-21.71-5.99" stroke-width="0"/>
                    <path d="M866.83,73.13l-15.02-8.88c5.63,2.16,11.11,4.75,16.39,7.79l15.02,8.88c-5.28-3.04-10.75-5.64-16.39-7.79" stroke-width="0"/>
                    <path d="M883.22,80.92l-15.02-8.88c.4.23.81.47,1.21.71l15.02,8.88c-.4-.24-.81-.47-1.21-.71" stroke-width="0"/>
                  </g>
                </g>
              </g>
              <path d="M887.79,83.69c31.18,19.87,51.31,53.31,56.68,94.16,5.37,40.85-4.67,84.21-28.26,122.1-22.31,35.84-54.22,62.73-90.38,76.32-2.08.78-4.17,1.51-6.27,2.21-79.95,26.3-154.01-20.88-165.09-105.21-10.79-82.13,42.1-169.65,118.73-198.46,2.05-.77,4.1-1.49,6.18-2.18,38.73-12.74,77.23-8.82,108.41,11.05ZM941.77,178.74c-5.27-40.08-25.02-72.9-55.62-92.4-30.61-19.5-68.39-23.35-106.4-10.84-2.04.67-4.07,1.38-6.08,2.14-75.2,28.27-127.08,114.16-116.49,194.76,10.88,82.75,83.56,129.06,162.02,103.24,2.06-.68,4.12-1.4,6.15-2.17,35.49-13.34,66.79-39.72,88.69-74.9,23.15-37.19,33-79.74,27.73-119.83" stroke-width="0"/>
            </g>
            <g isolation="isolate">
              <g isolation="isolate">
                <g clip-path="url(#clippath-9)">
                  <g isolation="isolate">
                    <path d="M992.37,118.76l-15.02-8.88c.44-.5.85-1.01,1.24-1.54l15.02,8.88c-.39.53-.81,1.04-1.24,1.54" stroke-width="0"/>
                    <path d="M993.61,117.22l-15.02-8.88c.49-.66.95-1.35,1.38-2.05l15.02,8.88c-.42.7-.88,1.38-1.38,2.05" stroke-width="0"/>
                    <path d="M994.99,115.17l-15.02-8.88c.46-.76.88-1.54,1.25-2.34l15.02,8.88c-.37.8-.79,1.58-1.25,2.34" stroke-width="0"/>
                    <path d="M996.24,112.83l-15.02-8.88c.45-.97.84-1.95,1.17-2.96l15.02,8.88c-.32,1.01-.71,2-1.17,2.96" stroke-width="0"/>
                    <path d="M997.41,109.87l-15.02-8.88c.63-1.96,1.01-3.98,1.11-6.01l15.02,8.88c-.11,2.03-.48,4.05-1.11,6.01" stroke-width="0"/>
                  </g>
                </g>
              </g>
              <g isolation="isolate">
                <g clip-path="url(#clippath-10)">
                  <g isolation="isolate">
                    <path d="M998.52,103.86l-15.02-8.88c.27-5.39-1.39-10.22-4.7-13.61-.93-.96-1.96-1.77-3.07-2.43l15.02,8.88c1.11.66,2.14,1.47,3.07,2.43,3.31,3.39,4.97,8.23,4.7,13.61" stroke-width="0"/>
                  </g>
                </g>
              </g>
              <g isolation="isolate">
                <g clip-path="url(#clippath-11)">
                  <g isolation="isolate">
                    <path d="M976.66,86.98l-15.02-8.88c1.43-.54,2.9-.9,4.39-1.08,1.65-.2,3.26-.15,4.79.11l15.02,8.88c-1.53-.27-3.14-.31-4.79-.11-1.49.18-2.96.54-4.39,1.08" fill="#7c1836" stroke-width="0"/>
                    <path d="M985.83,86.02l-15.02-8.88c.94.17,1.86.42,2.74.75l15.02,8.88c-.88-.34-1.79-.59-2.74-.75" fill="#781834" stroke-width="0"/>
                    <path d="M988.57,86.77l-15.02-8.88c.7.27,1.38.59,2.03.96l15.02,8.88c-.65-.37-1.33-.7-2.03-.96" fill="#741733" stroke-width="0"/>
                    <path d="M990.6,87.74l-15.02-8.88s.1.06.15.09l15.02,8.88s-.1-.06-.15-.09" fill="#711631" stroke-width="0"/>
                  </g>
                </g>
              </g>
              <g isolation="isolate">
                <g clip-path="url(#clippath-12)">
                  <g isolation="isolate">
                    <path d="M976.66,86.98l-15.02-8.88c1.43-.54,2.9-.9,4.39-1.08,1.65-.2,3.26-.15,4.79.11l15.02,8.88c-1.53-.27-3.14-.31-4.79-.11-1.49.18-2.96.54-4.39,1.08" fill="#7c1836" stroke-width="0"/>
                  </g>
                </g>
              </g>
              <g isolation="isolate">
                <g clip-path="url(#clippath-13)">
                  <g isolation="isolate">
                    <path d="M976.66,86.98l-15.02-8.88c1.43-.54,2.9-.9,4.39-1.08,1.65-.2,3.26-.15,4.79.11l15.02,8.88c-1.53-.27-3.14-.31-4.79-.11-1.49.18-2.96.54-4.39,1.08" fill="#7c1836" stroke-width="0"/>
                  </g>
                </g>
              </g>
              <g isolation="isolate">
                <g clip-path="url(#clippath-14)">
                  <g isolation="isolate">
                    <path d="M967.65,93.37l-15.02-8.88c.1-.11.2-.23.3-.34l15.02,8.88c-.1.11-.2.22-.3.34" fill="#6d162f" stroke-width="0"/>
                    <path d="M967.95,93.03l-15.02-8.88c.56-.62,1.15-1.21,1.76-1.76l15.02,8.88c-.61.55-1.19,1.14-1.76,1.76" fill="#711631" stroke-width="0"/>
                    <path d="M969.71,91.27l-15.02-8.88c.67-.6,1.36-1.16,2.07-1.67l15.02,8.88c-.71.51-1.4,1.07-2.07,1.67" fill="#741733" stroke-width="0"/>
                    <path d="M971.78,89.6l-15.02-8.88c.89-.64,1.81-1.2,2.75-1.68l15.02,8.88c-.95.48-1.87,1.05-2.75,1.68" fill="#781834" stroke-width="0"/>
                    <path d="M974.54,87.92l-15.02-8.88c.69-.36,1.4-.67,2.12-.94l15.02,8.88c-.72.27-1.42.58-2.12.94" fill="#7c1836" stroke-width="0"/>
                  </g>
                </g>
              </g>
              <g isolation="isolate">
                <g clip-path="url(#clippath-15)">
                  <g isolation="isolate">
                    <path d="M965.47,91.13l-15.02-8.88c.12-.14.24-.27.36-.4l15.02,8.88c-.12.13-.24.27-.36.4" stroke-width="0"/>
                    <path d="M965.83,90.72l-15.02-8.88c.66-.73,1.35-1.42,2.06-2.06l15.02,8.88c-.71.64-1.4,1.33-2.06,2.06" stroke-width="0"/>
                    <path d="M967.89,88.67l-15.02-8.88c.78-.71,1.6-1.36,2.43-1.96l15.02,8.88c-.84.6-1.65,1.25-2.43,1.96" stroke-width="0"/>
                    <path d="M970.32,86.7l-15.02-8.88c1.05-.75,2.13-1.41,3.25-1.98l15.02,8.88c-1.11.57-2.2,1.23-3.25,1.98" stroke-width="0"/>
                    <path d="M973.57,84.72l-15.02-8.88c.82-.42,1.65-.79,2.5-1.11,1.68-.63,3.41-1.06,5.16-1.27,1.94-.23,3.83-.18,5.63.14l15.02,8.88c-1.8-.32-3.69-.37-5.63-.14-1.75.21-3.48.64-5.16,1.27-.85.32-1.68.69-2.5,1.11" stroke-width="0"/>
                    <path d="M986.85,82.48l-15.02-8.88c1.11.2,2.19.49,3.22.89l15.02,8.88c-1.03-.4-2.11-.69-3.22-.89" stroke-width="0"/>
                    <path d="M990.08,83.36l-15.02-8.88c.83.32,1.63.7,2.39,1.14l15.02,8.88c-.77-.44-1.57-.82-2.39-1.14" stroke-width="0"/>
                    <path d="M992.47,84.5l-15.02-8.88c.06.03.12.07.18.1l15.02,8.88c-.06-.03-.12-.07-.18-.1" stroke-width="0"/>
                  </g>
                </g>
              </g>
              <polygon points="821.25 314.67 806.23 305.79 977.35 109.88 992.37 118.76 821.25 314.67" stroke-width="0"/>
              <g isolation="isolate">
                <g clip-path="url(#clippath-16)">
                  <g isolation="isolate">
                    <path d="M818.66,315.28l-15.02-8.88s.01,0,.02,0l15.02,8.88s-.01,0-.02,0" stroke-width="0"/>
                    <path d="M818.67,315.29l-15.02-8.88c.07.04.15.08.23.11l15.02,8.88c-.08-.03-.16-.07-.23-.11" stroke-width="0"/>
                    <path d="M818.9,315.4l-15.02-8.88c.1.04.2.07.31.09l15.02,8.88c-.11-.02-.21-.05-.31-.09" stroke-width="0"/>
                    <path d="M819.21,315.49l-15.02-8.88c.33.06.69.02,1.03-.11.08-.03.16-.07.24-.11l15.02,8.88c-.08.04-.16.08-.24.11-.34.13-.69.17-1.03.11" stroke-width="0"/>
                    <path d="M820.48,315.27l-15.02-8.88c.11-.05.21-.12.31-.19l15.02,8.88c-.1.07-.2.13-.31.19" stroke-width="0"/>
                    <path d="M820.79,315.08l-15.02-8.88c.08-.06.16-.12.23-.19l15.02,8.88c-.07.07-.15.13-.23.19" stroke-width="0"/>
                    <path d="M821.02,314.9l-15.02-8.88c.07-.06.13-.12.19-.19l15.02,8.88c-.06.07-.13.13-.19.19" stroke-width="0"/>
                    <path d="M821.21,314.71l-15.02-8.88s.02-.03.04-.04l15.02,8.88s-.02.03-.04.04" stroke-width="0"/>
                  </g>
                </g>
              </g>
              <g isolation="isolate">
                <g clip-path="url(#clippath-17)">
                  <g isolation="isolate">
                    <path d="M818.66,315.28l-15.02-8.88s-.03-.02-.05-.03l15.02,8.88s.03.02.05.03" fill="#5f1329" stroke-width="0"/>
                  </g>
                </g>
              </g>
              <g isolation="isolate">
                <g clip-path="url(#clippath-18)">
                  <g isolation="isolate">
                    <path d="M816.77,318.5l-15.02-8.88s-.09-.06-.14-.09l15.02,8.88s.09.06.14.09" stroke-width="0"/>
                  </g>
                </g>
              </g>
              <polygon points="821.34 260.87 806.32 251.99 952.63 84.49 967.65 93.37 821.34 260.87" fill="#781834" stroke-width="0"/>
              <polygon points="819.16 258.62 804.14 249.75 950.45 82.25 965.47 91.13 819.16 258.62" stroke-width="0"/>
              <g isolation="isolate">
                <g clip-path="url(#clippath-19)">
                  <g isolation="isolate">
                    <path d="M814.67,262.46l-15.02-8.88s.03.02.04.03l15.02,8.88s-.03-.02-.04-.03" fill="#711631" stroke-width="0"/>
                    <path d="M814.71,262.49l-15.02-8.88c.19.11.39.2.59.28l15.02,8.88c-.2-.08-.4-.17-.59-.28" fill="#741733" stroke-width="0"/>
                    <path d="M815.3,262.77l-15.02-8.88c.26.1.52.17.8.22l15.02,8.88c-.27-.05-.54-.12-.8-.22" fill="#781834" stroke-width="0"/>
                    <path d="M816.1,262.99l-15.02-8.88c.85.15,1.76.05,2.64-.28.21-.08.41-.17.62-.27l15.02,8.88c-.2.1-.41.2-.62.27-.88.33-1.78.43-2.64.28" fill="#7c1836" stroke-width="0"/>
                    <path d="M819.36,262.44l-15.02-8.88c.27-.14.54-.3.8-.49l15.02,8.88c-.26.19-.53.35-.8.49" fill="#781834" stroke-width="0"/>
                    <path d="M820.16,261.95l-15.02-8.88c.2-.15.4-.31.6-.48l15.02,8.88c-.19.17-.39.33-.6.48" fill="#741733" stroke-width="0"/>
                    <path d="M820.75,261.47l-15.02-8.88c.17-.16.34-.32.5-.5l15.02,8.88c-.16.18-.33.34-.5.5" fill="#711631" stroke-width="0"/>
                    <path d="M821.25,260.97l-15.02-8.88s.06-.07.09-.1l15.02,8.88s-.06.07-.09.1" fill="#6d162f" stroke-width="0"/>
                  </g>
                </g>
              </g>
              <g isolation="isolate">
                <g clip-path="url(#clippath-20)">
                  <g isolation="isolate">
                    <path d="M816.57,259.25l-15.02-8.88s.01,0,.02,0l15.02,8.88s-.01,0-.02,0" stroke-width="0"/>
                    <path d="M816.59,259.26l-15.02-8.88c.07.04.15.08.23.11l15.02,8.88c-.08-.03-.15-.07-.23-.11" stroke-width="0"/>
                    <path d="M816.82,259.37l-15.02-8.88c.1.04.2.07.31.08l15.02,8.88c-.1-.02-.21-.05-.31-.08" stroke-width="0"/>
                    <path d="M817.12,259.45l-15.02-8.88c.33.06.68.02,1.02-.11.08-.03.16-.07.24-.11l15.02,8.88c-.08.04-.16.08-.24.11-.34.13-.69.17-1.02.11" stroke-width="0"/>
                    <path d="M818.39,259.24l-15.02-8.88c.11-.05.21-.12.31-.19l15.02,8.88c-.1.07-.21.14-.31.19" stroke-width="0"/>
                    <path d="M818.7,259.05l-15.02-8.88c.08-.06.16-.12.23-.19l15.02,8.88c-.07.07-.15.13-.23.19" stroke-width="0"/>
                    <path d="M818.93,258.86l-15.02-8.88c.07-.06.13-.13.19-.19l15.02,8.88c-.06.07-.13.13-.19.19" stroke-width="0"/>
                    <path d="M819.12,258.67l-15.02-8.88s.02-.03.04-.04l15.02,8.88s-.02.03-.04.04" stroke-width="0"/>
                  </g>
                </g>
              </g>
              <g isolation="isolate">
                <g clip-path="url(#clippath-21)">
                  <g isolation="isolate">
                    <path d="M814.67,262.46l-15.02-8.88s-.08-.05-.13-.08l15.02,8.88s.08.05.13.08" stroke-width="0"/>
                  </g>
                </g>
              </g>
              <polygon points="814.54 262.38 799.52 253.51 724.8 205.61 739.82 214.49 814.54 262.38" stroke-width="0"/>
              <g isolation="isolate">
                <g clip-path="url(#clippath-22)">
                  <g isolation="isolate">
                    <path d="M723.11,214.3l-15.02-8.88c.7-.36,1.43-.68,2.16-.96.27-.1.55-.2.83-.29,2.83-.92,5.65-1.15,8.28-.68l15.02,8.88c-2.64-.46-5.45-.24-8.28.68-.28.09-.56.19-.83.29-.74.28-1.46.6-2.16.96" fill="#7c1836" stroke-width="0"/>
                    <path d="M734.39,212.37l-15.02-8.88c.94.17,1.86.42,2.74.76l15.02,8.88c-.89-.34-1.8-.59-2.74-.76" fill="#781834" stroke-width="0"/>
                    <path d="M737.13,213.12l-15.02-8.88c.71.27,1.4.6,2.07.98l15.02,8.88c-.67-.38-1.36-.71-2.07-.98" fill="#741733" stroke-width="0"/>
                    <path d="M739.2,214.11l-15.02-8.88c.05.03.1.06.15.09l15.02,8.88c-.05-.03-.1-.06-.15-.09" fill="#711631" stroke-width="0"/>
                  </g>
                </g>
              </g>
              <g isolation="isolate">
                <g clip-path="url(#clippath-23)">
                  <g isolation="isolate">
                    <path d="M739.82,214.49l-15.02-8.88c-.15-.1-.31-.19-.47-.29l15.02,8.88c.16.09.31.19.47.29" stroke-width="0"/>
                  </g>
                </g>
              </g>
              <polygon points="818.6 315.25 803.58 306.37 702.37 241.49 717.39 250.37 818.6 315.25" fill="#5b1228" stroke-width="0"/>
              <polygon points="816.63 318.42 801.61 309.54 700.39 244.66 715.41 253.54 816.63 318.42" stroke-width="0"/>
              <g isolation="isolate">
                <g clip-path="url(#clippath-24)">
                  <g isolation="isolate">
                    <path d="M717.39,250.37l-15.02-8.88c-3.94-2.53-6.48-6.77-7.15-11.95-.42-3.22-.08-6.55.96-9.77l15.02,8.88c-1.03,3.22-1.37,6.55-.96,9.77.67,5.17,3.21,9.42,7.15,11.95" fill="#5f1329" stroke-width="0"/>
                  </g>
                </g>
              </g>
              <g isolation="isolate">
                <g clip-path="url(#clippath-25)">
                  <g isolation="isolate">
                    <path d="M717.39,250.37l-15.02-8.88c-3.94-2.53-6.48-6.77-7.15-11.95-.42-3.22-.08-6.55.96-9.77l15.02,8.88c-1.03,3.22-1.37,6.55-.96,9.77.67,5.17,3.21,9.42,7.15,11.95" fill="#5f1329" stroke-width="0"/>
                  </g>
                </g>
              </g>
              <g isolation="isolate">
                <g clip-path="url(#clippath-26)">
                  <g isolation="isolate">
                    <path d="M713.64,223.29l-15.02-8.88c.07-.11.13-.22.2-.33.38-.6.77-1.18,1.19-1.74l15.02,8.88c-.42.56-.82,1.14-1.19,1.74-.07.11-.14.22-.2.33" fill="#6a152e" stroke-width="0"/>
                  </g>
                </g>
              </g>
              <g isolation="isolate">
                <g clip-path="url(#clippath-27)">
                  <g isolation="isolate">
                    <path d="M717.39,250.37l-15.02-8.88c-3.94-2.53-6.48-6.77-7.15-11.95-.42-3.22-.08-6.55.96-9.77l15.02,8.88c-1.03,3.22-1.37,6.55-.96,9.77.67,5.17,3.21,9.42,7.15,11.95" fill="#5f1329" stroke-width="0"/>
                    <path d="M711.2,228.65l-15.02-8.88c.32-1.01.72-2.01,1.18-2.99l15.02,8.88c-.46.98-.85,1.98-1.18,2.99" fill="#62132b" stroke-width="0"/>
                    <path d="M712.37,225.67l-15.02-8.88c.38-.81.8-1.6,1.27-2.38l15.02,8.88c-.47.78-.89,1.57-1.27,2.38" fill="#66142c" stroke-width="0"/>
                    <path d="M713.64,223.29l-15.02-8.88c.07-.11.13-.22.2-.33.38-.6.77-1.18,1.19-1.74l15.02,8.88c-.42.56-.82,1.14-1.19,1.74-.07.11-.14.22-.2.33" fill="#6a152e" stroke-width="0"/>
                    <path d="M715.04,221.22l-15.02-8.88c.48-.65.99-1.27,1.53-1.86l15.02,8.88c-.53.59-1.04,1.21-1.53,1.86" fill="#6d162f" stroke-width="0"/>
                    <path d="M716.56,219.36l-15.02-8.88c.55-.61,1.12-1.18,1.72-1.72l15.02,8.88c-.6.54-1.17,1.11-1.72,1.72" fill="#711631" stroke-width="0"/>
                    <path d="M718.28,217.64l-15.02-8.88c.66-.59,1.34-1.15,2.05-1.66l15.02,8.88c-.71.51-1.4,1.06-2.05,1.66" fill="#741733" stroke-width="0"/>
                    <path d="M720.34,215.99l-15.02-8.88c.89-.64,1.81-1.2,2.77-1.69l15.02,8.88c-.96.49-1.88,1.06-2.77,1.69" fill="#781834" stroke-width="0"/>
                    <path d="M723.11,214.3l-15.02-8.88c.7-.36,1.43-.68,2.16-.96.27-.1.55-.2.83-.29,2.83-.92,5.65-1.15,8.28-.68l15.02,8.88c-2.64-.46-5.45-.24-8.28.68-.28.09-.56.19-.83.29-.74.28-1.46.6-2.16.96" fill="#7c1836" stroke-width="0"/>
                  </g>
                </g>
              </g>
              <g isolation="isolate">
                <g clip-path="url(#clippath-28)">
                  <g isolation="isolate">
                    <path d="M715.41,253.54l-15.02-8.88c-4.64-2.98-7.63-7.96-8.42-14.06-.49-3.78-.09-7.7,1.12-11.48l15.02,8.88c-1.21,3.78-1.61,7.7-1.12,11.48.79,6.1,3.78,11.08,8.42,14.06" stroke-width="0"/>
                    <path d="M708.12,228l-15.02-8.88c.38-1.19.84-2.36,1.39-3.51l15.02,8.88c-.54,1.15-1,2.33-1.39,3.51" stroke-width="0"/>
                    <path d="M709.5,224.48l-15.02-8.88c.45-.95.95-1.89,1.5-2.81l15.02,8.88c-.55.92-1.05,1.85-1.5,2.81" stroke-width="0"/>
                    <path d="M711.01,221.68l-15.02-8.88c.08-.13.16-.26.24-.39.44-.71.91-1.39,1.4-2.05l15.02,8.88c-.49.66-.96,1.34-1.4,2.05-.08.13-.16.26-.24.39" stroke-width="0"/>
                    <path d="M712.65,219.24l-15.02-8.88c.57-.76,1.17-1.49,1.79-2.18l15.02,8.88c-.63.69-1.23,1.42-1.79,2.18" stroke-width="0"/>
                    <path d="M714.44,217.06l-15.02-8.88c.65-.71,1.32-1.39,2.02-2.02l15.02,8.88c-.7.63-1.38,1.31-2.02,2.02" stroke-width="0"/>
                    <path d="M716.46,215.04l-15.02-8.88c.78-.7,1.58-1.35,2.42-1.95l15.02,8.88c-.84.6-1.64,1.25-2.42,1.95" stroke-width="0"/>
                    <path d="M718.88,213.09l-15.02-8.88c1.04-.75,2.13-1.41,3.26-1.99l15.02,8.88c-1.12.58-2.21,1.24-3.26,1.99" stroke-width="0"/>
                    <path d="M722.14,211.1l-15.02-8.88c.83-.42,1.67-.8,2.53-1.12.33-.12.65-.24.98-.34,3.33-1.09,6.65-1.35,9.74-.81l15.02,8.88c-3.1-.54-6.41-.28-9.74.81-.33.11-.66.22-.98.34-.86.32-1.71.7-2.53,1.12" stroke-width="0"/>
                    <path d="M735.4,208.82l-15.02-8.88c1.1.19,2.18.49,3.22.89l15.02,8.88c-1.04-.4-2.12-.69-3.22-.89" stroke-width="0"/>
                    <path d="M738.62,209.71l-15.02-8.88c.84.32,1.65.71,2.43,1.16l15.02,8.88c-.78-.45-1.6-.84-2.43-1.16" stroke-width="0"/>
                    <path d="M741.06,210.87l-15.02-8.88c.06.03.12.07.18.1l15.02,8.88c-.06-.04-.12-.07-.18-.1" stroke-width="0"/>
                  </g>
                </g>
              </g>
              <path d="M996.26,87.46c3.88,3.99,5.85,9.68,5.52,16.02-.32,6.33-2.9,12.56-7.24,17.53l-171.12,195.9c-.75.86-1.66,1.49-2.6,1.84-1.43.54-2.97.46-4.2-.33l-101.21-64.88c-4.64-2.98-7.63-7.96-8.42-14.06-.79-6.09.73-12.55,4.25-18.19,3.32-5.31,8.07-9.3,13.43-11.32.33-.12.65-.24.98-.34,5.78-1.89,11.51-1.29,16.14,1.69l74.72,47.9c.48.3,1.07.33,1.62.13.37-.14.72-.38,1.02-.72l146.31-167.5c3.04-3.48,6.69-6.05,10.6-7.52,1.68-.63,3.41-1.06,5.16-1.27,5.81-.69,11.15,1.13,15.03,5.12ZM998.52,103.86c.27-5.39-1.39-10.22-4.7-13.61-3.3-3.4-7.84-4.93-12.78-4.35-1.49.18-2.96.54-4.39,1.08-3.32,1.25-6.42,3.43-9,6.39l-146.31,167.5c-.76.87-1.66,1.49-2.61,1.85-1.44.54-2.97.46-4.2-.33l-74.72-47.9c-3.94-2.53-8.81-3.03-13.72-1.43-.28.09-.56.19-.83.29-4.57,1.72-8.6,5.11-11.42,9.62-2.99,4.79-4.28,10.28-3.61,15.46.67,5.17,3.21,9.42,7.15,11.95l101.21,64.88c.48.31,1.07.34,1.63.13.37-.14.72-.38,1.01-.71l171.12-195.91c3.69-4.22,5.87-9.52,6.15-14.9" stroke-width="0"/>
              <path d="M976.66,86.98c1.43-.54,2.9-.9,4.39-1.08,4.94-.59,9.48.95,12.78,4.35,3.31,3.39,4.97,8.23,4.7,13.61-.28,5.38-2.47,10.67-6.15,14.9l-171.12,195.91c-.29.34-.64.58-1.01.71-.56.21-1.16.18-1.63-.13l-101.21-64.88c-3.94-2.53-6.48-6.77-7.15-11.95-.67-5.18.62-10.67,3.61-15.46,2.83-4.51,6.85-7.9,11.42-9.62.27-.1.55-.2.83-.29,4.9-1.6,9.77-1.1,13.72,1.43l74.72,47.9c1.23.79,2.76.87,4.19.33.94-.35,1.85-.98,2.61-1.84l146.31-167.5c2.58-2.95,5.68-5.14,9-6.39Z" fill="#9479f7" stroke-width="0"/>
            </g>
          </g>
        </g>
        <g>
          <path d="M489.93,207.32c-5.53,0-10.96.41-16.27,1.21-24.01-45.97-72.12-77.35-127.57-77.35-50.8,0-95.45,26.34-121.05,66.11-57.87,2.69-103.97,50.46-103.97,108.99s48.85,109.12,109.12,109.12c18.17,0,35.3-4.45,50.37-12.3,19.65,10.07,41.92,15.76,65.52,15.76,26.52,0,51.35-7.18,72.68-19.7,19.1,16.45,43.97,26.4,71.16,26.4,60.26,0,109.12-48.85,109.12-109.12s-48.85-109.12-109.12-109.12Z" fill="#fff" stroke-width="0"/>
          <path d="M591.21,357.1c-79.59,88.51-165.1-13.28-165.1-13.28-58.69,62-157.07,9.92-157.07,9.92-72.7,21.63-124.87-20.93-147.95-45.8.88,59.51,49.38,107.48,109.1,107.48,18.17,0,35.3-4.45,50.37-12.3,19.65,10.07,41.92,15.76,65.52,15.76,26.52,0,51.35-7.18,72.68-19.7,19.1,16.45,43.97,26.4,71.16,26.4,45.89,0,85.16-28.34,101.29-68.46Z" fill="#cfdbe5" stroke-width="0"/>
          <path d="M489.93,207.32c-5.53,0-10.96.41-16.27,1.21-24.01-45.97-72.12-77.35-127.57-77.35-50.8,0-95.45,26.34-121.05,66.11-57.87,2.69-103.97,50.46-103.97,108.99s48.85,109.12,109.12,109.12c18.17,0,35.3-4.45,50.37-12.3,19.65,10.07,41.92,15.76,65.52,15.76,26.52,0,51.35-7.18,72.68-19.7,19.1,16.45,43.97,26.4,71.16,26.4,60.26,0,109.12-48.85,109.12-109.12s-48.85-109.12-109.12-109.12Z" fill="none" stroke="#000" stroke-miterlimit="10" stroke-width="2"/>
        </g>
      </g>
    </g>
  </g>
</svg>